<?xml version="1.0" standalone="no"?>
<!DOCTYPE svg PUBLIC "-//W3C//DTD SVG 1.1//EN" "http://www.w3.org/Graphics/SVG/1.1/DTD/svg11.dtd" >
<svg xmlns="http://www.w3.org/2000/svg" xmlns:xlink="http://www.w3.org/1999/xlink" version="1.1">
<metadata>
Created by FontForge 20190801 at Fri Jan 22 21:22:26 2010
 By root
Part of the Neutraface collection from House Industries
</metadata>
<defs>
<font id="NeutrafaceText-BookAlt" horiz-adv-x="516" >
  <font-face 
    font-family="Neutraface Text Book Alt"
    font-weight="400"
    font-stretch="normal"
    units-per-em="1000"
    panose-1="2 0 7 0 5 0 0 2 0 4"
    ascent="780"
    descent="-220"
    x-height="414"
    cap-height="680"
    bbox="-138 -273 1793 1100"
    underline-thickness="20"
    underline-position="-133"
    stemh="58"
    stemv="71"
    unicode-range="U+0020-FFFD"
  />
<missing-glyph horiz-adv-x="597" 
d="M82 0v680h433v-680h-433zM323 339l137 -256v512zM138 595v-496l132 248zM294 300l-134 -251h268zM167 631l131 -245l132 245h-263z" />
    <glyph glyph-name="fi.liga" unicode="fi" horiz-adv-x="503" 
d="M392 534c-26 0 -50 20 -50 49s24 50 50 50c27 0 50 -21 50 -50s-23 -49 -50 -49zM101 0v355h-67v59h67v188c0 93 47 133 116 133c50 0 76 -18 98 -45l-40 -46c-13 17 -25 28 -53 28c-30 0 -51 -16 -51 -70v-188h257v-414h-70v355h-187v-355h-70z" />
    <glyph glyph-name="fl.liga" unicode="fl" horiz-adv-x="507" 
d="M101 0v355h-67v59h67v152c0 112 78 169 165 169c85 0 162 -51 162 -165v-570h-70v565c0 74 -38 107 -92 107c-56 0 -95 -32 -95 -107v-151h106v-59h-106v-355h-70z" />
    <glyph glyph-name=".notdef" horiz-adv-x="597" 
d="M82 0v680h433v-680h-433zM323 339l137 -256v512zM138 595v-496l132 248zM294 300l-134 -251h268zM167 631l131 -245l132 245h-263z" />
    <glyph glyph-name="lslash" unicode="&#x142;" horiz-adv-x="268" 
d="M99 0v241l-85 -51v69l85 52v411h70v-371l88 54v-70l-88 -53v-282h-70z" />
    <glyph glyph-name="Scaron" unicode="&#x160;" horiz-adv-x="530" 
d="M246 743l-128 193h59l73 -102l75 102h58l-127 -193h-10zM266 -8c-130 0 -201 66 -237 138l60 32c32 -57 79 -106 175 -106c79 0 141 44 141 116c0 69 -43 104 -128 142l-54 25c-97 44 -150 91 -150 186c0 98 77 163 179 163c91 0 148 -42 184 -102l-58 -36
c-26 42 -62 74 -126 74c-67 0 -108 -39 -108 -97c0 -60 32 -87 108 -122l54 -25c113 -50 171 -106 171 -208c0 -112 -89 -180 -211 -180z" />
    <glyph glyph-name="S" unicode="S" horiz-adv-x="531" 
d="M266 -8c-130 0 -201 66 -237 138l60 32c32 -57 79 -106 175 -106c79 0 141 44 141 116c0 69 -43 104 -128 142l-54 25c-97 44 -150 91 -150 186c0 98 77 163 179 163c91 0 148 -42 184 -102l-58 -36c-26 42 -62 74 -126 74c-67 0 -108 -39 -108 -97
c0 -60 32 -87 108 -122l54 -25c113 -50 171 -106 171 -208c0 -112 -89 -180 -211 -180z" />
    <glyph glyph-name="scaron" unicode="&#x161;" horiz-adv-x="410" 
d="M194 488l-128 193h58l74 -102l75 102h58l-128 -193h-9zM213 -8c-91 0 -150 44 -177 96l54 31c24 -40 60 -70 120 -70c56 0 88 24 88 62c0 45 -36 55 -108 76c-65 19 -125 45 -125 123c0 72 60 113 136 113c63 0 109 -26 138 -67l-48 -37c-21 29 -50 47 -90 47
c-45 0 -72 -21 -72 -53c0 -39 25 -50 98 -71c70 -19 137 -47 137 -127c0 -70 -47 -123 -151 -123z" />
    <glyph glyph-name="s" unicode="s" horiz-adv-x="410" 
d="M213 -8c-91 0 -150 44 -177 96l54 31c24 -40 60 -70 120 -70c56 0 88 24 88 62c0 45 -36 55 -108 76c-65 19 -125 45 -125 123c0 72 60 113 136 113c63 0 109 -26 138 -67l-48 -37c-21 29 -50 47 -90 47c-45 0 -72 -21 -72 -53c0 -39 25 -50 98 -71
c70 -19 137 -47 137 -127c0 -70 -47 -123 -151 -123z" />
    <glyph glyph-name="Yacute" unicode="&#xdd;" horiz-adv-x="656" 
d="M294 0v213l-257 467h81l185 -338c14 -25 27 -65 29 -69c1 4 15 43 29 69l184 338h75l-252 -464v-216h-74zM299 753l68 193h81l-94 -193h-55z" />
    <glyph glyph-name="Y" unicode="Y" horiz-adv-x="656" 
d="M294 0v213l-257 467h81l185 -338c15 -26 29 -69 29 -69s15 42 29 69l184 338h75l-252 -464v-216h-74z" />
    <glyph glyph-name="yacute" unicode="&#xfd;" horiz-adv-x="462" 
d="M95 -212l106 247l-176 379h77l117 -257c10 -24 17 -61 19 -69c1 6 8 45 19 69l108 257h72l-270 -626h-72zM205 498l67 193h81l-93 -193h-55z" />
    <glyph glyph-name="y" unicode="y" horiz-adv-x="462" 
d="M95 -212l106 247l-176 379h77l117 -257c11 -26 19 -70 19 -70s7 44 19 70l108 257h72l-270 -626h-72z" />
    <glyph glyph-name="Thorn" unicode="&#xde;" horiz-adv-x="584" 
d="M93 0v680h73v-79h87c182 0 275 -108 275 -256c0 -149 -93 -256 -275 -256h-87v-89h-73zM166 154h83c149 0 204 79 204 191s-56 192 -204 192h-83v-383z" />
    <glyph glyph-name="thorn" unicode="&#xfe;" horiz-adv-x="552" 
d="M76 -212v934h70v-393c29 55 83 94 160 94c113 0 198 -92 198 -215c0 -124 -86 -216 -199 -216c-74 0 -132 40 -159 93v-297h-70zM289 54c87 0 143 64 143 154c0 89 -56 153 -143 153c-88 0 -146 -64 -146 -153c0 -90 58 -154 146 -154z" />
    <glyph glyph-name="Zcaron" unicode="&#x17d;" horiz-adv-x="583" 
d="M302 743l-128 193h59l74 -102l74 102h59l-128 -193h-10zM39 0v11l380 605h-326v64h438v-11l-379 -605h381v-64h-494z" />
    <glyph glyph-name="Z" unicode="Z" horiz-adv-x="581" 
d="M39 0v11l380 605h-326v64h438v-11l-379 -605h381v-64h-494z" />
    <glyph glyph-name="zcaron" unicode="&#x17e;" horiz-adv-x="419" 
d="M220 488l-128 193h59l73 -102l75 102h58l-127 -193h-10zM32 0v10l239 346h-213v58h326v-11l-241 -345h236v-58h-347z" />
    <glyph glyph-name="z" unicode="z" horiz-adv-x="417" 
d="M32 0v10l239 346h-213v58h326v-11l-241 -345h236v-58h-347z" />
    <glyph glyph-name="Lslash" unicode="&#x141;" horiz-adv-x="531" 
d="M96 0v199l-75 -29v65l75 29v416h73v-389l199 78v-65l-199 -79v-161h321v-64h-394z" />
    <glyph glyph-name="exclam" unicode="!" horiz-adv-x="243" 
d="M94 190l-12 490h79l-12 -490h-55zM122 -7c-28 0 -53 23 -53 54c0 30 25 53 53 53s53 -23 53 -53c0 -31 -25 -54 -53 -54z" />
    <glyph glyph-name="quotedbl" unicode="&#x22;" horiz-adv-x="284" 
d="M178 470l-9 210h75l-8 -210h-58zM48 470l-8 210h74l-8 -210h-58z" />
    <glyph glyph-name="quotesingle" unicode="'" horiz-adv-x="154" 
d="M48 470l-8 210h74l-8 -210h-58z" />
    <glyph glyph-name="parenleft" unicode="(" horiz-adv-x="288" 
d="M216 -136c-85 87 -172 223 -172 427c0 203 87 340 172 427l44 -36c-78 -91 -143 -211 -143 -391s65 -300 143 -391z" />
    <glyph glyph-name="parenright" unicode=")" horiz-adv-x="288" 
d="M71 -136l-43 36c78 91 142 211 142 391s-64 300 -142 391l43 36c85 -87 173 -223 173 -427c0 -203 -88 -340 -173 -427z" />
    <glyph glyph-name="asterisk" unicode="*" horiz-adv-x="394" 
d="M165 375l15 124l-98 -72l-31 54l117 47l-117 47l31 54l98 -72l-15 123h63l-14 -123l98 72l31 -54l-118 -47l117 -47l-30 -54l-98 72l14 -124h-63z" />
    <glyph glyph-name="comma" unicode="," horiz-adv-x="202" 
d="M44 -112l39 111c-21 7 -36 25 -36 50c0 30 26 53 54 53c29 0 55 -23 55 -54c0 -14 -7 -29 -13 -40l-60 -120h-39z" />
    <glyph glyph-name="hyphen" unicode="-" horiz-adv-x="286" 
d="M46 200v63h193v-63h-193z" />
    <glyph glyph-name="period" unicode="." horiz-adv-x="202" 
d="M101 -7c-28 0 -54 24 -54 55s26 54 54 54c29 0 55 -23 55 -54s-26 -55 -55 -55z" />
    <glyph glyph-name="slash" unicode="/" horiz-adv-x="428" 
d="M14 -128l301 850h71l-301 -850h-71z" />
    <glyph glyph-name="zero.onum" horiz-adv-x="611" 
d="M305 -8c-141 0 -264 111 -264 261c0 151 123 259 264 259c143 0 265 -108 265 -259c0 -150 -122 -261 -265 -261zM305 55c107 0 191 83 191 198c0 116 -84 196 -191 196s-190 -80 -190 -196c0 -115 83 -198 190 -198z" />
    <glyph glyph-name="one.onum" horiz-adv-x="284" 
d="M135 0v444h-111v60h183v-504h-72z" />
    <glyph glyph-name="two.onum" horiz-adv-x="471" 
d="M29 0v9l203 186c67 60 107 105 107 160c0 62 -42 93 -99 93c-61 0 -102 -36 -124 -102l-64 18c23 92 96 148 188 148c105 0 171 -62 171 -154c0 -69 -49 -130 -122 -195l-81 -69c-19 -18 -50 -36 -50 -36s37 4 56 4h209v-62h-394z" />
    <glyph glyph-name="three.onum" horiz-adv-x="494" 
d="M238 -103c-103 0 -180 51 -216 130l61 31c29 -63 82 -98 155 -98c77 0 142 52 142 144c0 90 -57 139 -148 139c-36 0 -61 -8 -81 -18l-7 10l155 180c12 15 28 30 30 32c-1 0 -26 -3 -48 -3h-207v60h364v-7l-151 -176c-11 -14 -27 -26 -30 -27c113 0 197 -74 197 -191
c0 -122 -91 -206 -216 -206z" />
    <glyph glyph-name="four.onum" horiz-adv-x="522" 
d="M413 80h75v-59h-75v-115h-71v115h-321v34l383 459h9v-434zM342 80v232c0 20 4 52 4 52s-16 -24 -31 -41l-168 -210c-15 -18 -37 -36 -37 -36s26 3 48 3h184z" />
    <glyph glyph-name="five.onum" horiz-adv-x="485" 
d="M231 -103c-100 0 -169 48 -200 109l59 33c26 -47 69 -79 141 -79c85 0 141 58 141 142c0 85 -50 140 -144 140c-69 0 -109 -27 -140 -53l-9 3v312h328v-60h-267v-167c22 14 55 26 103 26c121 0 203 -84 203 -201c0 -118 -86 -205 -215 -205z" />
    <glyph glyph-name="six.onum" horiz-adv-x="508" 
d="M255 -8c-120 0 -213 82 -213 201c0 59 27 111 65 167l170 250h79l-137 -202c-15 -22 -48 -53 -48 -53c27 21 60 36 100 36c112 0 196 -81 196 -197c0 -117 -91 -202 -212 -202zM254 55c83 0 141 59 141 139c0 83 -53 140 -141 140c-86 0 -141 -64 -141 -140
c0 -80 54 -139 141 -139z" />
    <glyph glyph-name="seven.onum" horiz-adv-x="451" 
d="M76 -94l252 538h-295v60h390v-9l-275 -589h-72z" />
    <glyph glyph-name="eight.onum" horiz-adv-x="520" 
d="M260 -9c-131 0 -220 78 -220 189c0 84 56 142 135 165c-51 20 -87 62 -87 123c0 83 71 150 172 150c102 0 173 -67 173 -150c0 -61 -36 -103 -87 -123c79 -23 135 -81 135 -165c0 -111 -89 -189 -221 -189zM260 372c62 0 103 37 103 93c0 55 -43 93 -103 93
c-61 0 -103 -38 -103 -93c0 -56 41 -93 103 -93zM260 55c89 0 147 52 147 128c0 77 -59 131 -147 131c-89 0 -147 -54 -147 -131s58 -128 147 -128z" />
    <glyph glyph-name="nine.onum" horiz-adv-x="514" 
d="M171 -94l128 191c12 18 32 37 40 45c-26 -21 -62 -33 -96 -33c-115 0 -201 82 -201 199s93 204 215 204c121 0 215 -82 215 -203c0 -61 -27 -110 -66 -169l-156 -234h-79zM257 166c87 0 143 65 143 142c0 80 -57 141 -143 141c-85 0 -144 -59 -144 -141
c0 -84 56 -142 144 -142z" />
    <glyph glyph-name="colon" unicode=":" horiz-adv-x="212" 
d="M106 217c-28 0 -54 24 -54 55s26 55 54 55c29 0 55 -24 55 -55s-26 -55 -55 -55zM106 -7c-28 0 -54 24 -54 55s26 55 54 55c29 0 55 -24 55 -55s-26 -55 -55 -55z" />
    <glyph glyph-name="semicolon" unicode=";" horiz-adv-x="212" 
d="M106 217c-28 0 -54 24 -54 55s26 55 54 55c29 0 55 -24 55 -55s-26 -55 -55 -55zM49 -112l39 111c-21 7 -36 25 -36 50c0 30 26 53 54 53c29 0 55 -23 55 -54c0 -14 -7 -29 -13 -40l-60 -120h-39z" />
    <glyph glyph-name="question" unicode="?" horiz-adv-x="470" 
d="M174 187v177h33c89 0 141 59 141 133c0 79 -51 127 -126 127c-67 0 -107 -27 -137 -89l-58 32c33 79 104 121 195 121c118 0 198 -77 198 -191c0 -106 -74 -181 -180 -189v-121h-66zM206 -7c-28 0 -53 23 -53 54c0 30 25 53 53 53s53 -23 53 -53c0 -31 -25 -54 -53 -54z
" />
    <glyph glyph-name="at" unicode="@" horiz-adv-x="886" 
d="M449 -206c-224 0 -400 157 -400 395c0 230 182 397 398 397c226 0 390 -158 390 -369c0 -154 -66 -223 -155 -223c-63 0 -105 31 -116 94c-29 -65 -79 -96 -144 -96c-99 0 -175 80 -175 191s76 194 174 194c65 0 109 -36 133 -86l-2 76h69v-231c0 -56 16 -88 63 -88
c52 0 91 49 91 168c0 181 -126 314 -328 314c-196 0 -332 -149 -332 -341c0 -194 130 -339 333 -339c59 0 116 13 164 39l26 -51c-56 -30 -118 -44 -189 -44zM436 50c67 0 118 60 118 133c0 74 -51 135 -118 135c-69 0 -117 -60 -117 -135s48 -133 117 -133z" />
    <glyph glyph-name="A" unicode="A" horiz-adv-x="656" 
d="M37 0l282 687h12l288 -687h-76l-46 114h-344l-45 -114h-71zM178 176h293l-120 302c-12 29 -25 73 -26 80c-2 -5 -15 -50 -27 -80z" />
    <glyph glyph-name="B" unicode="B" horiz-adv-x="609" 
d="M93 0v680h231c127 0 187 -75 187 -167c0 -67 -30 -116 -88 -135c88 -21 140 -88 140 -178c0 -113 -70 -200 -215 -200h-255zM165 402h164c79 0 110 45 110 107s-33 107 -120 107h-154v-214zM165 64h178c104 0 147 59 147 138c0 80 -47 138 -151 138h-174v-276z" />
    <glyph glyph-name="C" unicode="C" horiz-adv-x="726" 
d="M403 -8c-193 0 -349 143 -349 348s156 348 349 348c120 0 212 -45 270 -132l-55 -40c-44 65 -117 107 -215 107c-159 0 -274 -121 -274 -283s115 -283 274 -283c99 0 175 43 224 114l56 -39c-60 -88 -158 -140 -280 -140z" />
    <glyph glyph-name="D" unicode="D" horiz-adv-x="680" 
d="M93 0v680h165c227 0 368 -134 368 -340s-140 -340 -368 -340h-165zM165 65h88c201 0 297 113 297 275s-96 275 -297 275h-88v-550z" />
    <glyph glyph-name="E" unicode="E" horiz-adv-x="580" 
d="M93 0v680h414v-64h-342v-319h305v-63h-305v-170h356v-64h-428z" />
    <glyph glyph-name="F" unicode="F" horiz-adv-x="556" 
d="M93 0v680h409v-64h-337v-319h306v-66h-306v-231h-72z" />
    <glyph glyph-name="H" unicode="H" horiz-adv-x="694" 
d="M93 0v680h72v-383h364v383h72v-680h-72v231h-364v-231h-72z" />
    <glyph glyph-name="I" unicode="I" horiz-adv-x="265" 
d="M96 0v680h73v-680h-73z" />
    <glyph glyph-name="J" unicode="J" horiz-adv-x="483" 
d="M209 -8c-91 0 -145 45 -176 102l59 37c26 -45 61 -74 114 -74c67 0 112 37 112 124v499h73v-501c0 -125 -77 -187 -182 -187z" />
    <glyph glyph-name="K" unicode="K" horiz-adv-x="607" 
d="M159 265c15 29 36 67 49 84l257 331h81l-252 -328l279 -352h-89l-237 299l-82 -99v-200h-72v680h72v-322c0 -32 -4 -71 -6 -93z" />
    <glyph glyph-name="L" unicode="L" horiz-adv-x="527" 
d="M93 0v680h72v-616h321v-64h-393z" />
    <glyph glyph-name="N" unicode="N" horiz-adv-x="713" 
d="M608 -7l-406 480c-18 21 -44 57 -47 62c0 -5 6 -49 6 -76v-459h-68v687h12l406 -480c18 -22 44 -59 47 -63c0 2 -5 48 -5 77v459h67v-687h-12z" />
    <glyph glyph-name="O" unicode="O" horiz-adv-x="807" 
d="M403 -8c-193 0 -349 143 -349 348s156 348 349 348c194 0 350 -143 350 -348s-156 -348 -350 -348zM403 57c159 0 275 121 275 283s-116 283 -275 283c-158 0 -274 -121 -274 -283s116 -283 274 -283z" />
    <glyph glyph-name="P" unicode="P" horiz-adv-x="584" 
d="M93 0v680h154c186 0 281 -103 281 -256c0 -150 -95 -255 -281 -255h-82v-169h-72zM165 232h78c153 0 210 80 210 192s-57 192 -210 192h-78v-384z" />
    <glyph glyph-name="R" unicode="R" horiz-adv-x="596" 
d="M386 209l148 -209h-85l-131 186c-23 -4 -48 -6 -72 -6h-81v-180h-72v680h153c186 0 282 -104 282 -251c0 -102 -48 -182 -142 -220zM165 243h77c154 0 211 79 211 186s-58 187 -211 187h-77v-373z" />
    <glyph glyph-name="T" unicode="T" horiz-adv-x="556" 
d="M242 0v616h-209v64h490v-64h-209v-616h-72z" />
    <glyph glyph-name="U" unicode="U" horiz-adv-x="662" 
d="M331 -8c-139 0 -244 81 -244 240v448h72v-443c0 -121 66 -181 172 -181c105 0 172 60 172 181v443h72v-448c0 -159 -106 -240 -244 -240z" />
    <glyph glyph-name="V" unicode="V" horiz-adv-x="656" 
d="M324 -7l-287 687h78l187 -461c14 -34 29 -92 29 -92s15 58 29 92l186 461h73l-283 -687h-12z" />
    <glyph glyph-name="W" unicode="W" horiz-adv-x="953" 
d="M260 -7l-225 687h77l143 -453c8 -29 18 -70 19 -74c1 4 11 46 22 74l177 460h12l177 -460c10 -28 21 -70 22 -74c1 4 10 46 19 74l142 453h73l-224 -687h-12l-183 484c-11 26 -19 63 -20 66c-1 -3 -11 -40 -21 -66l-186 -484h-12z" />
    <glyph glyph-name="X" unicode="X" horiz-adv-x="635" 
d="M43 0l233 370l-196 310h82l135 -212c11 -18 22 -47 22 -47s10 30 21 47l134 212h79l-195 -310l235 -370h-82l-173 272c-10 16 -22 43 -23 47c-1 -1 -11 -30 -21 -47l-172 -272h-79z" />
    <glyph glyph-name="bracketleft" unicode="[" horiz-adv-x="305" 
d="M76 -128v850h193v-61h-123v-728h123v-61h-193z" />
    <glyph glyph-name="backslash" unicode="\" horiz-adv-x="428" 
d="M343 -128l-300 850h70l301 -850h-71z" />
    <glyph glyph-name="bracketright" unicode="]" horiz-adv-x="305" 
d="M36 -128v61h123v728h-123v61h194v-850h-194z" />
    <glyph glyph-name="asciicircum" unicode="^" horiz-adv-x="417" 
d="M68 463l136 225h9l136 -225h-58l-82 125l-83 -125h-58z" />
    <glyph glyph-name="underscore" unicode="_" horiz-adv-x="257" 
d="M-2 -128v62h261v-62h-261z" />
    <glyph glyph-name="grave" unicode="`" horiz-adv-x="500" 
d="M224 498l-93 193h80l68 -193h-55z" />
    <glyph glyph-name="b" unicode="b" horiz-adv-x="551" 
d="M302 -8c-74 0 -132 40 -160 97l2 -89h-69v722h69v-393c30 55 82 94 159 94c113 0 200 -92 200 -215c0 -124 -88 -216 -201 -216zM288 53c87 0 143 65 143 155c0 89 -56 153 -143 153c-88 0 -147 -64 -147 -153c0 -90 59 -155 147 -155z" />
    <glyph glyph-name="c" unicode="c" horiz-adv-x="467" 
d="M263 -8c-122 0 -215 94 -215 215s93 216 215 216c74 0 125 -28 163 -74l-50 -41c-25 33 -61 53 -113 53c-88 0 -143 -66 -143 -154s55 -154 143 -154c57 0 93 23 119 54l48 -41c-39 -47 -90 -74 -167 -74z" />
    <glyph glyph-name="d" unicode="d" horiz-adv-x="551" 
d="M249 -8c-113 0 -201 92 -201 216c0 123 88 215 200 215c79 0 129 -39 159 -94v393h69v-722h-69l2 89c-28 -57 -86 -97 -160 -97zM263 53c88 0 147 65 147 155c0 89 -59 153 -147 153c-87 0 -143 -64 -143 -153c0 -90 56 -155 143 -155z" />
    <glyph glyph-name="e" unicode="e" 
d="M118 184c9 -79 63 -133 154 -133c62 0 104 25 131 55l43 -42c-38 -43 -93 -72 -174 -72c-136 0 -224 94 -224 215s93 216 214 216c133 0 213 -102 208 -239h-352zM119 237h281c-6 71 -51 127 -138 127c-79 0 -132 -51 -143 -127z" />
    <glyph glyph-name="f" unicode="f" horiz-adv-x="318" 
d="M101 0v355h-67v59h67v188c0 93 47 133 115 133c51 0 84 -20 105 -51l-46 -41c-13 17 -25 29 -53 29c-30 0 -51 -17 -51 -70v-188h111v-59h-111v-355h-70z" />
    <glyph glyph-name="h" unicode="h" 
d="M74 0v722h70v-389c26 55 80 90 147 90c92 0 155 -63 155 -171v-252h-70v244c0 73 -34 115 -103 115c-77 0 -129 -49 -129 -131v-228h-70z" />
    <glyph glyph-name="i" unicode="i" horiz-adv-x="222" 
d="M111 534c-26 0 -50 20 -50 49s24 50 50 50s50 -21 50 -50s-24 -49 -50 -49zM76 0v414h70v-414h-70z" />
    <glyph glyph-name="j" unicode="j" horiz-adv-x="222" 
d="M111 534c-26 0 -50 20 -50 49s24 50 50 50s50 -21 50 -50s-24 -49 -50 -49zM35 -222c-44 0 -73 20 -92 41l39 42c13 -12 25 -23 48 -23c28 0 46 17 46 63v513h70v-512c0 -82 -45 -124 -111 -124z" />
    <glyph glyph-name="k" unicode="k" horiz-adv-x="463" 
d="M144 126v-126h-70v722h70v-463c0 -21 -2 -42 -5 -59l197 214h81l-159 -174l184 -240h-83l-150 194z" />
    <glyph glyph-name="l" unicode="l" horiz-adv-x="228" 
d="M79 0v722h70v-722h-70z" />
    <glyph glyph-name="m" unicode="m" horiz-adv-x="757" 
d="M74 0v414h70l-2 -78c27 56 72 87 130 87c65 0 107 -35 125 -87c31 56 83 87 143 87c91 0 147 -60 147 -158v-265h-69v256c0 66 -26 103 -91 103c-66 0 -111 -45 -111 -127v-232h-70v256c0 66 -26 103 -90 103c-66 0 -112 -45 -112 -127v-232h-70z" />
    <glyph glyph-name="n" unicode="n" 
d="M74 0v414h70l-2 -85c27 59 82 94 149 94c92 0 155 -63 155 -171v-252h-70v244c0 73 -34 115 -103 115c-77 0 -129 -49 -129 -131v-228h-70z" />
    <glyph glyph-name="o" unicode="o" horiz-adv-x="534" 
d="M268 -8c-124 0 -220 94 -220 215s96 216 220 216c123 0 218 -95 218 -216s-95 -215 -218 -215zM268 52c88 0 147 66 147 155s-59 155 -147 155c-89 0 -149 -66 -149 -155s60 -155 149 -155z" />
    <glyph glyph-name="p" unicode="p" horiz-adv-x="551" 
d="M75 -212v626h69l-2 -89c29 57 83 98 161 98c113 0 200 -92 200 -215c0 -124 -88 -216 -201 -216c-74 0 -131 40 -158 94v-298h-69zM288 53c87 0 143 65 143 155c0 89 -56 153 -143 153c-88 0 -147 -64 -147 -153c0 -90 59 -155 147 -155z" />
    <glyph glyph-name="q" unicode="q" horiz-adv-x="552" 
d="M407 -212v298c-27 -54 -84 -94 -158 -94c-113 0 -201 92 -201 216c0 123 88 215 200 215c79 0 132 -41 161 -98l-2 89h70v-626h-70zM263 53c88 0 147 65 147 155c0 89 -59 153 -147 153c-87 0 -143 -64 -143 -153c0 -90 56 -155 143 -155z" />
    <glyph glyph-name="r" unicode="r" horiz-adv-x="357" 
d="M74 0v414h70l-2 -81c26 63 72 89 121 89c31 0 53 -7 72 -20l-27 -61c-13 9 -31 16 -57 16c-59 0 -107 -42 -107 -139v-218h-70z" />
    <glyph glyph-name="t" unicode="t" horiz-adv-x="336" 
d="M209 -9c-63 0 -111 36 -111 134v230h-64v59h64v216h69v-216h116v-59h-116v-231c0 -55 19 -72 49 -72c28 0 43 12 56 24l38 -44c-18 -19 -50 -41 -101 -41z" />
    <glyph glyph-name="v" unicode="v" horiz-adv-x="462" 
d="M226 -8l-201 422h77l110 -239c12 -27 22 -67 23 -71c1 4 9 44 22 71l108 239h72l-198 -422h-13z" />
    <glyph glyph-name="w" unicode="w" horiz-adv-x="683" 
d="M195 -9l-170 423h76l89 -228c10 -25 17 -57 19 -63c1 5 9 38 21 63l108 234h9l110 -233c11 -26 20 -58 22 -64c0 6 8 39 19 64l89 227h71l-172 -423h-10l-114 249c-12 23 -19 57 -20 60c-1 -3 -10 -37 -20 -60l-117 -249h-10z" />
    <glyph glyph-name="x" unicode="x" horiz-adv-x="470" 
d="M31 0l164 220l-142 194h83l78 -108c11 -15 22 -39 24 -43c0 2 8 27 20 43l79 108h77l-140 -189l165 -225h-84l-98 136c-10 15 -24 41 -26 45c-1 -1 -13 -30 -24 -45l-99 -136h-77z" />
    <glyph glyph-name="braceleft" unicode="{" horiz-adv-x="367" 
d="M274 -128c-68 0 -133 27 -133 144v151c0 53 -21 69 -58 69h-58v61h58c37 0 58 16 58 69v212c0 117 65 144 133 144h57v-61h-52c-43 0 -67 -18 -67 -84v-218c0 -62 -28 -84 -65 -92c37 -8 65 -31 65 -93v-157c0 -66 24 -84 67 -84h52v-61h-57z" />
    <glyph glyph-name="bar" unicode="|" horiz-adv-x="237" 
d="M85 -128v850h68v-850h-68z" />
    <glyph glyph-name="braceright" unicode="}" horiz-adv-x="367" 
d="M36 -128v61h53c42 0 66 18 66 84v157c0 62 28 85 66 92c-38 8 -66 31 -66 93v218c0 66 -24 84 -66 84h-53v61h57c67 0 133 -27 133 -144v-211c0 -53 21 -70 59 -70h56v-61h-56c-38 0 -59 -16 -59 -68v-152c0 -117 -66 -144 -133 -144h-57z" />
    <glyph glyph-name="asciitilde" unicode="~" horiz-adv-x="393" 
d="M103 224l-52 5c3 72 37 111 86 111c29 0 47 -13 69 -32c25 -22 32 -29 48 -29c22 0 32 19 36 59l53 -5c-4 -72 -36 -110 -86 -110c-28 0 -47 13 -69 32c-25 22 -32 28 -49 28c-19 0 -32 -19 -36 -59z" />
    <glyph glyph-name="Adieresis" unicode="&#xc4;" horiz-adv-x="655" 
d="M37 0l282 687h12l288 -687h-76l-46 114h-344l-45 -114h-71zM178 176h293l-120 301c-12 29 -25 74 -26 81c-2 -5 -15 -51 -27 -81zM241 771c-25 0 -47 20 -47 46s22 46 47 46c24 0 46 -20 46 -46s-22 -46 -46 -46zM414 771c-24 0 -46 20 -46 46s22 46 46 46s46 -20 46 -46
s-22 -46 -46 -46z" />
    <glyph glyph-name="Aring" unicode="&#xc5;" horiz-adv-x="655" 
d="M37 0l282 687h12l288 -687h-76l-46 114h-344l-45 -114h-71zM178 176h293l-120 301c-12 29 -25 74 -26 81c-2 -5 -15 -51 -27 -81zM327 726c-59 0 -105 46 -105 101s46 101 105 101s106 -46 106 -101s-47 -101 -106 -101zM327 771c31 0 53 21 53 56c0 34 -22 56 -53 56
s-53 -22 -53 -56c0 -35 22 -56 53 -56z" />
    <glyph glyph-name="Ccedilla" unicode="&#xc7;" horiz-adv-x="729" 
d="M356 -6c-171 22 -302 158 -302 346c0 205 156 348 349 348c120 0 212 -45 270 -132l-55 -40c-44 64 -117 106 -215 106c-158 0 -274 -120 -274 -282s116 -283 274 -283c99 0 175 43 223 114l57 -39c-59 -87 -155 -138 -275 -140h-6v-45c43 -6 83 -37 83 -91
c0 -56 -47 -88 -96 -88c-52 0 -86 27 -101 59l40 25c11 -21 25 -39 57 -39c25 0 47 16 47 47c0 27 -18 48 -55 48h-21v86z" />
    <glyph glyph-name="Eacute" unicode="&#xc9;" horiz-adv-x="580" 
d="M269 753l68 193h80l-93 -193h-55zM93 0v680h414v-64h-342v-319h305v-63h-305v-170h356v-64h-428z" />
    <glyph glyph-name="Ntilde" unicode="&#xd1;" horiz-adv-x="713" 
d="M263 747l-53 5c4 72 38 111 87 111c28 0 46 -13 68 -32c25 -21 33 -28 49 -28c21 0 32 18 36 58l52 -5c-4 -71 -35 -110 -86 -110c-28 0 -46 13 -68 33c-25 21 -33 28 -49 28c-20 0 -33 -20 -36 -60zM608 -7l-406 480c-18 21 -44 57 -47 62c0 -5 6 -49 6 -76v-459h-68
v687h12l406 -480c18 -22 44 -59 47 -63c0 2 -5 48 -5 77v459h67v-687h-12z" />
    <glyph glyph-name="Odieresis" unicode="&#xd6;" horiz-adv-x="807" 
d="M490 771c-24 0 -46 20 -46 46s22 46 46 46s46 -20 46 -46s-22 -46 -46 -46zM317 771c-24 0 -47 20 -47 46s23 46 47 46s46 -20 46 -46s-22 -46 -46 -46zM403 -8c-193 0 -349 143 -349 348s156 348 349 348c194 0 350 -143 350 -348s-156 -348 -350 -348zM403 57
c159 0 275 121 275 283s-116 283 -275 283c-158 0 -274 -121 -274 -283s116 -283 274 -283z" />
    <glyph glyph-name="Udieresis" unicode="&#xdc;" horiz-adv-x="662" 
d="M417 771c-24 0 -46 20 -46 46s22 46 46 46c25 0 47 -20 47 -46s-22 -46 -47 -46zM244 771c-24 0 -46 20 -46 46s22 46 46 46c25 0 46 -20 46 -46s-21 -46 -46 -46zM331 -8c-139 0 -244 81 -244 240v448h73v-443c0 -121 65 -180 171 -180c105 0 171 59 171 180v443h73
v-448c0 -159 -106 -240 -244 -240z" />
    <glyph glyph-name="ccedilla" unicode="&#xe7;" horiz-adv-x="469" 
d="M217 -4c-99 21 -170 105 -170 211c0 121 94 216 216 216c74 0 125 -28 163 -74l-50 -41c-25 33 -62 53 -113 53c-88 0 -143 -66 -143 -154c0 -87 55 -154 143 -154c57 0 93 23 119 54l48 -41c-39 -47 -89 -74 -165 -74h-1v-45c42 -6 83 -37 83 -91c0 -56 -48 -88 -96 -88
c-53 0 -86 27 -102 59l41 25c10 -21 25 -39 57 -39c25 0 46 16 46 47c0 27 -17 48 -55 48h-21v88z" />
    <glyph glyph-name="eacute" unicode="&#xe9;" 
d="M229 498l68 193h81l-94 -193h-55zM118 184c9 -79 63 -133 154 -133c62 0 104 25 131 55l43 -42c-38 -43 -93 -72 -174 -72c-136 0 -224 94 -224 215s93 216 214 216c133 0 213 -102 208 -239h-352zM119 237h281c-6 71 -51 127 -138 127c-79 0 -132 -51 -143 -127z" />
    <glyph glyph-name="egrave" unicode="&#xe8;" 
d="M235 498l-93 193h81l67 -193h-55zM118 184c9 -79 63 -133 154 -133c62 0 104 25 131 55l43 -42c-38 -43 -93 -72 -174 -72c-136 0 -224 94 -224 215s93 216 214 216c133 0 213 -102 208 -239h-352zM119 237h281c-6 71 -51 127 -138 127c-79 0 -132 -51 -143 -127z" />
    <glyph glyph-name="ecircumflex" unicode="&#xea;" 
d="M125 496l128 193h9l128 -193h-58l-74 101l-74 -101h-59zM118 184c9 -79 63 -133 154 -133c62 0 104 25 131 55l43 -42c-38 -43 -93 -72 -174 -72c-136 0 -224 94 -224 215s93 216 214 216c133 0 213 -102 208 -239h-352zM119 237h281c-6 71 -51 127 -138 127
c-79 0 -132 -51 -143 -127z" />
    <glyph glyph-name="edieresis" unicode="&#xeb;" 
d="M345 516c-24 0 -46 21 -46 46c0 26 22 47 46 47s46 -21 46 -47c0 -25 -22 -46 -46 -46zM172 516c-25 0 -47 21 -47 46c0 26 22 47 47 47c24 0 46 -21 46 -47c0 -25 -22 -46 -46 -46zM118 184c9 -79 63 -133 154 -133c62 0 104 25 131 55l43 -42c-38 -43 -93 -72 -174 -72
c-136 0 -224 94 -224 215s93 216 214 216c133 0 213 -102 208 -239h-352zM119 237h281c-6 71 -51 127 -138 127c-79 0 -132 -51 -143 -127z" />
    <glyph glyph-name="iacute" unicode="&#xed;" horiz-adv-x="222" 
d="M82 498l67 193h81l-93 -193h-55zM76 0v414h70v-414h-70z" />
    <glyph glyph-name="dotlessi" unicode="&#x131;" horiz-adv-x="222" 
d="M76 0v414h70v-414h-70z" />
    <glyph glyph-name="igrave" unicode="&#xec;" horiz-adv-x="222" 
d="M83 498l-93 193h81l68 -193h-56zM76 0v414h70v-414h-70z" />
    <glyph glyph-name="icircumflex" unicode="&#xee;" horiz-adv-x="222" 
d="M-22 496l127 193h10l128 -193h-59l-73 101l-75 -101h-58zM76 0v414h70v-414h-70z" />
    <glyph glyph-name="idieresis" unicode="&#xef;" horiz-adv-x="222" 
d="M197 516c-24 0 -46 21 -46 46c0 26 22 47 46 47c25 0 47 -21 47 -47c0 -25 -22 -46 -47 -46zM24 516c-24 0 -46 21 -46 46c0 26 22 47 46 47c25 0 46 -21 46 -47c0 -25 -21 -46 -46 -46zM76 0v414h70v-414h-70z" />
    <glyph glyph-name="ntilde" unicode="&#xf1;" 
d="M161 493l-52 4c4 72 38 111 87 111c28 0 46 -12 68 -32c25 -21 33 -28 49 -28c21 0 32 18 35 58l53 -5c-4 -71 -36 -110 -86 -110c-28 0 -46 14 -69 33c-25 22 -32 28 -48 28c-20 0 -33 -19 -37 -59zM74 0v414h70l-2 -85c27 59 82 94 149 94c92 0 155 -63 155 -171v-252
h-70v244c0 73 -34 115 -103 115c-77 0 -129 -49 -129 -131v-228h-70z" />
    <glyph glyph-name="oacute" unicode="&#xf3;" horiz-adv-x="533" 
d="M239 498l67 193h81l-93 -193h-55zM268 -8c-124 0 -220 94 -220 215s96 216 220 216c123 0 218 -95 218 -216s-95 -215 -218 -215zM268 52c88 0 147 66 147 155s-59 155 -147 155c-89 0 -149 -66 -149 -155s60 -155 149 -155z" />
    <glyph glyph-name="ograve" unicode="&#xf2;" horiz-adv-x="533" 
d="M239 498l-93 193h81l68 -193h-56zM268 -8c-124 0 -220 94 -220 215s96 216 220 216c123 0 218 -95 218 -216s-95 -215 -218 -215zM268 52c88 0 147 66 147 155s-59 155 -147 155c-89 0 -149 -66 -149 -155s60 -155 149 -155z" />
    <glyph glyph-name="ocircumflex" unicode="&#xf4;" horiz-adv-x="533" 
d="M133 496l128 193h10l128 -193h-59l-73 101l-75 -101h-59zM268 -8c-124 0 -220 94 -220 215s96 216 220 216c123 0 218 -95 218 -216s-95 -215 -218 -215zM268 52c88 0 147 66 147 155s-59 155 -147 155c-89 0 -149 -66 -149 -155s60 -155 149 -155z" />
    <glyph glyph-name="odieresis" unicode="&#xf6;" horiz-adv-x="533" 
d="M353 516c-24 0 -46 21 -46 46c0 26 22 47 46 47c25 0 46 -21 46 -47c0 -25 -21 -46 -46 -46zM180 516c-24 0 -46 21 -46 46c0 26 22 47 46 47s46 -21 46 -47c0 -25 -22 -46 -46 -46zM268 -8c-124 0 -220 94 -220 215s96 216 220 216c123 0 218 -95 218 -216
s-95 -215 -218 -215zM268 52c88 0 147 66 147 155s-59 155 -147 155c-89 0 -149 -66 -149 -155s60 -155 149 -155z" />
    <glyph glyph-name="otilde" unicode="&#xf5;" horiz-adv-x="533" 
d="M173 493l-52 4c3 72 37 111 86 111c29 0 47 -12 69 -32c25 -21 32 -28 48 -28c22 0 32 18 36 58l53 -5c-4 -71 -36 -110 -86 -110c-28 0 -47 14 -69 33c-25 22 -32 28 -49 28c-19 0 -32 -19 -36 -59zM268 -8c-124 0 -220 94 -220 215s96 216 220 216
c123 0 218 -95 218 -216s-95 -215 -218 -215zM268 52c88 0 147 66 147 155s-59 155 -147 155c-89 0 -149 -66 -149 -155s60 -155 149 -155z" />
    <glyph glyph-name="dagger" unicode="&#x2020;" horiz-adv-x="337" 
d="M136 280v237h-93v59h93v104h65v-104h93v-59h-93v-237h-65z" />
    <glyph glyph-name="cent.onum" horiz-adv-x="470" 
d="M236 -7c-109 13 -189 102 -189 214s80 202 189 214v108h45v-107c64 -4 111 -30 146 -73l-49 -40c-22 28 -52 47 -97 51v-307c48 4 79 25 103 54l48 -41c-37 -44 -84 -70 -151 -74v-108h-45v109zM236 359c-71 -11 -117 -72 -117 -152c0 -79 46 -141 117 -153v305z" />
    <glyph glyph-name="bullet" unicode="&#x2022;" horiz-adv-x="278" 
d="M139 168c-51 0 -94 42 -94 94c0 54 43 95 94 95s95 -41 95 -95c0 -52 -44 -94 -95 -94z" />
    <glyph glyph-name="paragraph" unicode="&#xb6;" horiz-adv-x="625" 
d="M312 0v303h-64c-124 0 -197 85 -197 187c0 103 73 190 197 190h285v-680h-70v618h-80v-618h-71zM249 365h63v253h-63c-76 0 -121 -50 -121 -126s45 -127 121 -127z" />
    <glyph glyph-name="germandbls" unicode="&#xdf;" horiz-adv-x="540" 
d="M284 -5c-32 0 -57 6 -75 13l12 58c17 -6 29 -10 55 -10c96 0 144 62 144 154c0 99 -65 159 -180 157v58c72 8 116 56 116 133c0 83 -47 117 -104 117s-108 -34 -108 -130v-545h-70v546c0 131 84 189 178 189s171 -60 171 -175c0 -69 -31 -126 -96 -154
c99 -19 166 -90 166 -197c0 -123 -75 -214 -209 -214z" />
    <glyph glyph-name="trademark" unicode="&#x2122;" horiz-adv-x="725" 
d="M346 383v302h9l144 -161l143 161h9v-302h-54v187l-93 -111h-10l-93 111v-187h-55zM138 383v251h-90v46h234v-46h-90v-251h-54z" />
    <glyph glyph-name="acute" unicode="&#xb4;" horiz-adv-x="500" 
d="M221 498l68 193h80l-93 -193h-55z" />
    <glyph glyph-name="dieresis" unicode="&#xa8;" horiz-adv-x="500" 
d="M337 516c-24 0 -47 21 -47 46c0 26 23 47 47 47s46 -21 46 -47c0 -25 -22 -46 -46 -46zM163 516c-24 0 -46 21 -46 46c0 26 22 47 46 47c25 0 47 -21 47 -47c0 -25 -22 -46 -47 -46z" />
    <glyph glyph-name="AE" unicode="&#xc6;" horiz-adv-x="953" 
d="M27 0l454 680h399v-64h-341v-316h304v-63h-304v-173h355v-64h-428v114h-286l-75 -114h-78zM223 178h243v307c0 33 5 78 6 84c-2 -5 -20 -45 -40 -74z" />
    <glyph glyph-name="Oslash" unicode="&#xd8;" horiz-adv-x="807" 
d="M94 -10l-42 41l83 83c-50 60 -81 137 -81 226c0 201 156 348 349 348c87 0 166 -29 227 -81l82 82l43 -41l-83 -82c50 -60 81 -137 81 -226c0 -201 -156 -348 -350 -348c-86 0 -166 29 -226 81zM403 57c159 0 275 121 275 283c0 68 -21 129 -57 175l-396 -395
c47 -40 109 -63 178 -63zM186 165l395 394c-46 40 -108 64 -178 64c-158 0 -274 -121 -274 -283c0 -68 21 -129 57 -175z" />
    <glyph glyph-name="ordfeminine" unicode="&#xaa;" horiz-adv-x="402" 
d="M284 361v3c-1 73 -32 93 -82 93c-53 0 -82 -26 -101 -50l-40 36c27 38 74 69 146 69c79 0 142 -42 142 -147v-211h-65l1 46c-23 -33 -63 -54 -114 -54c-74 0 -132 36 -132 109s63 106 139 106h106zM284 316h-99c-46 0 -80 -16 -80 -58c0 -41 31 -60 81 -60
c54 0 98 26 98 76v42z" />
    <glyph glyph-name="ordmasculine" unicode="&#xba;" horiz-adv-x="454" 
d="M227 146c-102 0 -185 78 -185 183c0 104 83 183 185 183s185 -79 185 -183c0 -105 -83 -183 -185 -183zM227 202c71 0 118 52 118 127c0 74 -47 127 -118 127s-118 -53 -118 -127c0 -75 47 -127 118 -127z" />
    <glyph glyph-name="oslash" unicode="&#xf8;" horiz-adv-x="533" 
d="M443 337c27 -36 43 -81 43 -130c0 -121 -95 -215 -218 -215c-55 0 -104 19 -143 51l-60 -56l-32 36l59 54c-28 36 -45 81 -45 130c0 121 97 216 221 216c54 0 104 -19 142 -51l58 54l32 -36zM142 121l221 209c-25 21 -58 33 -95 33c-90 0 -151 -66 -151 -156
c0 -32 9 -61 25 -86zM393 292l-222 -208c25 -21 58 -33 97 -33c89 0 149 67 149 156c0 32 -9 62 -24 85z" />
    <glyph glyph-name="questiondown" unicode="&#xbf;" horiz-adv-x="470" 
d="M263 687c28 0 54 -23 54 -54c0 -30 -26 -53 -54 -53s-52 23 -52 53c0 31 24 54 52 54zM296 493v-177h-33c-89 0 -141 -59 -141 -133c0 -79 51 -127 125 -127c68 0 107 27 138 89l57 -32c-32 -79 -103 -121 -195 -121c-118 0 -197 77 -197 191c0 106 73 181 179 189v121
h67z" />
    <glyph glyph-name="exclamdown" unicode="&#xa1;" horiz-adv-x="243" 
d="M121 687c28 0 54 -23 54 -54c0 -30 -26 -53 -54 -53s-52 23 -52 53c0 31 24 54 52 54zM149 490l12 -490h-79l12 490h55z" />
    <glyph glyph-name="guillemotleft" unicode="&#xab;" horiz-adv-x="398" 
d="M287 37l-93 159v8l93 157h73l-96 -161l96 -163h-73zM132 37l-94 159v8l94 157h72l-96 -161l96 -163h-72z" />
    <glyph glyph-name="guillemotright" unicode="&#xbb;" horiz-adv-x="398" 
d="M194 37l96 162l-96 162h72l94 -158v-8l-94 -158h-72zM38 37l96 162l-96 162h73l93 -158v-8l-93 -158h-73z" />
    <glyph glyph-name="ellipsis" unicode="&#x2026;" horiz-adv-x="616" 
d="M516 -7c-29 0 -55 24 -55 55s26 54 55 54c28 0 54 -23 54 -54s-26 -55 -54 -55zM308 -7c-28 0 -54 24 -54 55s26 54 54 54c29 0 55 -23 55 -54s-26 -55 -55 -55zM101 -7c-28 0 -54 24 -54 55s26 54 54 54c29 0 55 -23 55 -54s-26 -55 -55 -55z" />
    <glyph glyph-name="nbspace" unicode="&#xa0;" horiz-adv-x="182" 
 />
    <glyph glyph-name="Agrave" unicode="&#xc0;" horiz-adv-x="655" 
d="M299 753l-94 193h81l68 -193h-55zM37 0l282 687h12l288 -687h-76l-46 114h-344l-45 -114h-71zM178 176h293l-120 302c-12 29 -25 73 -26 80c-2 -5 -15 -50 -27 -80z" />
    <glyph glyph-name="Atilde" unicode="&#xc3;" horiz-adv-x="655" 
d="M231 747l-52 5c3 72 38 111 86 111c29 0 47 -13 69 -32c25 -21 32 -28 48 -28c22 0 33 18 36 58l53 -5c-4 -71 -36 -110 -86 -110c-28 0 -47 13 -69 33c-25 21 -32 28 -48 28c-20 0 -33 -20 -37 -60zM37 0l282 687h12l288 -687h-76l-46 114h-344l-45 -114h-71zM178 176
h293l-120 302c-12 29 -25 73 -26 80c-2 -5 -15 -50 -27 -80z" />
    <glyph glyph-name="Otilde" unicode="&#xd5;" horiz-adv-x="807" 
d="M310 747l-53 5c4 72 38 111 87 111c28 0 46 -13 68 -32c26 -21 33 -28 49 -28c22 0 32 18 36 58l52 -5c-3 -71 -35 -110 -86 -110c-28 0 -46 13 -68 33c-25 21 -32 28 -49 28c-19 0 -32 -20 -36 -60zM403 -8c-193 0 -349 143 -349 348s156 348 349 348
c194 0 350 -143 350 -348s-156 -348 -350 -348zM403 57c159 0 275 121 275 283s-116 283 -275 283c-158 0 -274 -121 -274 -283s116 -283 274 -283z" />
    <glyph glyph-name="OE" unicode="&#x152;" horiz-adv-x="988" 
d="M412 0c-221 0 -358 139 -358 340s136 340 358 340h503v-64h-342v-316h305v-63h-305v-173h356v-64h-517zM418 65h82v550h-82c-194 0 -289 -113 -289 -275s95 -275 289 -275z" />
    <glyph glyph-name="oe" unicode="&#x153;" horiz-adv-x="881" 
d="M483 184c10 -79 62 -132 153 -132c62 0 104 24 131 54l43 -43c-38 -42 -93 -71 -173 -71c-94 0 -158 47 -188 115c-30 -68 -96 -115 -181 -115c-124 0 -221 94 -221 215s97 216 221 216c86 0 151 -47 181 -116c29 69 93 116 177 116c134 0 215 -102 209 -239h-352z
M484 237h280c-6 72 -51 127 -137 127c-80 0 -132 -50 -143 -127zM268 52c88 0 146 67 146 155c0 89 -58 155 -146 155c-89 0 -149 -66 -149 -155c0 -88 60 -155 149 -155z" />
    <glyph glyph-name="endash" unicode="&#x2013;" horiz-adv-x="394" 
d="M35 163v62h323v-62h-323z" />
    <glyph glyph-name="emdash" unicode="&#x2014;" horiz-adv-x="623" 
d="M35 163v62h553v-62h-553z" />
    <glyph glyph-name="quotedblleft" unicode="&#x201c;" horiz-adv-x="357" 
d="M258 475c-27 0 -52 23 -52 52c0 14 5 26 13 41l55 112h38l-34 -105c17 -5 33 -24 33 -47c0 -30 -25 -53 -53 -53zM100 475c-28 0 -53 23 -53 52c0 14 5 26 13 41l55 112h38l-34 -105c17 -5 33 -24 33 -47c0 -30 -25 -53 -52 -53z" />
    <glyph glyph-name="quotedblright" unicode="&#x201d;" horiz-adv-x="357" 
d="M204 482l34 104c-17 6 -32 25 -32 48c0 30 25 53 52 53c28 0 53 -23 53 -53c0 -13 -6 -26 -13 -40l-56 -112h-38zM46 482l34 104c-18 6 -33 25 -33 48c0 30 25 53 52 53c28 0 53 -23 53 -53c0 -13 -5 -26 -13 -40l-55 -112h-38z" />
    <glyph glyph-name="quoteleft" unicode="&#x2018;" horiz-adv-x="199" 
d="M100 475c-28 0 -53 23 -53 52c0 14 5 26 13 41l55 112h38l-34 -105c17 -5 33 -24 33 -47c0 -30 -25 -53 -52 -53z" />
    <glyph glyph-name="quoteright" unicode="&#x2019;" horiz-adv-x="199" 
d="M46 482l34 104c-18 6 -33 25 -33 48c0 30 25 53 52 53c28 0 53 -23 53 -53c0 -13 -5 -26 -13 -40l-55 -112h-38z" />
    <glyph glyph-name="ydieresis" unicode="&#xff;" horiz-adv-x="462" 
d="M317 516c-24 0 -46 21 -46 46c0 26 22 47 46 47c25 0 46 -21 46 -47c0 -25 -21 -46 -46 -46zM144 516c-24 0 -46 21 -46 46c0 26 22 47 46 47s46 -21 46 -47c0 -25 -22 -46 -46 -46zM95 -212l106 247l-176 379h77l117 -257c11 -26 19 -70 19 -70s7 44 19 70l108 257h72
l-270 -626h-72z" />
    <glyph glyph-name="Ydieresis" unicode="&#x178;" horiz-adv-x="656" 
d="M294 0v213l-257 467h81l185 -337c14 -26 27 -66 29 -70c1 4 15 44 29 70l184 337h75l-252 -464v-216h-74zM414 771c-24 0 -46 20 -46 46s22 46 46 46c25 0 46 -20 46 -46s-21 -46 -46 -46zM241 771c-24 0 -46 20 -46 46s22 46 46 46s46 -20 46 -46s-22 -46 -46 -46z" />
    <glyph glyph-name="fraction" unicode="&#x2044;" horiz-adv-x="424" 
d="M-34 0l420 680h72l-420 -680h-72z" />
    <glyph glyph-name="guilsinglleft" unicode="&#x2039;" horiz-adv-x="242" 
d="M132 37l-94 159v8l94 157h72l-96 -161l96 -163h-72z" />
    <glyph glyph-name="guilsinglright" unicode="&#x203a;" horiz-adv-x="242" 
d="M38 37l96 162l-96 162h73l93 -158v-8l-93 -158h-73z" />
    <glyph glyph-name="fi" unicode="&#xfb01;" horiz-adv-x="503" 
d="M392 534c-26 0 -50 20 -50 49s24 50 50 50c27 0 50 -21 50 -50s-23 -49 -50 -49zM101 0v355h-67v59h67v188c0 93 47 133 116 133c50 0 76 -18 98 -45l-40 -46c-13 17 -25 28 -53 28c-30 0 -51 -16 -51 -70v-188h257v-414h-70v355h-187v-355h-70z" />
    <glyph glyph-name="daggerdbl" unicode="&#x2021;" horiz-adv-x="337" 
d="M136 280v105h-93v54h93v82h-93v55h93v104h65v-104h93v-55h-93v-82h93v-54h-93v-105h-65z" />
    <glyph glyph-name="periodcentered" unicode="&#xb7;" horiz-adv-x="202" 
d="M101 189c-28 0 -54 24 -54 55s26 54 54 54c29 0 55 -23 55 -54s-26 -55 -55 -55z" />
    <glyph glyph-name="quotesinglbase" unicode="&#x201a;" horiz-adv-x="199" 
d="M46 -103l34 105c-18 5 -33 24 -33 48c0 30 25 53 52 53c28 0 53 -23 53 -53c0 -13 -5 -26 -13 -41l-55 -112h-38z" />
    <glyph glyph-name="quotedblbase" unicode="&#x201e;" horiz-adv-x="357" 
d="M204 -103l34 105c-17 5 -32 24 -32 48c0 30 25 53 52 53c28 0 53 -23 53 -53c0 -13 -6 -26 -13 -41l-56 -112h-38zM46 -103l34 105c-18 5 -33 24 -33 48c0 30 25 53 52 53c28 0 53 -23 53 -53c0 -13 -5 -26 -13 -41l-55 -112h-38z" />
    <glyph glyph-name="Acircumflex" unicode="&#xc2;" horiz-adv-x="655" 
d="M192 751l128 193h10l128 -193h-59l-74 102l-74 -102h-59zM37 0l282 687h12l288 -687h-76l-46 114h-344l-45 -114h-71zM178 176h293l-120 302c-12 29 -25 73 -26 80c-2 -5 -15 -50 -27 -80z" />
    <glyph glyph-name="Ecircumflex" unicode="&#xca;" horiz-adv-x="580" 
d="M172 751l127 193h10l128 -193h-59l-73 102l-75 -102h-58zM93 0v680h414v-64h-342v-319h305v-63h-305v-170h356v-64h-428z" />
    <glyph glyph-name="Aacute" unicode="&#xc1;" horiz-adv-x="655" 
d="M299 753l68 193h81l-93 -193h-56zM37 0l282 687h12l288 -687h-76l-46 114h-344l-45 -114h-71zM178 176h293l-120 302c-12 29 -25 73 -26 80c-2 -5 -15 -50 -27 -80z" />
    <glyph glyph-name="Edieresis" unicode="&#xcb;" horiz-adv-x="580" 
d="M390 771c-24 0 -46 21 -46 46c0 26 22 47 46 47c25 0 47 -21 47 -47c0 -25 -22 -46 -47 -46zM217 771c-24 0 -46 21 -46 46c0 26 22 47 46 47c25 0 46 -21 46 -47c0 -25 -21 -46 -46 -46zM93 0v680h414v-64h-342v-319h305v-63h-305v-170h356v-64h-428z" />
    <glyph glyph-name="Egrave" unicode="&#xc8;" horiz-adv-x="580" 
d="M281 753l-93 193h81l67 -193h-55zM93 0v680h414v-64h-342v-319h305v-63h-305v-170h356v-64h-428z" />
    <glyph glyph-name="Iacute" unicode="&#xcd;" horiz-adv-x="265" 
d="M106 753l67 193h81l-93 -193h-55zM96 0v680h73v-680h-73z" />
    <glyph glyph-name="Icircumflex" unicode="&#xce;" horiz-adv-x="265" 
d="M-1 751l128 193h9l128 -193h-58l-74 102l-74 -102h-59zM96 0v680h73v-680h-73z" />
    <glyph glyph-name="Idieresis" unicode="&#xcf;" horiz-adv-x="265" 
d="M219 771c-24 0 -46 20 -46 46s22 46 46 46s46 -20 46 -46s-22 -46 -46 -46zM46 771c-25 0 -47 20 -47 46s22 46 47 46c24 0 46 -20 46 -46s-22 -46 -46 -46zM96 0v680h73v-680h-73z" />
    <glyph glyph-name="Igrave" unicode="&#xcc;" horiz-adv-x="265" 
d="M103 753l-93 193h81l67 -193h-55zM96 0v680h73v-680h-73z" />
    <glyph glyph-name="Oacute" unicode="&#xd3;" horiz-adv-x="807" 
d="M374 753l68 193h81l-93 -193h-56zM403 -8c-193 0 -349 143 -349 348s156 348 349 348c194 0 350 -143 350 -348s-156 -348 -350 -348zM403 57c159 0 275 121 275 283s-116 283 -275 283c-158 0 -274 -121 -274 -283s116 -283 274 -283z" />
    <glyph glyph-name="Ocircumflex" unicode="&#xd4;" horiz-adv-x="807" 
d="M270 751l128 193h10l128 -193h-59l-74 102l-74 -102h-59zM403 -8c-193 0 -349 143 -349 348s156 348 349 348c194 0 350 -143 350 -348s-156 -348 -350 -348zM403 57c159 0 275 121 275 283s-116 283 -275 283c-158 0 -274 -121 -274 -283s116 -283 274 -283z" />
    <glyph glyph-name="Ograve" unicode="&#xd2;" horiz-adv-x="807" 
d="M377 753l-93 193h81l67 -193h-55zM403 -8c-193 0 -349 143 -349 348s156 348 349 348c194 0 350 -143 350 -348s-156 -348 -350 -348zM403 57c159 0 275 121 275 283s-116 283 -275 283c-158 0 -274 -121 -274 -283s116 -283 274 -283z" />
    <glyph glyph-name="Uacute" unicode="&#xda;" horiz-adv-x="662" 
d="M302 753l67 193h81l-93 -193h-55zM331 -8c-139 0 -244 81 -244 240v448h72v-443c0 -121 66 -181 172 -181c105 0 172 60 172 181v443h72v-448c0 -159 -106 -240 -244 -240z" />
    <glyph glyph-name="Ucircumflex" unicode="&#xdb;" horiz-adv-x="662" 
d="M198 751l127 193h10l128 -193h-59l-73 102l-75 -102h-58zM331 -8c-139 0 -244 81 -244 240v448h72v-443c0 -121 66 -181 172 -181c105 0 172 60 172 181v443h72v-448c0 -159 -106 -240 -244 -240z" />
    <glyph glyph-name="Ugrave" unicode="&#xd9;" horiz-adv-x="662" 
d="M305 753l-94 193h81l68 -193h-55zM331 -8c-139 0 -244 81 -244 240v448h72v-443c0 -121 66 -181 172 -181c105 0 172 60 172 181v443h72v-448c0 -159 -106 -240 -244 -240z" />
    <glyph glyph-name="circumflex" unicode="&#x2c6;" horiz-adv-x="500" 
d="M117 496l128 193h9l128 -193h-58l-74 101l-75 -101h-58z" />
    <glyph glyph-name="tilde" unicode="&#x2dc;" horiz-adv-x="500" 
d="M156 493l-52 4c4 72 38 111 87 111c28 0 46 -12 68 -32c25 -21 33 -28 49 -28c21 0 32 18 36 58l52 -5c-4 -71 -35 -110 -86 -110c-28 0 -46 14 -68 33c-25 22 -33 28 -49 28c-20 0 -33 -19 -37 -59z" />
    <glyph glyph-name="macron" unicode="&#xaf;" horiz-adv-x="500" 
d="M145 515v55h210v-55h-210z" />
    <glyph glyph-name="breve" unicode="&#x2d8;" horiz-adv-x="500" 
d="M250 489c-77 0 -122 50 -132 116l57 10c9 -39 28 -70 75 -70s66 31 75 70l57 -10c-10 -66 -55 -116 -132 -116z" />
    <glyph glyph-name="dotaccent" unicode="&#x2d9;" horiz-adv-x="500" 
d="M250 515c-24 0 -47 20 -47 47s23 47 47 47s47 -20 47 -47s-23 -47 -47 -47z" />
    <glyph glyph-name="ring" unicode="&#x2da;" horiz-adv-x="500" 
d="M250 483c-59 0 -105 46 -105 101c0 56 46 101 105 101s105 -45 105 -101c0 -55 -46 -101 -105 -101zM250 528c31 0 53 22 53 56c0 35 -22 56 -53 56s-53 -21 -53 -56c0 -34 22 -56 53 -56z" />
    <glyph glyph-name="cedilla" unicode="&#xb8;" horiz-adv-x="500" 
d="M256 -232c-52 0 -86 27 -101 59l41 25c10 -21 24 -39 56 -39c25 0 47 16 47 47c0 27 -18 48 -55 48h-21v92h46v-53c43 -6 83 -37 83 -91c0 -56 -47 -88 -96 -88z" />
    <glyph glyph-name="hungarumlaut" unicode="&#x2dd;" horiz-adv-x="500" 
d="M289 498l68 193h76l-88 -193h-56zM150 498l68 193h76l-88 -193h-56z" />
    <glyph glyph-name="ogonek" unicode="&#x2db;" horiz-adv-x="500" 
d="M238 -232c-49 0 -93 29 -93 88c0 41 20 73 41 101l32 43h51l-36 -57c-22 -37 -34 -54 -34 -85c0 -29 20 -43 43 -43c26 0 40 17 52 36l42 -24c-17 -33 -47 -59 -98 -59z" />
    <glyph glyph-name="caron" unicode="&#x2c7;" horiz-adv-x="500" 
d="M246 488l-128 193h58l74 -102l75 102h58l-128 -193h-9z" />
    <glyph glyph-name="G" unicode="G" horiz-adv-x="762" 
d="M396 -8c-196 0 -351 144 -351 348s156 348 350 348c116 0 216 -43 276 -137l-57 -41c-47 74 -122 112 -219 112c-159 0 -275 -120 -275 -282s117 -283 276 -283c154 0 239 93 255 199h-241v64h320c-3 -197 -128 -328 -334 -328z" />
    <glyph glyph-name="M" unicode="M" horiz-adv-x="833" 
d="M65 0l75 688h10l233 -393c17 -28 34 -70 34 -70s17 42 34 70l233 393h9l75 -688h-73l-47 415c-5 41 -6 100 -6 101c-1 -3 -21 -58 -43 -96l-180 -306h-8l-179 306c-21 35 -42 92 -44 97c0 -1 -1 -61 -6 -102l-47 -415h-70z" />
    <glyph glyph-name="Q" unicode="Q" horiz-adv-x="807" 
d="M437 -6v-155h-67v155c-177 15 -316 153 -316 346c0 205 156 348 349 348c194 0 350 -143 350 -348c0 -193 -139 -331 -316 -346zM370 58v142h67v-142c140 14 241 129 241 282c0 162 -116 282 -275 282c-158 0 -274 -120 -274 -282c0 -153 101 -268 241 -282z" />
    <glyph glyph-name="a" unicode="a" horiz-adv-x="547" 
d="M244 -8c-111 0 -196 92 -196 216c0 123 84 215 197 215c76 0 131 -40 159 -98l-1 89h70v-414h-70l1 89c-27 -55 -85 -97 -160 -97zM261 54c87 0 144 64 144 153c0 88 -57 154 -144 154s-140 -64 -140 -153s53 -154 140 -154z" />
    <glyph glyph-name="g" unicode="g" horiz-adv-x="551" 
d="M268 -223c-103 0 -171 48 -210 115l53 36c34 -57 82 -90 155 -90c89 0 141 45 141 154v93c-27 -53 -86 -93 -160 -93c-113 0 -199 92 -199 216c0 123 86 215 198 215c78 0 134 -41 163 -98l-2 89h70v-427c0 -146 -86 -210 -209 -210zM263 54c88 0 147 64 147 154
c0 89 -59 153 -147 153c-87 0 -143 -64 -143 -153c0 -90 56 -154 143 -154z" />
    <glyph glyph-name="u" unicode="u" horiz-adv-x="507" 
d="M252 -9c-114 0 -182 71 -182 192v231h70v-228c0 -86 34 -133 113 -133c80 0 114 47 114 133v228h70v-231c0 -121 -72 -192 -185 -192z" />
    <glyph glyph-name="aacute" unicode="&#xe1;" horiz-adv-x="547" 
d="M223 498l67 193h81l-93 -193h-55zM244 -8c-111 0 -196 92 -196 216c0 123 84 215 197 215c76 0 131 -40 159 -98l-1 89h70v-414h-70l1 89c-27 -55 -85 -97 -160 -97zM261 54c87 0 144 64 144 153c0 88 -57 154 -144 154s-140 -64 -140 -153s53 -154 140 -154z" />
    <glyph glyph-name="agrave" unicode="&#xe0;" horiz-adv-x="547" 
d="M221 498l-93 193h81l68 -193h-56zM244 -8c-111 0 -196 92 -196 216c0 123 84 215 197 215c76 0 131 -40 159 -98l-1 89h70v-414h-70l1 89c-27 -55 -85 -97 -160 -97zM261 54c87 0 144 64 144 153c0 88 -57 154 -144 154s-140 -64 -140 -153s53 -154 140 -154z" />
    <glyph glyph-name="acircumflex" unicode="&#xe2;" horiz-adv-x="547" 
d="M131 496l128 193h10l128 -193h-59l-73 101l-75 -101h-59zM244 -8c-111 0 -196 92 -196 216c0 123 84 215 197 215c76 0 131 -40 159 -98l-1 89h70v-414h-70l1 89c-27 -55 -85 -97 -160 -97zM261 54c87 0 144 64 144 153c0 88 -57 154 -144 154s-140 -64 -140 -153
s53 -154 140 -154z" />
    <glyph glyph-name="adieresis" unicode="&#xe4;" horiz-adv-x="547" 
d="M347 516c-24 0 -46 21 -46 46c0 26 22 47 46 47c25 0 47 -21 47 -47c0 -25 -22 -46 -47 -46zM174 516c-24 0 -46 21 -46 46c0 26 22 47 46 47c25 0 46 -21 46 -47c0 -25 -21 -46 -46 -46zM244 -8c-111 0 -196 92 -196 216c0 123 84 215 197 215c76 0 131 -40 159 -98
l-1 89h70v-414h-70l1 89c-27 -55 -85 -97 -160 -97zM261 54c87 0 144 64 144 153c0 88 -57 154 -144 154s-140 -64 -140 -153s53 -154 140 -154z" />
    <glyph glyph-name="atilde" unicode="&#xe3;" horiz-adv-x="547" 
d="M168 493l-53 4c4 72 38 111 87 111c28 0 46 -12 68 -32c25 -21 33 -28 49 -28c21 0 32 18 36 58l52 -5c-3 -71 -35 -110 -86 -110c-28 0 -46 14 -68 33c-25 22 -33 28 -49 28c-20 0 -33 -19 -36 -59zM244 -8c-111 0 -196 92 -196 216c0 123 84 215 197 215
c76 0 131 -40 159 -98l-1 89h70v-414h-70l1 89c-27 -55 -85 -97 -160 -97zM261 54c87 0 144 64 144 153c0 88 -57 154 -144 154s-140 -64 -140 -153s53 -154 140 -154z" />
    <glyph glyph-name="aring" unicode="&#xe5;" horiz-adv-x="547" 
d="M256 483c-58 0 -105 46 -105 101c0 56 47 101 105 101c59 0 106 -45 106 -101c0 -55 -47 -101 -106 -101zM256 528c31 0 53 22 53 56c0 35 -22 56 -53 56c-30 0 -53 -21 -53 -56c0 -34 23 -56 53 -56zM244 -8c-111 0 -196 92 -196 216c0 123 84 215 197 215
c76 0 131 -40 159 -98l-1 89h70v-414h-70l1 89c-27 -55 -85 -97 -160 -97zM261 54c87 0 144 64 144 153c0 88 -57 154 -144 154s-140 -64 -140 -153s53 -154 140 -154z" />
    <glyph glyph-name="uacute" unicode="&#xfa;" horiz-adv-x="507" 
d="M224 498l68 193h80l-93 -193h-55zM252 -9c-114 0 -182 71 -182 192v231h70v-228c0 -86 34 -133 113 -133c80 0 114 47 114 133v228h70v-231c0 -121 -72 -192 -185 -192z" />
    <glyph glyph-name="ugrave" unicode="&#xf9;" horiz-adv-x="507" 
d="M228 498l-94 193h81l68 -193h-55zM252 -9c-114 0 -182 71 -182 192v231h70v-228c0 -86 34 -133 113 -133c80 0 114 47 114 133v228h70v-231c0 -121 -72 -192 -185 -192z" />
    <glyph glyph-name="ucircumflex" unicode="&#xfb;" horiz-adv-x="507" 
d="M121 496l128 193h10l127 -193h-58l-74 101l-74 -101h-59zM252 -9c-114 0 -182 71 -182 192v231h70v-228c0 -86 34 -133 113 -133c80 0 114 47 114 133v228h70v-231c0 -121 -72 -192 -185 -192z" />
    <glyph glyph-name="udieresis" unicode="&#xfc;" horiz-adv-x="507" 
d="M341 516c-25 0 -47 21 -47 46c0 26 22 47 47 47c24 0 46 -21 46 -47c0 -25 -22 -46 -46 -46zM167 516c-24 0 -46 21 -46 46c0 26 22 47 46 47c25 0 46 -21 46 -47c0 -25 -21 -46 -46 -46zM252 -9c-114 0 -182 71 -182 192v231h70v-228c0 -86 34 -133 113 -133
c80 0 114 47 114 133v228h70v-231c0 -121 -72 -192 -185 -192z" />
    <glyph glyph-name="zero" unicode="0" horiz-adv-x="735" 
d="M367 -8c-180 0 -320 142 -320 348s140 348 320 348s320 -142 320 -348s-140 -348 -320 -348zM367 58c148 0 244 118 244 282s-96 282 -244 282c-149 0 -244 -118 -244 -282s95 -282 244 -282z" />
    <glyph glyph-name="one" unicode="1" horiz-adv-x="319" 
d="M147 0v615h-111v65h184v-680h-73z" />
    <glyph glyph-name="two" unicode="2" horiz-adv-x="534" 
d="M28 0v7l279 296c62 65 99 123 99 192c0 74 -46 126 -127 126c-75 0 -133 -47 -152 -135l-72 14c20 107 100 188 224 188c122 0 201 -79 201 -193c0 -85 -50 -158 -117 -229l-150 -160c-21 -22 -52 -46 -52 -46s35 4 62 4h260v-64h-455z" />
    <glyph glyph-name="three" unicode="3" horiz-adv-x="549" 
d="M261 -8c-113 0 -202 59 -241 137l61 33c32 -60 90 -104 177 -104c110 0 175 71 175 168s-66 166 -179 166c-40 0 -65 -7 -83 -14l-5 7l170 198c14 17 37 37 37 37s-31 -4 -56 -4h-241v64h410v-7l-160 -188c-20 -24 -41 -40 -41 -40c133 -3 222 -96 222 -221
c0 -139 -102 -232 -246 -232z" />
    <glyph glyph-name="four" unicode="4" horiz-adv-x="591" 
d="M402 0v126h-373v37l440 533h7v-508h76v-62h-76v-126h-74zM119 182c0 0 40 6 70 6h213v281c0 29 4 69 5 71c-1 -2 -23 -36 -44 -61l-193 -245c-20 -24 -51 -52 -51 -52z" />
    <glyph glyph-name="five" unicode="5" horiz-adv-x="549" 
d="M261 -8c-108 0 -195 51 -238 129l62 34c32 -55 90 -97 176 -97c103 0 170 72 170 171c0 98 -67 171 -174 171c-73 0 -122 -26 -163 -63l-6 4v339h370v-64h-306v-182c32 19 68 28 115 28c142 0 240 -98 240 -233c0 -145 -102 -237 -246 -237z" />
    <glyph glyph-name="six" unicode="6" horiz-adv-x="568" 
d="M284 -8c-140 0 -238 102 -238 228c0 59 21 110 57 162l209 298h81l-145 -206c-18 -25 -52 -61 -52 -61c29 21 67 35 103 35c128 0 223 -98 223 -226c0 -127 -97 -230 -238 -230zM284 57c101 0 163 76 163 165s-60 167 -163 167c-101 0 -164 -76 -164 -167
c0 -89 63 -165 164 -165z" />
    <glyph glyph-name="seven" unicode="7" horiz-adv-x="549" 
d="M108 0l308 615h-382v65h488v-7l-337 -673h-77z" />
    <glyph glyph-name="eight" unicode="8" horiz-adv-x="569" 
d="M285 -8c-145 0 -246 88 -246 211c0 95 62 159 154 183c-58 23 -97 71 -97 140c0 93 82 162 189 162s190 -69 190 -162c0 -69 -40 -118 -98 -140c91 -25 154 -89 154 -183c0 -123 -101 -211 -246 -211zM285 415c72 0 118 44 118 106c0 59 -46 104 -118 104
s-117 -45 -117 -104c0 -62 45 -106 117 -106zM285 57c104 0 171 62 171 148s-67 147 -171 147c-103 0 -171 -61 -171 -147c0 -87 68 -148 171 -148z" />
    <glyph glyph-name="nine" unicode="9" horiz-adv-x="568" 
d="M187 0l141 208c17 24 43 53 43 53c-31 -22 -67 -35 -103 -35c-130 0 -225 100 -225 229s98 233 240 233s242 -103 242 -231c0 -59 -23 -110 -58 -164l-199 -293h-81zM283 286c103 0 167 77 167 169c0 90 -62 168 -167 168c-104 0 -166 -78 -166 -168s60 -169 166 -169z
" />
    <glyph glyph-name="numbersign" unicode="#" horiz-adv-x="462" 
d="M68 243l27 108h-66v56h80l27 108h-72v56h86l27 109h59l-28 -109h99l28 109h58l-27 -109h66v-56h-80l-27 -108h72v-56h-86l-27 -108h-59l27 108h-99l-26 -108h-59zM168 407h99l27 108h-99z" />
    <glyph glyph-name="percent" unicode="%" horiz-adv-x="812" 
d="M200 353c-89 0 -169 71 -169 168s80 167 169 167c90 0 170 -70 170 -167s-80 -168 -170 -168zM156 0l428 680h72l-428 -680h-72zM611 -8c-89 0 -169 70 -169 167s80 168 169 168s169 -71 169 -168s-80 -167 -169 -167zM200 411c58 0 105 45 105 110s-47 109 -105 109
s-104 -44 -104 -109s46 -110 104 -110zM611 50c57 0 104 45 104 109c0 66 -47 110 -104 110c-58 0 -105 -44 -105 -110c0 -64 47 -109 105 -109z" />
    <glyph glyph-name="plus" unicode="+" horiz-adv-x="413" 
d="M174 146v145h-135v62h135v145h65v-145h135v-62h-135v-145h-65z" />
    <glyph glyph-name="less" unicode="&#x3c;" horiz-adv-x="391" 
d="M342 149l-306 167v10l306 164v-65l-201 -105l201 -106v-65z" />
    <glyph glyph-name="equal" unicode="=" horiz-adv-x="411" 
d="M42 352v62h327v-62h-327zM42 206v61h327v-61h-327z" />
    <glyph glyph-name="greater" unicode="&#x3e;" horiz-adv-x="391" 
d="M49 149v65l201 105l-201 106v65l306 -167v-10z" />
    <glyph glyph-name="degree" unicode="&#xb0;" horiz-adv-x="367" 
d="M184 423c-76 0 -137 58 -137 132c0 75 61 133 137 133s136 -58 136 -133c0 -74 -60 -132 -136 -132zM184 473c48 0 80 35 80 82c0 48 -32 83 -80 83s-80 -35 -80 -83c0 -47 32 -82 80 -82z" />
    <glyph glyph-name="cent" unicode="&#xa2;" horiz-adv-x="470" 
d="M236 -7c-109 13 -189 102 -189 214s80 202 189 214v108h45v-107c64 -4 111 -30 146 -73l-49 -40c-22 28 -52 47 -97 51v-307c48 4 79 25 103 54l48 -41c-37 -44 -84 -70 -151 -74v-108h-45v109zM236 359c-71 -11 -117 -72 -117 -152c0 -79 46 -141 117 -153v305z" />
    <glyph glyph-name="sterling" unicode="&#xa3;" horiz-adv-x="603" 
d="M183 276h-102v54h77c-21 50 -39 100 -39 159c0 113 85 199 212 199c102 0 165 -48 201 -123l-60 -31c-28 58 -69 90 -141 90c-83 0 -138 -54 -138 -135c0 -59 19 -108 39 -159h195v-54h-174c15 -40 27 -83 27 -132c0 -9 -1 -19 -3 -28c41 -30 81 -61 140 -61
c50 0 75 19 101 53l49 -41c-41 -52 -78 -75 -150 -75c-70 0 -119 36 -163 71c-24 -43 -70 -71 -123 -71c-57 0 -107 35 -107 94s47 94 106 94c33 0 60 -9 84 -24c-3 43 -15 82 -31 120zM209 100c-24 18 -49 31 -76 31c-32 0 -55 -16 -55 -44c0 -29 24 -45 56 -45
c36 0 64 20 75 58z" />
    <glyph glyph-name="section" unicode="&#xa7;" horiz-adv-x="553" 
d="M268 -180c-95 0 -168 49 -204 109l57 38c28 -47 75 -83 145 -83c83 0 115 41 115 94c0 52 -37 79 -100 107l-106 48c-95 42 -138 89 -138 165c0 63 37 103 88 128c-18 25 -28 57 -28 95c0 96 76 167 184 167c91 0 150 -47 181 -104l-58 -36c-26 47 -65 76 -123 76
c-68 0 -109 -43 -109 -101c0 -60 32 -86 92 -113l109 -49c102 -46 143 -95 143 -167c0 -59 -36 -100 -92 -123c21 -27 33 -57 33 -94c0 -90 -63 -157 -189 -157zM384 108c37 13 62 42 62 79c0 49 -31 77 -103 109l-109 49c-28 12 -53 27 -73 46c-33 -17 -53 -47 -53 -83
c0 -53 29 -79 96 -109l107 -48c28 -12 54 -27 73 -43z" />
    <glyph glyph-name="yen" unicode="&#xa5;" horiz-adv-x="619" 
d="M273 0v129h-209v53h209v32l-30 59h-179v54h151l-180 353h79l169 -339c14 -31 29 -75 29 -75s14 45 29 75l169 339h75l-180 -353h151v-54h-178l-32 -61v-30h210v-53h-210v-129h-73z" />
    <glyph glyph-name="perthousand" unicode="&#x2030;" horiz-adv-x="1207" 
d="M200 353c-89 0 -169 71 -169 168s80 167 169 167c90 0 170 -70 170 -167s-80 -168 -170 -168zM156 0l428 680h72l-428 -680h-72zM1006 -8c-89 0 -169 70 -169 167s80 168 169 168c90 0 169 -71 169 -168s-79 -167 -169 -167zM611 -8c-89 0 -169 70 -169 167
s80 168 169 168s169 -71 169 -168s-80 -167 -169 -167zM200 411c58 0 105 45 105 110s-47 109 -105 109s-104 -44 -104 -109s46 -110 104 -110zM1006 50c58 0 105 45 105 109c0 66 -47 110 -105 110s-104 -44 -104 -110c0 -64 46 -109 104 -109zM611 50c57 0 104 45 104 109
c0 66 -47 110 -104 110c-58 0 -105 -44 -105 -110c0 -64 47 -109 105 -109z" />
    <glyph glyph-name="fl" unicode="&#xfb02;" horiz-adv-x="507" 
d="M101 0v355h-67v59h67v188c0 93 47 133 114 133c48 0 74 -18 95 -44l-37 -47c-13 16 -25 28 -52 28c-30 0 -50 -17 -50 -70v-188h107v-59h-107v-355h-70zM358 0v722h70v-722h-70z" />
    <glyph glyph-name="Euro" unicode="&#x20ac;" horiz-adv-x="755" 
d="M125 368h-85v54h94c32 157 153 266 308 266c118 0 193 -45 245 -125l-54 -39c-42 63 -95 99 -191 99c-118 0 -205 -81 -232 -201h322v-54h-332c-1 -9 -1 -19 -1 -28c0 -21 1 -41 4 -60h329v-54h-314c35 -102 118 -170 228 -170c113 0 171 61 208 120l56 -37
c-46 -79 -121 -147 -264 -147c-146 0 -263 94 -305 234h-101v54h89c-3 19 -4 39 -4 60v28z" />
    <glyph glyph-name="Amacron" unicode="&#x100;" horiz-adv-x="655" 
d="M37 0l282 687h12l288 -687h-76l-46 114h-344l-45 -114h-71zM178 176h293l-120 301c-12 29 -25 74 -26 81c-2 -5 -15 -51 -27 -81zM221 770v55h210v-55h-210z" />
    <glyph glyph-name="Aogonek" unicode="&#x104;" horiz-adv-x="655" 
d="M616 5l-38 -62c-23 -36 -34 -54 -34 -85c0 -29 20 -43 42 -43c26 0 41 17 52 36l42 -24c-17 -33 -46 -59 -98 -59c-48 0 -93 29 -93 88c0 41 21 73 42 101l30 40l-18 4l-46 113h-344l-45 -114h-71l282 687h12zM178 176h293l-120 301c-12 29 -25 74 -26 81
c-2 -5 -15 -51 -27 -81z" />
    <glyph glyph-name="Ccaron" unicode="&#x10c;" horiz-adv-x="726" 
d="M390 743l-127 193h58l74 -102l74 102h59l-128 -193h-10zM403 -8c-193 0 -349 143 -349 348s156 348 349 348c120 0 212 -45 270 -132l-55 -40c-44 64 -117 106 -215 106c-158 0 -274 -120 -274 -282s116 -283 274 -283c99 0 175 43 223 114l57 -39
c-60 -88 -158 -140 -280 -140z" />
    <glyph glyph-name="ccaron" unicode="&#x10d;" horiz-adv-x="468" 
d="M250 488l-128 193h58l74 -102l75 102h58l-128 -193h-9zM263 -8c-122 0 -216 94 -216 215s94 216 216 216c74 0 125 -28 163 -74l-50 -41c-25 33 -62 53 -113 53c-88 0 -143 -66 -143 -154c0 -87 55 -154 143 -154c57 0 93 23 119 54l48 -41c-39 -47 -90 -74 -167 -74z
" />
    <glyph glyph-name="Cacute" unicode="&#x106;" horiz-adv-x="726" 
d="M360 753l67 192h81l-93 -192h-55zM403 -8c-193 0 -349 143 -349 348s156 348 349 348c120 0 212 -45 270 -132l-55 -40c-44 64 -117 106 -215 106c-158 0 -274 -120 -274 -282s116 -283 274 -283c99 0 175 43 223 114l57 -39c-60 -88 -158 -140 -280 -140z" />
    <glyph glyph-name="cacute" unicode="&#x107;" horiz-adv-x="468" 
d="M224 498l67 193h81l-93 -193h-55zM263 -8c-122 0 -216 94 -216 215s94 216 216 216c74 0 125 -28 163 -74l-50 -41c-25 33 -62 53 -113 53c-88 0 -143 -66 -143 -154c0 -87 55 -154 143 -154c57 0 93 23 119 54l48 -41c-39 -47 -90 -74 -167 -74z" />
    <glyph glyph-name="Zacute" unicode="&#x179;" horiz-adv-x="583" 
d="M276 753l67 192h81l-93 -192h-55zM39 0v11l381 605h-327v64h438v-11l-380 -605h382v-64h-494z" />
    <glyph glyph-name="zacute" unicode="&#x17a;" horiz-adv-x="418" 
d="M189 498l68 193h81l-93 -193h-56zM32 0v10l245 346h-219v58h326v-11l-246 -345h241v-58h-347z" />
    <glyph glyph-name="Dcaron" unicode="&#x10e;" horiz-adv-x="680" 
d="M299 743l-128 193h59l73 -102l75 102h59l-128 -193h-10zM93 0v680h165c227 0 368 -134 368 -340s-140 -340 -368 -340h-165zM166 65h87c201 0 297 113 297 275s-96 275 -297 275h-87v-550z" />
    <glyph glyph-name="dcaron" unicode="&#x10f;" horiz-adv-x="640" 
d="M548 482l34 104c-17 6 -33 25 -33 48c0 30 26 53 53 53s53 -23 53 -53c0 -13 -6 -26 -14 -40l-55 -112h-38zM247 -8c-113 0 -199 92 -199 216c0 123 86 215 198 215c78 0 131 -39 160 -94v393h70v-722h-70l3 89c-28 -57 -88 -97 -162 -97zM263 54c88 0 147 64 147 154
c0 89 -59 153 -147 153c-87 0 -143 -64 -143 -153c0 -90 56 -154 143 -154z" />
    <glyph glyph-name="Emacron" unicode="&#x112;" horiz-adv-x="580" 
d="M198 770v55h210v-55h-210zM93 0v680h414v-64h-341v-316h304v-63h-304v-173h355v-64h-428z" />
    <glyph glyph-name="emacron" unicode="&#x113;" 
d="M156 515v55h211v-55h-211zM118 184c9 -79 63 -133 154 -133c62 0 104 25 131 55l43 -42c-38 -43 -93 -72 -174 -72c-136 0 -224 94 -224 215s93 216 214 216c133 0 213 -102 208 -239h-352zM119 237h281c-6 71 -51 127 -138 127c-79 0 -132 -51 -143 -127z" />
    <glyph glyph-name="Edotaccent" unicode="&#x116;" horiz-adv-x="580" 
d="M303 770c-24 0 -47 20 -47 47s23 47 47 47c25 0 47 -20 47 -47s-22 -47 -47 -47zM93 0v680h414v-64h-341v-316h304v-63h-304v-173h355v-64h-428z" />
    <glyph glyph-name="edotaccent" unicode="&#x117;" 
d="M264 515c-24 0 -47 20 -47 47s23 47 47 47s47 -20 47 -47s-23 -47 -47 -47zM118 184c9 -79 63 -133 154 -133c62 0 104 25 131 55l43 -42c-38 -43 -93 -72 -174 -72c-136 0 -224 94 -224 215s93 216 214 216c133 0 213 -102 208 -239h-352zM119 237h281
c-6 71 -51 127 -138 127c-79 0 -132 -51 -143 -127z" />
    <glyph glyph-name="Ecaron" unicode="&#x11a;" horiz-adv-x="580" 
d="M298 743l-128 193h58l74 -102l75 102h58l-128 -193h-9zM93 0v680h414v-64h-341v-316h304v-63h-304v-173h355v-64h-428z" />
    <glyph glyph-name="ecaron" unicode="&#x11b;" 
d="M256 488l-128 193h58l74 -102l74 102h59l-128 -193h-9zM118 184c9 -79 63 -133 154 -133c62 0 104 25 131 55l43 -42c-38 -43 -93 -72 -174 -72c-136 0 -224 94 -224 215s93 216 214 216c133 0 213 -102 208 -239h-352zM119 237h281c-6 71 -51 127 -138 127
c-79 0 -132 -51 -143 -127z" />
    <glyph glyph-name="Eogonek" unicode="&#x118;" horiz-adv-x="580" 
d="M411 0h-318v680h414v-64h-341v-316h304v-63h-304v-173h355v-64h-58l-36 -57c-23 -37 -34 -54 -34 -85c0 -29 20 -43 42 -43c27 0 41 17 53 36l41 -24c-17 -33 -46 -59 -98 -59c-48 0 -93 29 -93 88c0 41 21 73 42 101z" />
    <glyph glyph-name="eogonek" unicode="&#x119;" 
d="M337 -232c-48 0 -93 29 -93 88c0 41 21 74 46 107l25 33c-14 -3 -29 -4 -43 -4c-135 0 -224 94 -224 215s93 216 214 216c133 0 213 -102 208 -239h-352c9 -79 63 -133 154 -133c62 0 104 25 131 55l43 -43c-35 -38 -74 -57 -113 -120c-23 -37 -35 -54 -35 -85
c0 -29 20 -43 43 -43c26 0 40 17 52 36l42 -24c-17 -33 -46 -59 -98 -59zM119 237h281c-6 71 -51 127 -138 127c-80 0 -132 -51 -143 -127z" />
    <glyph glyph-name="Iogonek" unicode="&#x12e;" horiz-adv-x="265" 
d="M96 0v680h73v-670l-41 -67c-23 -37 -35 -54 -35 -85c0 -29 20 -43 43 -43c26 0 40 17 52 36l42 -24c-17 -33 -46 -59 -98 -59c-48 0 -93 29 -93 88c0 41 20 73 41 101l30 40z" />
    <glyph glyph-name="iogonek" unicode="&#x12f;" horiz-adv-x="222" 
d="M111 534c-26 0 -50 20 -50 49s24 50 50 50s50 -21 50 -50s-24 -49 -50 -49zM76 0v414h70v-406l-40 -65c-23 -37 -34 -54 -34 -85c0 -29 20 -43 42 -43c26 0 41 17 52 36l42 -24c-17 -33 -46 -59 -98 -59c-48 0 -93 29 -93 88c0 41 21 73 42 101l31 42z" />
    <glyph glyph-name="imacron" unicode="&#x12b;" horiz-adv-x="222" 
d="M6 515v55h210v-55h-210zM76 0v414h70v-414h-70z" />
    <glyph glyph-name="Kcommaaccent" unicode="&#x136;" horiz-adv-x="607" 
d="M160 269c15 28 34 64 47 81l257 330h82l-252 -328l279 -352h-89l-238 298l-80 -98v-200h-73v680h73v-322c0 -30 -4 -67 -6 -89zM260 -256l31 99c-16 6 -31 24 -31 47c0 29 24 51 51 51s51 -22 51 -51c0 -13 -4 -26 -11 -39l-53 -107h-38z" />
    <glyph glyph-name="Lcommaaccent" unicode="&#x13b;" horiz-adv-x="528" 
d="M237 -254l32 99c-17 6 -32 24 -32 47c0 29 24 51 51 51s52 -22 52 -51c0 -13 -5 -26 -12 -39l-53 -107h-38zM93 0v680h72v-616h321v-64h-393z" />
    <glyph glyph-name="lcommaaccent" unicode="&#x13c;" horiz-adv-x="228" 
d="M64 -254l31 99c-16 6 -31 24 -31 47c0 29 24 51 51 51s52 -22 52 -51c0 -13 -5 -26 -12 -39l-53 -107h-38zM79 0v722h70v-722h-70z" />
    <glyph glyph-name="Lcaron" unicode="&#x13d;" horiz-adv-x="528" 
d="M309 482l34 104c-17 6 -33 25 -33 48c0 30 25 53 52 53c28 0 53 -23 53 -53c0 -13 -5 -26 -13 -40l-55 -112h-38zM93 0v680h73v-616h321v-64h-394z" />
    <glyph glyph-name="lcaron" unicode="&#x13e;" horiz-adv-x="316" 
d="M224 482l34 104c-17 6 -33 25 -33 48c0 30 25 53 52 53c28 0 53 -23 53 -53c0 -13 -5 -26 -13 -40l-55 -112h-38zM79 0v722h70v-722h-70z" />
    <glyph glyph-name="Lacute" unicode="&#x139;" horiz-adv-x="528" 
d="M101 753l68 192h81l-93 -192h-56zM93 0v680h73v-616h321v-64h-394z" />
    <glyph glyph-name="lacute" unicode="&#x13a;" horiz-adv-x="228" 
d="M85 773l67 192h81l-93 -192h-55zM79 0v722h70v-722h-70z" />
    <glyph glyph-name="Ncommaaccent" unicode="&#x145;" horiz-adv-x="713" 
d="M308 -256l32 99c-17 6 -32 24 -32 47c0 29 25 51 51 51c27 0 52 -22 52 -51c0 -13 -5 -26 -12 -39l-52 -107h-39zM608 -7l-406 480c-18 21 -44 57 -47 62c0 -5 6 -49 6 -76v-459h-68v687h12l406 -480c18 -22 44 -59 47 -63c0 2 -5 48 -5 77v459h67v-687h-12z" />
    <glyph glyph-name="ncommaaccent" unicode="&#x146;" 
d="M206 -256l32 99c-16 6 -31 24 -31 47c0 29 24 51 51 51c26 0 51 -22 51 -51c0 -13 -4 -26 -12 -39l-52 -107h-39zM74 0v414h70l-2 -85c27 59 82 94 149 94c92 0 155 -63 155 -171v-252h-70v244c0 73 -34 115 -103 115c-77 0 -129 -49 -129 -131v-228h-70z" />
    <glyph glyph-name="Nacute" unicode="&#x143;" horiz-adv-x="713" 
d="M608 -7l-405 485c-19 21 -46 57 -48 60c0 -2 6 -45 6 -74v-464h-68v687h12l406 -485c18 -21 43 -57 46 -61c0 2 -5 46 -5 75v464h69v-687h-13zM327 753l67 192h81l-93 -192h-55z" />
    <glyph glyph-name="Abreve" unicode="&#x102;" horiz-adv-x="655" 
d="M37 0l282 687h12l288 -687h-76l-46 114h-344l-45 -114h-71zM178 176h293l-120 301c-12 29 -25 74 -26 81c-2 -5 -15 -51 -27 -81zM324 744c-77 0 -121 50 -132 116l57 10c10 -40 28 -71 75 -71s66 31 75 71l57 -10c-10 -66 -55 -116 -132 -116z" />
    <glyph glyph-name="nacute" unicode="&#x144;" 
d="M229 498l67 193h81l-93 -193h-55zM74 0v414h70l-2 -84c27 58 82 93 150 93c91 0 154 -63 154 -171v-252h-70v244c0 73 -34 115 -103 115c-77 0 -129 -49 -129 -131v-228h-70z" />
    <glyph glyph-name="Ncaron" unicode="&#x147;" horiz-adv-x="713" 
d="M608 -7l-405 485c-19 21 -46 57 -48 60c0 -2 6 -45 6 -74v-464h-68v687h12l406 -485c18 -21 43 -57 46 -61c0 2 -5 46 -5 75v464h69v-687h-13zM358 743l-128 193h59l73 -102l75 102h58l-127 -193h-10z" />
    <glyph glyph-name="ncaron" unicode="&#x148;" 
d="M255 488l-128 193h59l74 -102l74 102h59l-128 -193h-10zM74 0v414h70l-2 -84c27 58 82 93 150 93c91 0 154 -63 154 -171v-252h-70v244c0 73 -34 115 -103 115c-77 0 -129 -49 -129 -131v-228h-70z" />
    <glyph glyph-name="Ohungarumlaut" unicode="&#x150;" horiz-adv-x="807" 
d="M451 753l67 192h76l-88 -192h-55zM312 753l67 192h76l-88 -192h-55zM403 -8c-193 0 -349 143 -349 348s156 348 349 348c194 0 350 -143 350 -348s-156 -348 -350 -348zM403 57c159 0 275 121 275 283s-116 283 -275 283c-158 0 -274 -121 -274 -283s116 -283 274 -283z
" />
    <glyph glyph-name="ohungarumlaut" unicode="&#x151;" horiz-adv-x="533" 
d="M314 498l67 193h77l-89 -193h-55zM175 498l67 193h77l-89 -193h-55zM268 -8c-124 0 -221 94 -221 215s97 216 221 216c123 0 218 -95 218 -216s-95 -215 -218 -215zM268 52c88 0 146 67 146 155c0 89 -58 155 -146 155c-89 0 -149 -66 -149 -155c0 -88 60 -155 149 -155z
" />
    <glyph glyph-name="Omacron" unicode="&#x14c;" horiz-adv-x="807" 
d="M298 770v55h210v-55h-210zM403 -8c-193 0 -349 143 -349 348s156 348 349 348c194 0 350 -143 350 -348s-156 -348 -350 -348zM403 57c159 0 275 121 275 283s-116 283 -275 283c-158 0 -274 -121 -274 -283s116 -283 274 -283z" />
    <glyph glyph-name="omacron" unicode="&#x14d;" horiz-adv-x="533" 
d="M162 515v55h210v-55h-210zM268 -8c-124 0 -221 94 -221 215s97 216 221 216c123 0 218 -95 218 -216s-95 -215 -218 -215zM268 52c88 0 146 67 146 155c0 89 -58 155 -146 155c-89 0 -149 -66 -149 -155c0 -88 60 -155 149 -155z" />
    <glyph glyph-name="Racute" unicode="&#x154;" horiz-adv-x="596" 
d="M256 753l67 192h81l-93 -192h-55zM387 209l147 -209h-85l-132 187c-22 -5 -46 -7 -71 -7h-80v-180h-73v680h153c186 0 282 -104 282 -251c0 -102 -47 -182 -141 -220zM166 244h76c153 0 211 78 211 185s-58 187 -211 187h-76v-372z" />
    <glyph glyph-name="racute" unicode="&#x155;" horiz-adv-x="357" 
d="M171 498l67 193h81l-93 -193h-55zM74 0v414h70l-1 -81c25 63 71 89 121 89c30 0 52 -7 71 -20l-27 -61c-13 9 -31 16 -57 16c-59 0 -107 -42 -107 -139v-218h-70z" />
    <glyph glyph-name="Rcaron" unicode="&#x158;" horiz-adv-x="596" 
d="M279 743l-128 193h59l74 -102l74 102h59l-128 -193h-10zM387 209l147 -209h-85l-132 187c-22 -5 -46 -7 -71 -7h-80v-180h-73v680h153c186 0 282 -104 282 -251c0 -102 -47 -182 -141 -220zM166 244h76c153 0 211 78 211 185s-58 187 -211 187h-76v-372z" />
    <glyph glyph-name="rcaron" unicode="&#x159;" horiz-adv-x="357" 
d="M198 488l-128 193h58l74 -102l75 102h58l-128 -193h-9zM74 0v414h70l-1 -81c25 63 71 89 121 89c30 0 52 -7 71 -20l-27 -61c-13 9 -31 16 -57 16c-59 0 -107 -42 -107 -139v-218h-70z" />
    <glyph glyph-name="Rcommaaccent" unicode="&#x156;" horiz-adv-x="596" 
d="M387 209l147 -209h-85l-132 187c-22 -5 -46 -7 -71 -7h-80v-180h-73v680h153c186 0 282 -104 282 -251c0 -102 -47 -182 -141 -220zM241 -256l31 99c-16 6 -31 24 -31 47c0 29 24 51 51 51s51 -22 51 -51c0 -13 -4 -26 -11 -39l-53 -107h-38zM166 244h76
c153 0 211 78 211 185s-58 187 -211 187h-76v-372z" />
    <glyph glyph-name="rcommaaccent" unicode="&#x157;" horiz-adv-x="357" 
d="M74 0v414h70l-1 -81c25 63 71 89 121 89c30 0 52 -7 71 -20l-27 -61c-13 9 -31 16 -57 16c-59 0 -107 -42 -107 -139v-218h-70zM58 -256l31 99c-16 6 -31 24 -31 47c0 29 24 51 51 51s51 -22 51 -51c0 -13 -4 -26 -11 -39l-53 -107h-38z" />
    <glyph glyph-name="Sacute" unicode="&#x15a;" horiz-adv-x="530" 
d="M228 753l67 192h81l-93 -192h-55zM266 -8c-130 0 -201 66 -237 138l60 33c32 -57 79 -107 175 -107c79 0 140 45 140 116c0 69 -42 103 -127 142l-54 25c-97 43 -150 91 -150 186c0 98 77 163 179 163c91 0 146 -42 182 -103l-57 -36c-26 44 -61 75 -125 75
c-67 0 -107 -39 -107 -97c0 -60 31 -87 107 -122l54 -25c113 -50 171 -106 171 -208c0 -112 -89 -180 -211 -180z" />
    <glyph glyph-name="sacute" unicode="&#x15b;" horiz-adv-x="410" 
d="M169 498l68 193h81l-93 -193h-56zM213 -8c-91 0 -147 43 -174 95l48 33c25 -42 63 -70 123 -70c56 0 87 23 87 61c0 45 -35 55 -107 76c-65 18 -125 45 -125 123c0 72 60 113 136 113c65 0 109 -28 138 -71l-44 -37c-20 29 -52 51 -94 51c-45 0 -72 -21 -72 -53
c0 -39 25 -50 98 -71c70 -19 138 -47 138 -127c0 -69 -47 -123 -152 -123z" />
    <glyph glyph-name="Tcaron" unicode="&#x164;" horiz-adv-x="556" 
d="M273 743l-127 193h58l74 -102l74 102h59l-128 -193h-10zM242 0v616h-209v64h490v-64h-208v-616h-73z" />
    <glyph glyph-name="tcaron" unicode="&#x165;" horiz-adv-x="391" 
d="M299 482l34 104c-17 6 -32 25 -32 48c0 30 25 53 52 53c28 0 53 -23 53 -53c0 -13 -6 -26 -13 -40l-56 -112h-38zM210 -9c-63 0 -112 36 -112 134v230h-64v59h64v216h70v-216h115v-59h-115v-231c0 -54 19 -72 48 -72c32 0 46 13 59 26l34 -47c-20 -21 -48 -40 -99 -40z
" />
    <glyph glyph-name="Umacron" unicode="&#x16a;" horiz-adv-x="662" 
d="M226 770v55h210v-55h-210zM331 -8c-139 0 -244 81 -244 240v448h73v-443c0 -121 65 -180 171 -180c105 0 171 59 171 180v443h73v-448c0 -159 -106 -240 -244 -240z" />
    <glyph glyph-name="Uring" unicode="&#x16e;" horiz-adv-x="662" 
d="M331 738c-59 0 -105 46 -105 101s46 101 105 101s105 -46 105 -101s-46 -101 -105 -101zM331 -8c-139 0 -244 81 -244 240v448h73v-443c0 -121 65 -180 171 -180c105 0 171 59 171 180v443h73v-448c0 -159 -106 -240 -244 -240zM331 783c31 0 53 22 53 56s-22 56 -53 56
s-53 -22 -53 -56s22 -56 53 -56z" />
    <glyph glyph-name="Uhungarumlaut" unicode="&#x170;" horiz-adv-x="662" 
d="M373 753l68 192h76l-88 -192h-56zM235 753l67 192h76l-88 -192h-55zM331 -8c-139 0 -244 81 -244 240v448h73v-443c0 -121 65 -180 171 -180c105 0 171 59 171 180v443h73v-448c0 -159 -106 -240 -244 -240z" />
    <glyph glyph-name="Uogonek" unicode="&#x172;" horiz-adv-x="662" 
d="M308 -7c-128 8 -221 89 -221 239v448h73v-443c0 -121 65 -180 171 -180c105 0 171 59 171 180v443h73v-448c0 -147 -91 -229 -215 -238l-31 -51c-23 -37 -34 -54 -34 -85c0 -29 20 -43 42 -43c26 0 41 17 52 36l42 -24c-17 -33 -46 -59 -98 -59c-48 0 -93 29 -93 88
c0 41 21 73 42 101z" />
    <glyph glyph-name="kcommaaccent" unicode="&#x137;" horiz-adv-x="464" 
d="M144 126v-126h-70v722h70v-463c0 -22 -2 -44 -4 -59l198 214h80l-160 -174l184 -240h-83l-151 193zM190 -256l31 99c-16 6 -31 24 -31 47c0 29 24 51 51 51s51 -22 51 -51c0 -13 -4 -26 -11 -39l-53 -107h-38z" />
    <glyph glyph-name="Zdotaccent" unicode="&#x17b;" horiz-adv-x="583" 
d="M307 770c-24 0 -47 20 -47 47s23 47 47 47s47 -20 47 -47s-23 -47 -47 -47zM39 0v11l381 605h-327v64h438v-11l-380 -605h382v-64h-494z" />
    <glyph glyph-name="zdotaccent" unicode="&#x17c;" horiz-adv-x="418" 
d="M220 515c-24 0 -47 20 -47 47s23 47 47 47c25 0 47 -20 47 -47s-22 -47 -47 -47zM32 0v10l245 346h-219v58h326v-11l-246 -345h241v-58h-347z" />
    <glyph glyph-name="Idotaccent" unicode="&#x130;" horiz-adv-x="265" 
d="M132 770c-24 0 -47 20 -47 47s23 47 47 47c25 0 47 -20 47 -47s-22 -47 -47 -47zM96 0v680h73v-680h-73z" />
    <glyph glyph-name="Dcroat" unicode="&#x110;" horiz-adv-x="680" 
d="M93 0v242h-79v64h79v374h173c221 0 360 -139 360 -340s-138 -340 -360 -340h-173zM166 65h95c194 0 289 113 289 275s-95 275 -289 275h-95v-309h182v-64h-182v-177z" />
    <glyph glyph-name="dcroat" unicode="&#x111;" horiz-adv-x="551" 
d="M406 528h-143v58h143v136h70v-136h77v-58h-77v-528h-70l3 89c-28 -57 -88 -97 -162 -97c-113 0 -199 92 -199 216c0 123 86 215 198 215c78 0 131 -39 160 -94v199zM263 54c88 0 147 64 147 154c0 89 -59 153 -147 153c-87 0 -143 -64 -143 -153c0 -90 56 -154 143 -154z
" />
    <glyph glyph-name="scommaaccent" unicode="&#x219;" horiz-adv-x="410" 
d="M213 -8c-91 0 -147 43 -174 95l48 33c25 -42 63 -70 123 -70c56 0 87 23 87 61c0 45 -35 55 -107 76c-65 18 -125 45 -125 123c0 72 60 113 136 113c65 0 109 -28 138 -71l-44 -37c-20 29 -52 51 -94 51c-45 0 -72 -21 -72 -53c0 -39 25 -50 98 -71
c70 -19 138 -47 138 -127c0 -69 -47 -123 -152 -123zM156 -256l32 99c-17 6 -32 24 -32 47c0 29 25 51 51 51c27 0 52 -22 52 -51c0 -13 -5 -26 -12 -39l-53 -107h-38z" />
    <glyph glyph-name="Scommaaccent" unicode="&#x218;" horiz-adv-x="530" 
d="M266 -8c-130 0 -201 66 -237 138l60 33c32 -57 79 -107 175 -107c79 0 140 45 140 116c0 69 -42 103 -127 142l-54 25c-97 43 -150 91 -150 186c0 98 77 163 179 163c91 0 146 -42 182 -103l-57 -36c-26 44 -61 75 -125 75c-67 0 -107 -39 -107 -97
c0 -60 31 -87 107 -122l54 -25c113 -50 171 -106 171 -208c0 -112 -89 -180 -211 -180zM215 -256l32 99c-17 6 -32 24 -32 47c0 29 25 51 51 51c27 0 52 -22 52 -51c0 -13 -5 -26 -12 -39l-52 -107h-39z" />
    <glyph glyph-name="tcommaaccent" unicode="&#x163;" horiz-adv-x="335" 
d="M210 -232c-52 0 -85 27 -101 59l41 25c10 -21 24 -39 56 -39c25 0 47 16 47 47c0 27 -18 48 -55 48h-21v87c-47 11 -79 50 -79 130v230h-64v59h64v216h70v-216h115v-59h-115v-231c0 -54 19 -72 48 -72c32 0 46 13 59 26l34 -47c-18 -19 -43 -36 -86 -39v-45
c43 -6 83 -37 83 -91c0 -56 -47 -88 -96 -88z" />
    <glyph glyph-name="Tcommaaccent" unicode="&#x162;" horiz-adv-x="556" 
d="M242 0v616h-209v64h490v-64h-208v-616h-11v-53c42 -6 82 -37 82 -91c0 -56 -47 -88 -95 -88c-53 0 -86 27 -102 59l41 25c10 -21 25 -39 56 -39c26 0 47 16 47 47c0 27 -17 48 -55 48h-24v92h-12z" />
    <glyph glyph-name="amacron" unicode="&#x101;" horiz-adv-x="547" 
d="M167 515v55h210v-55h-210zM244 -8c-111 0 -196 92 -196 216c0 123 84 215 197 215c76 0 131 -40 159 -98l-1 89h70v-414h-70l1 89c-27 -55 -85 -97 -160 -97zM261 54c87 0 144 64 144 153c0 88 -57 154 -144 154s-140 -64 -140 -153s53 -154 140 -154z" />
    <glyph glyph-name="aogonek" unicode="&#x105;" horiz-adv-x="547" 
d="M473 10l-42 -67c-23 -36 -34 -54 -34 -85c0 -29 20 -43 42 -43c27 0 41 17 53 36l41 -24c-17 -33 -46 -59 -98 -59c-48 0 -93 29 -93 88c0 41 21 73 42 101l31 42l-12 2l1 88c-27 -55 -85 -97 -160 -97c-111 0 -196 92 -196 216c0 123 84 215 197 215
c76 0 131 -40 159 -98l-1 89h70v-404zM261 54c87 0 144 64 144 153c0 88 -57 154 -144 154s-140 -64 -140 -153s53 -154 140 -154z" />
    <glyph glyph-name="gcommaaccent" unicode="&#x123;" horiz-adv-x="551" 
d="M268 502c-26 0 -51 23 -51 52c0 13 4 26 12 39l52 107h38l-31 -99c16 -6 31 -24 31 -47c0 -29 -24 -52 -51 -52zM268 -223c-103 0 -171 48 -210 115l53 36c34 -57 82 -90 155 -90c89 0 141 45 141 154v93c-27 -53 -86 -93 -160 -93c-113 0 -199 92 -199 216
c0 123 86 215 198 215c78 0 134 -41 163 -98l-2 89h70v-427c0 -146 -86 -210 -209 -210zM263 54c88 0 147 64 147 154c0 89 -59 153 -147 153c-87 0 -143 -64 -143 -153c0 -90 56 -154 143 -154z" />
    <glyph glyph-name="abreve" unicode="&#x103;" horiz-adv-x="547" 
d="M276 489c-77 0 -122 50 -132 116l57 10c9 -39 27 -70 75 -70c47 0 65 31 74 70l57 -10c-10 -66 -54 -116 -131 -116zM244 -8c-111 0 -196 92 -196 216c0 123 84 215 197 215c76 0 131 -40 159 -98l-1 89h70v-414h-70l1 89c-27 -55 -85 -97 -160 -97zM261 54
c87 0 144 64 144 153c0 88 -57 154 -144 154s-140 -64 -140 -153s53 -154 140 -154z" />
    <glyph glyph-name="umacron" unicode="&#x16b;" horiz-adv-x="507" 
d="M148 515v55h210v-55h-210zM252 -9c-114 0 -182 71 -182 192v231h70v-228c0 -86 34 -133 113 -133c80 0 114 47 114 133v228h70v-231c0 -121 -72 -192 -185 -192z" />
    <glyph glyph-name="uring" unicode="&#x16f;" horiz-adv-x="507" 
d="M253 483c-59 0 -105 46 -105 101c0 56 46 101 105 101s106 -45 106 -101c0 -55 -47 -101 -106 -101zM252 -9c-114 0 -182 71 -182 192v231h70v-228c0 -86 34 -133 113 -133c80 0 114 47 114 133v228h70v-231c0 -121 -72 -192 -185 -192zM253 528c31 0 53 22 53 56
c0 35 -22 56 -53 56s-53 -21 -53 -56c0 -34 22 -56 53 -56z" />
    <glyph glyph-name="uhungarumlaut" unicode="&#x171;" horiz-adv-x="507" 
d="M293 498l67 193h76l-88 -193h-55zM154 498l67 193h76l-88 -193h-55zM252 -9c-114 0 -182 71 -182 192v231h70v-228c0 -86 34 -133 113 -133c80 0 114 47 114 133v228h70v-231c0 -121 -72 -192 -185 -192z" />
    <glyph glyph-name="uogonek" unicode="&#x173;" horiz-adv-x="507" 
d="M236 -9c-104 7 -166 77 -166 192v231h70v-228c0 -86 34 -133 113 -133c80 0 114 47 114 133v228h70v-231c0 -108 -56 -175 -147 -189l-32 -51c-23 -37 -34 -54 -34 -85c0 -29 19 -43 42 -43c26 0 41 17 52 36l42 -24c-17 -33 -46 -59 -98 -59c-48 0 -93 29 -93 88
c0 41 20 73 41 101z" />
    <glyph glyph-name="Gcommaaccent" unicode="&#x122;" horiz-adv-x="762" 
d="M396 -8c-196 0 -351 144 -351 348s156 348 350 348c116 0 216 -43 276 -137l-57 -41c-47 74 -122 112 -219 112c-159 0 -275 -120 -275 -282s117 -283 276 -283c154 0 239 93 255 199h-241v64h320c-3 -197 -128 -328 -334 -328zM341 -256l31 99c-16 6 -31 24 -31 47
c0 29 24 51 51 51c26 0 51 -22 51 -51c0 -13 -4 -26 -11 -39l-53 -107h-38z" />
    <glyph glyph-name="Gbreve" unicode="&#x11e;" horiz-adv-x="762" 
d="M387 744c-77 0 -121 50 -132 116l57 10c10 -40 28 -71 75 -71s66 31 75 71l57 -10c-10 -66 -55 -116 -132 -116zM396 -8c-196 0 -351 144 -351 348s156 348 350 348c116 0 216 -43 276 -137l-57 -41c-47 74 -122 112 -219 112c-159 0 -275 -120 -275 -282
s117 -283 276 -283c154 0 239 93 255 199h-241v64h320c-3 -197 -128 -328 -334 -328z" />
    <glyph glyph-name="gbreve" unicode="&#x11f;" horiz-adv-x="551" 
d="M279 489c-77 0 -121 50 -131 116l57 10c9 -39 27 -70 74 -70s66 31 75 70l57 -10c-10 -66 -55 -116 -132 -116zM268 -223c-103 0 -171 48 -210 115l53 36c34 -57 82 -90 155 -90c89 0 141 45 141 154v93c-27 -53 -86 -93 -160 -93c-113 0 -199 92 -199 216
c0 123 86 215 198 215c78 0 134 -41 163 -98l-2 89h70v-427c0 -146 -86 -210 -209 -210zM263 54c88 0 147 64 147 154c0 89 -59 153 -147 153c-87 0 -143 -64 -143 -153c0 -90 56 -154 143 -154z" />
    <glyph glyph-name="Ccircumflex" unicode="&#x108;" horiz-adv-x="726" 
d="M261 751l128 193h9l128 -193h-59l-73 101l-75 -101h-58zM403 -8c-193 0 -349 143 -349 348s156 348 349 348c120 0 212 -45 270 -132l-55 -40c-44 64 -117 106 -215 106c-158 0 -274 -120 -274 -282s116 -283 274 -283c99 0 175 43 223 114l57 -39
c-60 -88 -158 -140 -280 -140z" />
    <glyph glyph-name="ccircumflex" unicode="&#x109;" horiz-adv-x="468" 
d="M122 496l128 193h10l128 -193h-59l-73 101l-75 -101h-59zM263 -8c-122 0 -216 94 -216 215s94 216 216 216c74 0 125 -28 163 -74l-50 -41c-25 33 -62 53 -113 53c-88 0 -143 -66 -143 -154c0 -87 55 -154 143 -154c57 0 93 23 119 54l48 -41c-39 -47 -90 -74 -167 -74z
" />
    <glyph glyph-name="Hcircumflex" unicode="&#x124;" horiz-adv-x="693" 
d="M213 751l128 193h10l128 -193h-59l-73 101l-75 -101h-59zM93 0v680h73v-383h362v383h73v-680h-73v231h-362v-231h-73z" />
    <glyph glyph-name="hcircumflex" unicode="&#x125;" 
d="M118 757l128 193h10l127 -193h-58l-74 102l-74 -102h-59zM74 0v722h70v-389c27 55 80 90 148 90c91 0 154 -63 154 -171v-252h-70v244c0 73 -34 115 -103 115c-77 0 -129 -49 -129 -131v-228h-70z" />
    <glyph glyph-name="Jcircumflex" unicode="&#x134;" horiz-adv-x="482" 
d="M217 751l128 193h9l128 -193h-59l-73 101l-75 -101h-58zM209 -8c-91 0 -145 45 -176 102l59 37c26 -45 61 -74 114 -74c66 0 112 37 112 124v499h73v-501c0 -125 -77 -187 -182 -187z" />
    <glyph glyph-name="jcircumflex" unicode="&#x135;" horiz-adv-x="222" 
d="M-21 496l127 193h10l128 -193h-59l-73 101l-75 -101h-58zM35 -222c-44 0 -75 20 -92 41l37 43c13 -13 27 -24 50 -24c28 0 46 18 46 63v513h70v-512c0 -82 -45 -124 -111 -124z" />
    <glyph glyph-name="Scircumflex" unicode="&#x15c;" horiz-adv-x="530" 
d="M125 751l128 193h9l128 -193h-58l-74 101l-75 -101h-58zM266 -8c-130 0 -201 66 -237 138l60 33c32 -57 79 -107 175 -107c79 0 140 45 140 116c0 69 -42 103 -127 142l-54 25c-97 43 -150 91 -150 186c0 98 77 163 179 163c91 0 146 -42 182 -103l-57 -36
c-26 44 -61 75 -125 75c-67 0 -107 -39 -107 -97c0 -60 31 -87 107 -122l54 -25c113 -50 171 -106 171 -208c0 -112 -89 -180 -211 -180z" />
    <glyph glyph-name="scircumflex" unicode="&#x15d;" horiz-adv-x="410" 
d="M72 496l128 193h10l128 -193h-59l-73 101l-75 -101h-59zM213 -8c-91 0 -147 43 -174 95l48 33c25 -42 63 -70 123 -70c56 0 87 23 87 61c0 45 -35 55 -107 76c-65 18 -125 45 -125 123c0 72 60 113 136 113c65 0 109 -28 138 -71l-44 -37c-20 29 -52 51 -94 51
c-45 0 -72 -21 -72 -53c0 -39 25 -50 98 -71c70 -19 138 -47 138 -127c0 -69 -47 -123 -152 -123z" />
    <glyph glyph-name="Ubreve" unicode="&#x16c;" horiz-adv-x="662" 
d="M331 744c-77 0 -122 50 -132 116l57 10c9 -40 28 -71 75 -71s65 31 74 71l57 -10c-10 -66 -54 -116 -131 -116zM331 -8c-139 0 -244 81 -244 240v448h73v-443c0 -121 65 -180 171 -180c105 0 171 59 171 180v443h73v-448c0 -159 -106 -240 -244 -240z" />
    <glyph glyph-name="Gcircumflex" unicode="&#x11c;" horiz-adv-x="762" 
d="M257 751l128 193h9l128 -193h-58l-74 101l-75 -101h-58zM396 -8c-196 0 -351 144 -351 348s156 348 350 348c116 0 216 -43 276 -137l-57 -41c-47 74 -122 112 -219 112c-159 0 -275 -120 -275 -282s117 -283 276 -283c154 0 239 93 255 199h-241v64h320
c-3 -197 -128 -328 -334 -328z" />
    <glyph glyph-name="gcircumflex" unicode="&#x11d;" horiz-adv-x="551" 
d="M147 496l128 193h10l128 -193h-59l-73 101l-75 -101h-59zM274 -223c-102 0 -170 48 -210 115l53 36c34 -57 82 -90 155 -90c89 0 141 45 141 154v93c-27 -53 -86 -93 -160 -93c-113 0 -199 92 -199 216c0 123 86 215 198 215c78 0 134 -41 163 -98l-2 89h70v-427
c0 -146 -86 -210 -209 -210zM269 54c88 0 147 64 147 154c0 89 -59 153 -147 153c-87 0 -142 -64 -142 -153c0 -90 55 -154 142 -154z" />
    <glyph glyph-name="ubreve" unicode="&#x16d;" horiz-adv-x="507" 
d="M253 489c-77 0 -121 50 -131 116l57 10c9 -39 27 -70 74 -70s66 31 75 70l57 -10c-10 -66 -55 -116 -132 -116zM252 -9c-114 0 -182 71 -182 192v231h70v-228c0 -86 34 -133 113 -133c80 0 114 47 114 133v228h70v-231c0 -121 -72 -192 -185 -192z" />
    <glyph glyph-name="Eth.sc" horiz-adv-x="531" 
d="M75 0v180h-54v59h54v265h142c159 0 265 -101 265 -252s-105 -252 -265 -252h-142zM146 62h66c133 0 197 77 197 190c0 112 -64 190 -197 190h-66v-203h127v-59h-127v-118z" />
    <glyph glyph-name="Lslash.sc" horiz-adv-x="426" 
d="M150 171v-109h234v-62h-305v142l-55 -23v61l55 22v302h71v-273l141 58v-60z" />
    <glyph glyph-name="Scaron.sc" horiz-adv-x="426" 
d="M215 -8c-94 0 -158 50 -186 108l57 32c22 -44 61 -80 128 -80c57 0 98 30 98 76c0 47 -27 70 -91 98l-40 18c-71 30 -116 69 -116 142c0 78 62 126 141 126c70 0 114 -29 145 -76l-53 -36c-21 31 -47 53 -90 53c-45 0 -75 -24 -75 -66c0 -39 22 -59 71 -81l41 -18
c85 -37 137 -78 137 -159c0 -84 -67 -137 -167 -137zM204 562l-128 193h58l74 -102l75 102h58l-128 -193h-9z" />
    <glyph glyph-name="S.sc" horiz-adv-x="426" 
d="M215 -8c-94 0 -158 50 -186 108l57 32c22 -44 61 -80 128 -80c57 0 98 30 98 76c0 47 -27 70 -91 98l-40 18c-71 30 -116 69 -116 142c0 78 62 126 141 126c70 0 114 -29 145 -76l-53 -36c-21 31 -47 53 -90 53c-45 0 -75 -24 -75 -66c0 -39 22 -59 71 -81l41 -18
c85 -37 137 -78 137 -159c0 -84 -67 -137 -167 -137z" />
    <glyph glyph-name="Yacute.sc" horiz-adv-x="513" 
d="M223 0v158l-190 346h79l113 -209c18 -34 33 -82 34 -86c1 3 17 53 34 86l111 209h76l-186 -344v-160h-71zM232 572l68 193h80l-93 -193h-55z" />
    <glyph glyph-name="Y.sc" horiz-adv-x="513" 
d="M223 0v158l-190 346h79l113 -209c18 -34 33 -82 34 -86c1 3 17 53 34 86l111 209h76l-186 -344v-160h-71z" />
    <glyph glyph-name="Thorn.sc" horiz-adv-x="475" 
d="M75 0v504h71v-57h70c136 0 209 -77 209 -192c0 -113 -73 -190 -209 -190h-70v-65h-71zM146 125h67c101 0 140 53 140 130c0 79 -40 131 -140 131h-67v-261z" />
    <glyph glyph-name="Zcaron.sc" horiz-adv-x="464" 
d="M41 0v9l267 433h-231v62h341v-9l-267 -434h262v-61h-372zM233 562l-128 193h58l74 -102l75 102h58l-128 -193h-9z" />
    <glyph glyph-name="Z.sc" horiz-adv-x="464" 
d="M41 0v9l267 433h-231v62h341v-9l-267 -434h262v-61h-372z" />
    <glyph glyph-name="A.sc" horiz-adv-x="513" 
d="M35 0l216 510h10l217 -510h-74l-30 75h-240l-30 -75h-69zM157 129h195l-72 182c-12 28 -24 71 -25 77c-1 -5 -13 -48 -24 -77z" />
    <glyph glyph-name="B.sc" horiz-adv-x="485" 
d="M75 0v504h183c97 0 143 -56 143 -124c0 -49 -20 -85 -65 -101c65 -15 105 -64 105 -133c0 -85 -56 -146 -164 -146h-202zM144 302h115c52 0 73 29 73 71s-23 71 -80 71h-108v-142zM144 60h127c71 0 99 38 99 92c0 55 -31 94 -100 94h-126v-186z" />
    <glyph glyph-name="C.sc" horiz-adv-x="568" 
d="M307 -8c-146 0 -257 109 -257 260s113 260 258 260c96 0 159 -36 205 -102l-55 -38c-33 47 -79 78 -150 78c-109 0 -186 -86 -186 -198s77 -198 185 -198c76 0 129 34 161 83l56 -35c-43 -69 -116 -110 -217 -110z" />
    <glyph glyph-name="D.sc" horiz-adv-x="531" 
d="M75 0v504h137c164 0 269 -101 269 -252s-105 -252 -269 -252h-137zM146 62h61c138 0 202 77 202 190c0 112 -64 190 -202 190h-61v-380z" />
    <glyph glyph-name="E.sc" horiz-adv-x="456" 
d="M75 0v504h319v-62h-248v-206h218v-59h-218v-116h258v-61h-329z" />
    <glyph glyph-name="F.sc" horiz-adv-x="440" 
d="M75 0v504h315v-62h-244v-210h221v-62h-221v-170h-71z" />
    <glyph glyph-name="G.sc" horiz-adv-x="602" 
d="M312 -8c-144 0 -262 107 -262 260c0 152 118 260 261 260c90 0 160 -34 208 -102l-55 -38c-34 51 -84 77 -153 77c-110 0 -189 -85 -189 -197c0 -113 79 -199 190 -199c102 0 163 61 177 135h-157v58h229c2 -148 -94 -254 -249 -254z" />
    <glyph glyph-name="H.sc" horiz-adv-x="542" 
d="M75 0v504h71v-272h250v272h71v-504h-71v170h-250v-170h-71z" />
    <glyph glyph-name="I.sc" horiz-adv-x="226" 
d="M78 0v504h70v-504h-70z" />
    <glyph glyph-name="J.sc" horiz-adv-x="389" 
d="M171 -8c-74 0 -118 40 -141 86l57 34c19 -34 41 -58 82 -58c46 0 76 25 76 85v365h70v-368c0 -98 -62 -144 -144 -144z" />
    <glyph glyph-name="K.sc" horiz-adv-x="495" 
d="M138 194c13 23 38 67 56 91l168 219h81l-182 -234l210 -270h-86l-172 220l-67 -82v-138h-71v504h71v-211c0 -33 -5 -78 -8 -99z" />
    <glyph glyph-name="L.sc" horiz-adv-x="422" 
d="M75 0v504h71v-442h235v-62h-306z" />
    <glyph glyph-name="M.sc" horiz-adv-x="654" 
d="M60 0l56 510h9l172 -271c14 -22 27 -53 29 -58c1 2 16 35 30 58l172 271h9l56 -510h-69l-29 259c-5 45 -5 92 -5 93c-1 -2 -18 -46 -41 -83l-119 -186h-8l-119 187c-24 37 -42 78 -43 82c0 0 1 -45 -4 -92l-29 -260h-67z" />
    <glyph glyph-name="N.sc" horiz-adv-x="551" 
d="M466 -7l-278 306c-25 26 -51 64 -54 69c0 -4 7 -47 7 -84v-284h-66v510h10l275 -303c26 -29 52 -67 55 -71c0 2 -5 47 -5 84v284h66v-511h-10z" />
    <glyph glyph-name="O.sc" horiz-adv-x="628" 
d="M314 -8c-144 0 -265 108 -265 260c0 153 121 260 265 260c145 0 265 -107 265 -260c0 -152 -120 -260 -265 -260zM314 54c113 0 193 84 193 198c0 113 -80 198 -193 198c-112 0 -193 -85 -193 -198c0 -114 81 -198 193 -198z" />
    <glyph glyph-name="P.sc" horiz-adv-x="475" 
d="M75 0v504h137c138 0 213 -78 213 -192c0 -113 -75 -191 -213 -191h-66v-121h-71zM146 182h63c103 0 144 53 144 130c0 79 -42 130 -144 130h-63v-260z" />
    <glyph glyph-name="Q.sc" horiz-adv-x="628" 
d="M347 -6v-110h-66v110c-129 15 -232 118 -232 258c0 153 121 260 265 260c145 0 265 -107 265 -260c0 -140 -102 -243 -232 -258zM281 54v104h66v-104c96 15 160 94 160 198c0 113 -80 198 -193 198c-112 0 -193 -85 -193 -198c0 -104 65 -183 160 -198z" />
    <glyph glyph-name="R.sc" horiz-adv-x="478" 
d="M324 155l107 -155h-80l-92 134c-14 -3 -30 -4 -46 -4h-67v-130h-71v504h138c135 0 212 -75 212 -187c0 -76 -36 -133 -101 -162zM146 191h64c104 0 143 52 143 126c0 73 -39 125 -143 125h-64v-251z" />
    <glyph glyph-name="T.sc" horiz-adv-x="457" 
d="M193 0v442h-156v62h383v-62h-156v-442h-71z" />
    <glyph glyph-name="U.sc" horiz-adv-x="520" 
d="M261 -8c-111 0 -190 64 -190 187v325h71v-322c0 -88 44 -128 118 -128s119 40 119 128v322h70v-325c0 -123 -79 -187 -188 -187z" />
    <glyph glyph-name="V.sc" horiz-adv-x="513" 
d="M252 -6l-218 510h77l120 -287c15 -35 29 -92 29 -92s13 57 28 92l119 287h72l-216 -510h-11z" />
    <glyph glyph-name="W.sc" horiz-adv-x="728" 
d="M206 -6l-173 510h76l92 -278c10 -31 19 -76 21 -82c1 4 10 50 24 82l115 284h9l116 -283c16 -38 26 -83 26 -83s8 46 20 83l92 277h71l-172 -510h-9l-125 303c-13 30 -22 68 -23 71c-1 -4 -11 -42 -23 -71l-127 -303h-10z" />
    <glyph glyph-name="X.sc" horiz-adv-x="510" 
d="M38 0l174 275l-145 229h79l81 -129c16 -28 27 -60 28 -63c1 4 13 36 28 63l79 129h78l-144 -229l176 -275h-80l-106 168c-17 26 -33 62 -34 65c-1 -3 -14 -40 -30 -65l-105 -168h-79z" />
    <glyph glyph-name="Aacute.sc" horiz-adv-x="513" 
d="M35 0l216 510h10l217 -510h-74l-30 75h-240l-30 -75h-69zM157 129h195l-72 182c-12 28 -24 71 -25 77c-1 -5 -13 -48 -24 -77zM227 572l68 193h80l-93 -193h-55z" />
    <glyph glyph-name="Agrave.sc" horiz-adv-x="513" 
d="M35 0l216 510h10l217 -510h-74l-30 75h-240l-30 -75h-69zM157 129h195l-72 182c-12 28 -24 71 -25 77c-1 -5 -13 -48 -24 -77zM230 572l-93 193h80l68 -193h-55z" />
    <glyph glyph-name="Acircumflex.sc" horiz-adv-x="513" 
d="M35 0l216 510h10l217 -510h-74l-30 75h-240l-30 -75h-69zM157 129h195l-72 182c-12 28 -24 71 -25 77c-1 -5 -13 -48 -24 -77zM123 570l128 193h9l128 -193h-58l-74 101l-75 -101h-58z" />
    <glyph glyph-name="Adieresis.sc" horiz-adv-x="513" 
d="M35 0l216 510h10l217 -510h-74l-30 75h-240l-30 -75h-69zM157 129h195l-72 182c-12 28 -24 71 -25 77c-1 -5 -13 -48 -24 -77zM169 590c-24 0 -46 21 -46 46c0 26 22 47 46 47c25 0 47 -21 47 -47c0 -25 -22 -46 -47 -46zM343 590c-24 0 -47 21 -47 46c0 26 23 47 47 47
s46 -21 46 -47c0 -25 -22 -46 -46 -46z" />
    <glyph glyph-name="Atilde.sc" horiz-adv-x="513" 
d="M35 0l216 510h10l217 -510h-74l-30 75h-240l-30 -75h-69zM157 129h195l-72 182c-12 28 -24 71 -25 77c-1 -5 -13 -48 -24 -77zM160 567l-52 4c4 72 38 111 87 111c28 0 46 -12 68 -32c25 -21 33 -28 49 -28c21 0 32 18 36 58l52 -5c-4 -71 -35 -110 -86 -110
c-28 0 -46 14 -68 33c-25 22 -33 28 -49 28c-20 0 -33 -19 -37 -59z" />
    <glyph glyph-name="Aring.sc" horiz-adv-x="513" 
d="M35 0l216 510h10l217 -510h-74l-30 75h-240l-30 -75h-69zM256 557c-59 0 -105 46 -105 101c0 56 46 101 105 101s105 -45 105 -101c0 -55 -46 -101 -105 -101zM157 129h195l-72 182c-12 28 -24 71 -25 77c-1 -5 -13 -48 -24 -77zM256 602c31 0 53 22 53 56
c0 35 -22 56 -53 56s-53 -21 -53 -56c0 -34 22 -56 53 -56z" />
    <glyph glyph-name="Ccedilla.sc" horiz-adv-x="568" 
d="M257 -4c-121 22 -207 123 -207 256c0 151 113 260 258 260c96 0 159 -36 205 -102l-55 -38c-33 47 -79 78 -150 78c-109 0 -186 -86 -186 -198s77 -198 185 -198c76 0 129 34 161 83l56 -35c-43 -69 -116 -110 -217 -110h-2v-45c42 -6 82 -38 82 -91
c0 -56 -47 -88 -96 -88c-52 0 -85 27 -101 59l43 25c12 -20 23 -37 54 -37c24 0 45 15 45 45c0 26 -17 47 -53 47h-22v89z" />
    <glyph glyph-name="Eacute.sc" horiz-adv-x="456" 
d="M75 0v504h319v-62h-248v-206h218v-59h-218v-116h258v-61h-329zM210 572l68 193h80l-93 -193h-55z" />
    <glyph glyph-name="Egrave.sc" horiz-adv-x="456" 
d="M75 0v504h319v-62h-248v-206h218v-59h-218v-116h258v-61h-329zM213 572l-93 193h80l68 -193h-55z" />
    <glyph glyph-name="Ecircumflex.sc" horiz-adv-x="456" 
d="M75 0v504h319v-62h-248v-206h218v-59h-218v-116h258v-61h-329zM104 570l128 193h9l128 -193h-58l-74 101l-75 -101h-58z" />
    <glyph glyph-name="Edieresis.sc" horiz-adv-x="456" 
d="M75 0v504h319v-62h-248v-206h218v-59h-218v-116h258v-61h-329zM324 590c-24 0 -47 21 -47 46c0 26 23 47 47 47s46 -21 46 -47c0 -25 -22 -46 -46 -46zM150 590c-24 0 -46 21 -46 46c0 26 22 47 46 47c25 0 47 -21 47 -47c0 -25 -22 -46 -47 -46z" />
    <glyph glyph-name="Iacute.sc" horiz-adv-x="226" 
d="M78 0v504h70v-504h-70zM80 572l68 193h80l-93 -193h-55z" />
    <glyph glyph-name="Igrave.sc" horiz-adv-x="226" 
d="M78 0v504h70v-504h-70zM86 572l-93 193h80l68 -193h-55z" />
    <glyph glyph-name="Icircumflex.sc" horiz-adv-x="226" 
d="M78 0v504h70v-504h-70zM-22 570l128 193h9l128 -193h-58l-74 101l-75 -101h-58z" />
    <glyph glyph-name="Idieresis.sc" horiz-adv-x="226" 
d="M78 0v504h70v-504h-70zM198 590c-24 0 -47 21 -47 46c0 26 23 47 47 47s46 -21 46 -47c0 -25 -22 -46 -46 -46zM24 590c-24 0 -46 21 -46 46c0 26 22 47 46 47c25 0 47 -21 47 -47c0 -25 -22 -46 -47 -46z" />
    <glyph glyph-name="Ntilde.sc" horiz-adv-x="551" 
d="M466 -7l-278 306c-25 26 -51 64 -54 69c0 -4 7 -47 7 -84v-284h-66v510h10l275 -303c26 -29 52 -67 55 -71c0 2 -5 47 -5 84v284h66v-511h-10zM180 567l-52 4c4 72 38 111 87 111c28 0 46 -12 68 -32c25 -21 33 -28 49 -28c21 0 32 18 36 58l52 -5
c-4 -71 -35 -110 -86 -110c-28 0 -46 14 -68 33c-25 22 -33 28 -49 28c-20 0 -33 -19 -37 -59z" />
    <glyph glyph-name="Oacute.sc" horiz-adv-x="628" 
d="M314 -8c-144 0 -265 108 -265 260c0 153 121 260 265 260c145 0 265 -107 265 -260c0 -152 -120 -260 -265 -260zM314 54c113 0 193 84 193 198c0 113 -80 198 -193 198c-112 0 -193 -85 -193 -198c0 -114 81 -198 193 -198zM285 572l68 193h80l-93 -193h-55z" />
    <glyph glyph-name="Ograve.sc" horiz-adv-x="628" 
d="M314 -8c-144 0 -265 108 -265 260c0 153 121 260 265 260c145 0 265 -107 265 -260c0 -152 -120 -260 -265 -260zM314 54c113 0 193 84 193 198c0 113 -80 198 -193 198c-112 0 -193 -85 -193 -198c0 -114 81 -198 193 -198zM288 572l-93 193h80l68 -193h-55z" />
    <glyph glyph-name="Ocircumflex.sc" horiz-adv-x="628" 
d="M314 -8c-144 0 -265 108 -265 260c0 153 121 260 265 260c145 0 265 -107 265 -260c0 -152 -120 -260 -265 -260zM314 54c113 0 193 84 193 198c0 113 -80 198 -193 198c-112 0 -193 -85 -193 -198c0 -114 81 -198 193 -198zM181 570l128 193h9l128 -193h-58l-74 101
l-75 -101h-58z" />
    <glyph glyph-name="Odieresis.sc" horiz-adv-x="628" 
d="M314 -8c-144 0 -265 108 -265 260c0 153 121 260 265 260c145 0 265 -107 265 -260c0 -152 -120 -260 -265 -260zM314 54c113 0 193 84 193 198c0 113 -80 198 -193 198c-112 0 -193 -85 -193 -198c0 -114 81 -198 193 -198zM401 590c-24 0 -47 21 -47 46
c0 26 23 47 47 47s46 -21 46 -47c0 -25 -22 -46 -46 -46zM227 590c-24 0 -46 21 -46 46c0 26 22 47 46 47c25 0 47 -21 47 -47c0 -25 -22 -46 -47 -46z" />
    <glyph glyph-name="Otilde.sc" horiz-adv-x="628" 
d="M314 -8c-144 0 -265 108 -265 260c0 153 121 260 265 260c145 0 265 -107 265 -260c0 -152 -120 -260 -265 -260zM314 54c113 0 193 84 193 198c0 113 -80 198 -193 198c-112 0 -193 -85 -193 -198c0 -114 81 -198 193 -198zM220 567l-52 4c4 72 38 111 87 111
c28 0 46 -12 68 -32c25 -21 33 -28 49 -28c21 0 32 18 36 58l52 -5c-4 -71 -35 -110 -86 -110c-28 0 -46 14 -68 33c-25 22 -33 28 -49 28c-20 0 -33 -19 -37 -59z" />
    <glyph glyph-name="Uacute.sc" horiz-adv-x="520" 
d="M261 -8c-111 0 -190 64 -190 187v325h71v-322c0 -88 44 -128 118 -128s119 40 119 128v322h70v-325c0 -123 -79 -187 -188 -187zM233 572l68 193h80l-93 -193h-55z" />
    <glyph glyph-name="Ugrave.sc" horiz-adv-x="520" 
d="M261 -8c-111 0 -190 64 -190 187v325h71v-322c0 -88 44 -128 118 -128s119 40 119 128v322h70v-325c0 -123 -79 -187 -188 -187zM235 572l-93 193h80l68 -193h-55z" />
    <glyph glyph-name="Ucircumflex.sc" horiz-adv-x="520" 
d="M261 -8c-111 0 -190 64 -190 187v325h71v-322c0 -88 44 -128 118 -128s119 40 119 128v322h70v-325c0 -123 -79 -187 -188 -187zM127 570l128 193h9l128 -193h-61l-71 99l-72 -99h-61z" />
    <glyph glyph-name="Udieresis.sc" horiz-adv-x="520" 
d="M261 -8c-111 0 -190 64 -190 187v325h71v-322c0 -88 44 -128 118 -128s119 40 119 128v322h70v-325c0 -123 -79 -187 -188 -187zM347 590c-24 0 -47 21 -47 46c0 26 23 47 47 47s46 -21 46 -47c0 -25 -22 -46 -46 -46zM173 590c-24 0 -46 21 -46 46c0 26 22 47 46 47
c25 0 47 -21 47 -47c0 -25 -22 -46 -47 -46z" />
    <glyph glyph-name="AE.sc" horiz-adv-x="741" 
d="M28 0l342 504h309v-62h-249v-206h218v-59h-218v-116h259v-61h-330v78h-205l-52 -78h-74zM192 134h167v184c0 36 6 84 7 89c-2 -4 -24 -50 -44 -79z" />
    <glyph glyph-name="OE.sc" horiz-adv-x="760" 
d="M319 0c-163 0 -269 101 -269 251c0 151 105 253 269 253h378v-62h-248v-206h218v-59h-218v-116h259v-61h-389zM324 62h54v380h-54c-138 0 -202 -77 -202 -191c0 -112 64 -189 202 -189z" />
    <glyph glyph-name="Amacron.sc" horiz-adv-x="513" 
d="M35 0l216 510h10l217 -510h-74l-30 75h-240l-30 -75h-69zM157 129h195l-72 182c-12 28 -24 71 -25 77c-1 -5 -13 -48 -24 -77zM151 592v55h210v-55h-210z" />
    <glyph glyph-name="Aogonek.sc" horiz-adv-x="513" 
d="M473 11l-42 -70c-21 -34 -31 -53 -31 -83c0 -28 18 -41 39 -41c26 0 40 17 51 35l44 -25c-17 -33 -47 -59 -98 -59c-49 0 -93 29 -93 88c0 41 20 73 41 101l24 33l-34 85h-240l-30 -75h-69l216 510h10zM157 129h195l-72 182c-12 28 -24 71 -25 77c-1 -5 -13 -48 -24 -77z
" />
    <glyph glyph-name="Ccaron.sc" horiz-adv-x="568" 
d="M297 562l-128 193h61l71 -99l72 99h61l-128 -193h-9zM307 -8c-146 0 -257 109 -257 260s113 260 258 260c96 0 159 -36 205 -102l-55 -38c-33 47 -79 78 -150 78c-109 0 -186 -86 -186 -198s77 -198 185 -198c76 0 129 34 161 83l56 -35c-43 -69 -116 -110 -217 -110z
" />
    <glyph glyph-name="Cacute.sc" horiz-adv-x="568" 
d="M275 572l68 193h80l-93 -193h-55zM307 -8c-146 0 -257 109 -257 260s113 260 258 260c96 0 159 -36 205 -102l-55 -38c-33 47 -79 78 -150 78c-109 0 -186 -86 -186 -198s77 -198 185 -198c76 0 129 34 161 83l56 -35c-43 -69 -116 -110 -217 -110z" />
    <glyph glyph-name="Zacute.sc" horiz-adv-x="465" 
d="M217 572l68 193h80l-93 -193h-55zM41 0v9l267 433h-231v62h341v-9l-267 -434h262v-61h-372z" />
    <glyph glyph-name="Dcaron.sc" horiz-adv-x="531" 
d="M241 562l-128 193h61l71 -99l72 99h61l-128 -193h-9zM75 0v504h137c164 0 269 -101 269 -252s-105 -252 -269 -252h-137zM146 62h61c138 0 202 77 202 190c0 112 -64 190 -202 190h-61v-380z" />
    <glyph glyph-name="Emacron.sc" horiz-adv-x="456" 
d="M131 592v55h210v-55h-210zM75 0v504h319v-62h-248v-206h218v-59h-218v-116h258v-61h-329z" />
    <glyph glyph-name="Edotaccent.sc" horiz-adv-x="456" 
d="M241 590c-24 0 -47 19 -47 46s23 47 47 47s47 -20 47 -47s-23 -46 -47 -46zM75 0v504h319v-62h-248v-206h218v-59h-218v-116h258v-61h-329z" />
    <glyph glyph-name="Ecaron.sc" horiz-adv-x="456" 
d="M237 562l-128 193h61l71 -99l72 99h61l-128 -193h-9zM75 0v504h319v-62h-248v-206h218v-59h-218v-116h258v-61h-329z" />
    <glyph glyph-name="Eogonek.sc" horiz-adv-x="456" 
d="M294 0h-219v504h319v-62h-248v-206h218v-59h-218v-116h258v-61h-59l-36 -59c-21 -34 -31 -53 -31 -83c0 -28 18 -41 39 -41c26 0 40 17 51 35l44 -25c-17 -33 -47 -59 -98 -59c-49 0 -93 29 -93 88c0 41 20 73 41 101z" />
    <glyph glyph-name="Gcommaaccent.sc" horiz-adv-x="602" 
d="M312 -8c-144 0 -262 107 -262 260c0 152 118 260 261 260c90 0 160 -34 208 -102l-55 -38c-34 51 -84 77 -153 77c-110 0 -189 -85 -189 -197c0 -113 79 -199 190 -199c102 0 163 61 177 135h-157v58h229c2 -148 -94 -254 -249 -254zM255 -256l31 99c-16 6 -31 24 -31 47
c0 29 24 51 51 51c26 0 51 -22 51 -51c0 -13 -4 -26 -12 -39l-52 -107h-38z" />
    <glyph glyph-name="Iogonek.sc" horiz-adv-x="226" 
d="M78 -15v519h70v-491l-44 -72c-21 -34 -31 -53 -31 -83c0 -28 18 -41 39 -41c26 0 40 17 51 35l44 -25c-17 -33 -47 -59 -98 -59c-49 0 -93 29 -93 88c0 41 20 73 41 101z" />
    <glyph glyph-name="Lcommaaccent.sc" horiz-adv-x="421" 
d="M75 0v504h71v-442h235v-62h-306zM174 -256l31 99c-16 6 -31 24 -31 47c0 29 24 51 51 51c26 0 51 -22 51 -51c0 -13 -4 -26 -12 -39l-52 -107h-38z" />
    <glyph glyph-name="Lcaron.sc" horiz-adv-x="421" 
d="M264 307l34 104c-18 6 -33 25 -33 48c0 30 25 53 52 53c28 0 53 -23 53 -52c0 -14 -6 -26 -13 -41l-56 -112h-37zM75 0v504h71v-442h235v-62h-306z" />
    <glyph glyph-name="Lacute.sc" horiz-adv-x="421" 
d="M88 572l68 193h80l-93 -193h-55zM75 0v504h71v-442h235v-62h-306z" />
    <glyph glyph-name="Ncommaaccent.sc" horiz-adv-x="551" 
d="M466 -7l-278 306c-25 26 -51 64 -54 69c0 -4 7 -47 7 -84v-284h-66v510h10l275 -303c26 -29 52 -67 55 -71c0 2 -5 47 -5 84v284h66v-511h-10zM233 -256l31 99c-16 6 -31 24 -31 47c0 29 24 51 51 51c26 0 51 -22 51 -51c0 -13 -4 -26 -12 -39l-52 -107h-38z" />
    <glyph glyph-name="Abreve.sc" horiz-adv-x="513" 
d="M35 0l216 510h10l217 -510h-74l-30 75h-240l-30 -75h-69zM157 129h195l-72 182c-12 28 -24 71 -25 77c-1 -5 -13 -48 -24 -77zM256 563c-77 0 -121 50 -131 116l56 10c9 -40 28 -71 75 -71s66 31 75 71l56 -10c-10 -66 -54 -116 -131 -116z" />
    <glyph glyph-name="Nacute.sc" horiz-adv-x="551" 
d="M466 -7l-278 306c-25 26 -51 64 -54 69c0 -4 7 -47 7 -84v-284h-66v510h10l275 -303c26 -29 52 -67 55 -71c0 2 -5 47 -5 84v284h66v-511h-10zM251 572l68 193h80l-93 -193h-55z" />
    <glyph glyph-name="Ncaron.sc" horiz-adv-x="551" 
d="M466 -7l-278 306c-25 26 -51 64 -54 69c0 -4 7 -47 7 -84v-284h-66v510h10l275 -303c26 -29 52 -67 55 -71c0 2 -5 47 -5 84v284h66v-511h-10zM273 562l-128 193h61l71 -99l72 99h61l-128 -193h-9z" />
    <glyph glyph-name="Ohungarumlaut.sc" horiz-adv-x="628" 
d="M359 572l68 193h76l-89 -193h-55zM221 572l67 193h76l-88 -193h-55zM314 -8c-144 0 -265 108 -265 260c0 153 121 260 265 260c145 0 265 -107 265 -260c0 -152 -120 -260 -265 -260zM314 54c113 0 193 84 193 198c0 113 -80 198 -193 198c-112 0 -193 -85 -193 -198
c0 -114 81 -198 193 -198z" />
    <glyph glyph-name="Omacron.sc" horiz-adv-x="628" 
d="M209 592v55h210v-55h-210zM314 -8c-144 0 -265 108 -265 260c0 153 121 260 265 260c145 0 265 -107 265 -260c0 -152 -120 -260 -265 -260zM314 54c113 0 193 84 193 198c0 113 -80 198 -193 198c-112 0 -193 -85 -193 -198c0 -114 81 -198 193 -198z" />
    <glyph glyph-name="Racute.sc" horiz-adv-x="479" 
d="M201 572l68 193h80l-93 -193h-55zM324 155l107 -155h-80l-92 134c-14 -3 -30 -4 -46 -4h-67v-130h-71v504h138c135 0 212 -75 212 -187c0 -76 -36 -133 -101 -162zM146 191h64c104 0 143 52 143 126c0 73 -39 125 -143 125h-64v-251z" />
    <glyph glyph-name="Rcaron.sc" horiz-adv-x="479" 
d="M230 562l-128 193h61l71 -99l72 99h61l-128 -193h-9zM324 155l107 -155h-80l-92 134c-14 -3 -30 -4 -46 -4h-67v-130h-71v504h138c135 0 212 -75 212 -187c0 -76 -36 -133 -101 -162zM146 191h64c104 0 143 52 143 126c0 73 -39 125 -143 125h-64v-251z" />
    <glyph glyph-name="Rcommaaccent.sc" horiz-adv-x="479" 
d="M324 155l107 -155h-80l-92 134c-14 -3 -30 -4 -46 -4h-67v-130h-71v504h138c135 0 212 -75 212 -187c0 -76 -36 -133 -101 -162zM192 -256l31 99c-16 6 -31 24 -31 47c0 29 24 51 51 51c26 0 51 -22 51 -51c0 -13 -4 -26 -12 -39l-52 -107h-38zM146 191h64
c104 0 143 52 143 126c0 73 -39 125 -143 125h-64v-251z" />
    <glyph glyph-name="Sacute.sc" horiz-adv-x="426" 
d="M181 572l68 193h80l-93 -193h-55zM215 -8c-94 0 -158 50 -186 108l57 32c22 -44 61 -80 128 -80c57 0 98 30 98 76c0 47 -27 70 -91 98l-40 18c-71 30 -116 69 -116 142c0 78 62 126 141 126c70 0 114 -29 145 -76l-53 -36c-21 31 -47 53 -90 53c-45 0 -75 -24 -75 -66
c0 -39 22 -59 71 -81l41 -18c85 -37 137 -78 137 -159c0 -84 -67 -137 -167 -137z" />
    <glyph glyph-name="Tcaron.sc" horiz-adv-x="457" 
d="M224 562l-128 193h61l71 -99l72 99h61l-128 -193h-9zM193 0v442h-156v62h383v-62h-156v-442h-71z" />
    <glyph glyph-name="Umacron.sc" horiz-adv-x="521" 
d="M155 592v55h210v-55h-210zM261 -8c-111 0 -190 64 -190 187v325h71v-322c0 -88 44 -128 118 -128s119 40 119 128v322h70v-325c0 -123 -79 -187 -188 -187z" />
    <glyph glyph-name="Uring.sc" horiz-adv-x="521" 
d="M260 558c-59 0 -105 45 -105 100c0 56 46 101 105 101s105 -45 105 -101c0 -55 -46 -100 -105 -100zM261 -8c-111 0 -190 64 -190 187v325h71v-322c0 -88 44 -128 118 -128s119 40 119 128v322h70v-325c0 -123 -79 -187 -188 -187zM260 603c31 0 52 22 52 55
c0 34 -21 55 -52 55s-52 -21 -52 -55c0 -33 21 -55 52 -55z" />
    <glyph glyph-name="Uhungarumlaut.sc" horiz-adv-x="521" 
d="M298 572l68 193h76l-89 -193h-55zM160 572l67 193h76l-88 -193h-55zM261 -8c-111 0 -190 64 -190 187v325h71v-322c0 -88 44 -128 118 -128s119 40 119 128v322h70v-325c0 -123 -79 -187 -188 -187z" />
    <glyph glyph-name="Uogonek.sc" horiz-adv-x="521" 
d="M242 -7c-101 7 -171 70 -171 186v325h71v-322c0 -88 44 -128 118 -128s119 40 119 128v322h70v-325c0 -110 -63 -173 -155 -185l-32 -53c-21 -34 -31 -53 -31 -83c0 -28 18 -41 39 -41c26 0 40 17 51 35l44 -25c-17 -33 -47 -59 -98 -59c-49 0 -93 29 -93 88
c0 41 20 73 41 101z" />
    <glyph glyph-name="Kcommaaccent.sc" horiz-adv-x="496" 
d="M138 194c13 23 38 67 56 91l168 219h81l-182 -234l210 -270h-86l-172 220l-67 -82v-138h-71v504h71v-211c0 -33 -5 -78 -8 -99zM203 -256l31 99c-16 6 -31 24 -31 47c0 29 24 51 51 51c26 0 51 -22 51 -51c0 -13 -4 -26 -12 -39l-52 -107h-38z" />
    <glyph glyph-name="Zdotaccent.sc" horiz-adv-x="465" 
d="M244 590c-24 0 -47 19 -47 46s23 47 47 47s47 -20 47 -47s-23 -46 -47 -46zM41 0v9l267 433h-231v62h341v-9l-267 -434h262v-61h-372z" />
    <glyph glyph-name="Idotaccent.sc" horiz-adv-x="226" 
d="M113 590c-24 0 -47 19 -47 46s23 47 47 47s47 -20 47 -47s-23 -46 -47 -46zM78 0v504h70v-504h-70z" />
    <glyph glyph-name="Gbreve.sc" horiz-adv-x="602" 
d="M304 563c-77 0 -121 50 -131 116l56 10c9 -40 28 -71 75 -71s66 31 75 71l56 -10c-10 -66 -54 -116 -131 -116zM312 -8c-144 0 -262 107 -262 260c0 152 118 260 261 260c90 0 160 -34 208 -102l-55 -38c-34 51 -84 77 -153 77c-110 0 -189 -85 -189 -197
c0 -113 79 -199 190 -199c102 0 163 61 177 135h-157v58h229c2 -148 -94 -254 -249 -254z" />
    <glyph glyph-name="Dcroat.sc" horiz-adv-x="531" 
d="M75 0v180h-54v59h54v265h142c159 0 265 -101 265 -252s-105 -252 -265 -252h-142zM146 62h66c133 0 197 77 197 190c0 112 -64 190 -197 190h-66v-203h127v-59h-127v-118z" />
    <glyph glyph-name="Scommaaccent.sc" horiz-adv-x="426" 
d="M215 -8c-94 0 -158 50 -186 108l57 32c22 -44 61 -80 128 -80c57 0 98 30 98 76c0 47 -27 70 -91 98l-40 18c-71 30 -116 69 -116 142c0 78 62 126 141 126c70 0 114 -29 145 -76l-53 -36c-21 31 -47 53 -90 53c-45 0 -75 -24 -75 -66c0 -39 22 -59 71 -81l41 -18
c85 -37 137 -78 137 -159c0 -84 -67 -137 -167 -137zM161 -256l31 99c-16 6 -31 24 -31 47c0 29 24 51 51 51c26 0 51 -22 51 -51c0 -13 -4 -26 -12 -39l-52 -107h-38z" />
    <glyph glyph-name="Tcommaaccent.sc" horiz-adv-x="457" 
d="M193 0v442h-156v62h383v-62h-156v-442h-71zM178 -256l31 99c-16 6 -31 24 -31 47c0 29 24 51 51 51c26 0 51 -22 51 -51c0 -13 -4 -26 -12 -39l-52 -107h-38z" />
    <glyph glyph-name="Ccircumflex.sc" horiz-adv-x="568" 
d="M169 570l128 193h9l128 -193h-61l-71 99l-72 -99h-61zM307 -8c-146 0 -257 109 -257 260s113 260 258 260c96 0 159 -36 205 -102l-55 -38c-33 47 -79 78 -150 78c-109 0 -186 -86 -186 -198s77 -198 185 -198c76 0 129 34 161 83l56 -35c-43 -69 -116 -110 -217 -110z
" />
    <glyph glyph-name="Gcircumflex.sc" horiz-adv-x="602" 
d="M172 570l128 193h9l128 -193h-61l-71 99l-72 -99h-61zM312 -8c-144 0 -262 107 -262 260c0 152 118 260 261 260c90 0 160 -34 208 -102l-55 -38c-34 51 -84 77 -153 77c-110 0 -189 -85 -189 -197c0 -113 79 -199 190 -199c102 0 163 61 177 135h-157v58h229
c2 -148 -94 -254 -249 -254z" />
    <glyph glyph-name="Hcircumflex.sc" horiz-adv-x="542" 
d="M138 570l128 193h9l128 -193h-61l-71 99l-72 -99h-61zM75 0v504h71v-272h250v272h71v-504h-71v170h-250v-170h-71z" />
    <glyph glyph-name="Jcircumflex.sc" horiz-adv-x="389" 
d="M144 570l128 193h9l128 -193h-61l-71 99l-72 -99h-61zM171 -8c-74 0 -118 40 -141 86l57 34c19 -34 41 -58 82 -58c46 0 76 25 76 85v365h70v-368c0 -98 -62 -144 -144 -144z" />
    <glyph glyph-name="Scircumflex.sc" horiz-adv-x="426" 
d="M76 570l128 193h9l128 -193h-61l-71 99l-72 -99h-61zM215 -8c-94 0 -158 50 -186 108l57 32c22 -44 61 -80 128 -80c57 0 98 30 98 76c0 47 -27 70 -91 98l-40 18c-71 30 -116 69 -116 142c0 78 62 126 141 126c70 0 114 -29 145 -76l-53 -36c-21 31 -47 53 -90 53
c-45 0 -75 -24 -75 -66c0 -39 22 -59 71 -81l41 -18c85 -37 137 -78 137 -159c0 -84 -67 -137 -167 -137z" />
    <glyph glyph-name="Ubreve.sc" horiz-adv-x="521" 
d="M260 563c-77 0 -121 50 -131 116l56 10c9 -40 28 -71 75 -71s66 31 75 71l56 -10c-10 -66 -54 -116 -131 -116zM261 -8c-111 0 -190 64 -190 187v325h71v-322c0 -88 44 -128 118 -128s119 40 119 128v322h70v-325c0 -123 -79 -187 -188 -187z" />
    <glyph glyph-name="Oslash.sc" horiz-adv-x="628" 
d="M580 472l-58 -56c36 -43 57 -100 57 -164c0 -152 -120 -260 -265 -260c-63 0 -122 21 -168 57l-59 -57l-38 39l58 56c-36 44 -58 101 -58 165c0 153 121 260 265 260c64 0 124 -21 170 -58l58 57zM154 133l284 276c-33 27 -75 42 -124 42c-113 0 -194 -85 -194 -199
c0 -46 12 -86 34 -119zM474 369l-283 -276c33 -25 75 -40 123 -40c114 0 194 84 194 199c0 45 -12 85 -34 117z" />
    <glyph glyph-name="Ydieresis.sc" horiz-adv-x="513" 
d="M223 0v158l-190 346h79l113 -209c18 -34 33 -82 34 -86c1 3 17 53 34 86l111 209h76l-186 -344v-160h-71zM171 590c-24 0 -46 21 -46 46c0 26 22 47 46 47c25 0 47 -21 47 -47c0 -25 -22 -46 -47 -46zM345 590c-24 0 -47 21 -47 46c0 26 23 47 47 47s46 -21 46 -47
c0 -25 -22 -46 -46 -46z" />
    <glyph glyph-name="Eth" unicode="&#xd0;" horiz-adv-x="680" 
d="M93 0v242h-79v64h79v374h173c221 0 360 -139 360 -340s-138 -340 -360 -340h-173zM166 65h95c194 0 289 113 289 275s-95 275 -289 275h-95v-309h182v-64h-182v-177z" />
    <glyph glyph-name="eth" unicode="&#xf0;" horiz-adv-x="533" 
d="M277 575l-68 -65l-36 35l70 68c-28 31 -56 58 -83 82l39 43c28 -22 59 -49 89 -81l67 66l37 -36l-69 -67c86 -101 163 -239 163 -402c0 -130 -95 -226 -218 -226c-124 0 -221 94 -221 215c0 122 98 216 213 216c58 0 103 -24 135 -65c-21 79 -67 154 -118 217zM268 52
c88 0 146 68 146 159c0 87 -58 151 -146 151c-89 0 -149 -66 -149 -155c0 -88 60 -155 149 -155z" />
    <glyph glyph-name="summation" unicode="&#x2211;" horiz-adv-x="562" 
d="M164 616l179 -257v-10l-196 -285h359v-64h-471v11l232 340l-220 318v11h446v-64h-329z" />
    <glyph glyph-name="Sigma" unicode="&#x3a3;" horiz-adv-x="562" 
d="M164 616l179 -257v-10l-196 -285h359v-64h-471v11l232 340l-220 318v11h446v-64h-329z" />
    <glyph glyph-name="Scedilla" unicode="&#x15e;" horiz-adv-x="530" 
d="M270 -232c-52 0 -86 27 -102 59l41 25c10 -21 25 -39 57 -39c25 0 47 16 47 47c0 27 -18 48 -55 48h-22v85c-111 9 -175 70 -207 137l60 33c32 -57 79 -107 175 -107c79 0 140 45 140 116c0 69 -42 103 -127 142l-54 25c-97 43 -150 91 -150 186c0 98 77 163 179 163
c91 0 146 -42 182 -103l-57 -36c-26 44 -61 75 -125 75c-67 0 -107 -39 -107 -97c0 -60 31 -87 107 -122l54 -25c113 -50 171 -106 171 -208c0 -107 -81 -174 -194 -180v-45c43 -6 83 -37 83 -91c0 -56 -47 -88 -96 -88z" />
    <glyph glyph-name="Scedilla.sc" horiz-adv-x="426" 
d="M226 -232c-52 0 -85 27 -101 59l43 25c12 -20 23 -37 54 -37c24 0 45 15 45 45c0 26 -17 47 -53 47h-22v86c-82 7 -138 54 -163 107l57 32c22 -44 61 -80 128 -80c57 0 98 30 98 76c0 47 -27 70 -91 98l-40 18c-71 30 -116 69 -116 142c0 78 62 126 141 126
c70 0 114 -29 145 -76l-53 -36c-21 31 -47 53 -90 53c-45 0 -75 -24 -75 -66c0 -39 22 -59 71 -81l41 -18c85 -37 137 -78 137 -159c0 -77 -56 -128 -142 -136v-46c42 -6 82 -38 82 -91c0 -56 -47 -88 -96 -88z" />
    <glyph glyph-name="scedilla" unicode="&#x15f;" horiz-adv-x="410" 
d="M216 -232c-52 0 -86 27 -102 59l41 25c10 -21 25 -39 57 -39c25 0 47 16 47 47c0 27 -18 48 -55 48h-22v86c-73 8 -119 47 -143 93l48 33c25 -42 63 -70 123 -70c56 0 87 23 87 61c0 45 -35 55 -107 76c-65 18 -125 45 -125 123c0 72 60 113 136 113
c65 0 109 -28 138 -71l-44 -37c-20 29 -52 51 -94 51c-45 0 -72 -21 -72 -53c0 -39 25 -50 98 -71c70 -19 138 -47 138 -127c0 -66 -44 -117 -136 -122v-46c43 -6 83 -37 83 -91c0 -56 -47 -88 -96 -88z" />
    <glyph glyph-name="uni021A" unicode="&#x21a;" horiz-adv-x="556" 
d="M242 0v616h-209v64h490v-64h-208v-616h-73zM229 -256l32 99c-17 6 -31 24 -31 47c0 29 24 51 50 51c27 0 52 -22 52 -51c0 -13 -5 -26 -12 -39l-52 -107h-39z" />
    <glyph glyph-name="uni021B" unicode="&#x21b;" horiz-adv-x="335" 
d="M210 -9c-63 0 -112 36 -112 134v230h-64v59h64v216h70v-216h115v-59h-115v-231c0 -54 19 -72 48 -72c32 0 46 13 59 26l34 -47c-20 -21 -48 -40 -99 -40zM132 -256l32 99c-17 6 -32 24 -32 47c0 29 25 51 51 51c27 0 52 -22 52 -51c0 -13 -5 -26 -12 -39l-53 -107h-38z
" />
    <glyph glyph-name="uni03BC" unicode="&#x3bc;" horiz-adv-x="540" 
d="M381 78v5c-23 -52 -73 -90 -134 -90c-44 0 -81 9 -111 53c7 -33 9 -48 9 -95v-163h-70v626h70v-243c0 -73 30 -116 104 -116c71 0 127 47 127 136v223h70v-301c0 -43 18 -57 44 -57h18v-57c-6 -1 -29 -2 -36 -2c-57 0 -91 35 -91 81z" />
    <glyph glyph-name="uni037E" unicode="&#x37e;" horiz-adv-x="212" 
d="M106 217c-28 0 -54 24 -54 55s26 54 54 54c29 0 54 -23 54 -54s-25 -55 -54 -55zM49 -112l39 111c-21 7 -36 25 -36 49c0 30 26 54 54 54c29 0 54 -24 54 -54c0 -14 -6 -29 -12 -40l-60 -120h-39z" />
    <glyph glyph-name="tonos" unicode="&#x384;" horiz-adv-x="500" 
d="M221 498l64 182h81l-90 -182h-55z" />
    <glyph glyph-name="dieresistonos" unicode="&#x385;" horiz-adv-x="500" 
d="M168 516c-22 0 -42 18 -42 41s20 41 42 41s41 -18 41 -41s-19 -41 -41 -41zM374 516c-22 0 -42 18 -42 41s20 41 42 41s41 -18 41 -41s-19 -41 -41 -41zM235 520l54 160h71l-80 -160h-45z" />
    <glyph glyph-name="Alphatonos" unicode="&#x386;" horiz-adv-x="656" 
d="M37 0l282 687h12l288 -687h-76l-46 114h-344l-45 -114h-71zM178 176h293l-120 302c-12 29 -25 73 -26 80c-2 -5 -15 -50 -27 -80zM11 498l64 182h81l-90 -182h-55z" />
    <glyph glyph-name="Alpha" unicode="&#x391;" horiz-adv-x="656" 
d="M37 0l282 687h12l288 -687h-76l-46 114h-344l-45 -114h-71zM178 176h293l-120 302c-12 29 -25 73 -26 80c-2 -5 -15 -50 -27 -80z" />
    <glyph glyph-name="anoteleia" unicode="&#x387;" horiz-adv-x="202" 
d="M101 189c-28 0 -54 24 -54 55s26 54 54 54c29 0 54 -23 54 -54s-25 -55 -54 -55z" />
    <glyph glyph-name="Epsilontonos" unicode="&#x388;" horiz-adv-x="580" 
d="M93 0v680h414v-64h-342v-319h305v-63h-305v-170h356v-64h-428zM-111 498l64 182h81l-90 -182h-55z" />
    <glyph glyph-name="Epsilon" unicode="&#x395;" horiz-adv-x="580" 
d="M93 0v680h414v-64h-342v-319h305v-63h-305v-170h356v-64h-428z" />
    <glyph glyph-name="Etatonos" unicode="&#x389;" horiz-adv-x="694" 
d="M93 0v680h72v-383h364v383h72v-680h-72v231h-364v-231h-72zM-111 498l64 182h81l-90 -182h-55z" />
    <glyph glyph-name="Eta" unicode="&#x397;" horiz-adv-x="694" 
d="M93 0v680h72v-383h364v383h72v-680h-72v231h-364v-231h-72z" />
    <glyph glyph-name="Iotatonos" unicode="&#x38a;" horiz-adv-x="265" 
d="M96 0v680h73v-680h-73zM-111 498l64 182h81l-90 -182h-55z" />
    <glyph glyph-name="Iota" unicode="&#x399;" horiz-adv-x="265" 
d="M96 0v680h73v-680h-73z" />
    <glyph glyph-name="Omicrontonos" unicode="&#x38c;" horiz-adv-x="807" 
d="M403 -8c-193 0 -349 143 -349 348s156 348 349 348c194 0 350 -143 350 -348s-156 -348 -350 -348zM403 57c159 0 275 121 275 283s-116 283 -275 283c-158 0 -274 -121 -274 -283s116 -283 274 -283zM-68 498l64 182h81l-90 -182h-55z" />
    <glyph glyph-name="Omicron" unicode="&#x39f;" horiz-adv-x="807" 
d="M403 -8c-193 0 -349 143 -349 348s156 348 349 348c194 0 350 -143 350 -348s-156 -348 -350 -348zM403 57c159 0 275 121 275 283s-116 283 -275 283c-158 0 -274 -121 -274 -283s116 -283 274 -283z" />
    <glyph glyph-name="Upsilontonos" unicode="&#x38e;" horiz-adv-x="656" 
d="M294 0v213l-257 467h81l185 -338c14 -25 27 -65 29 -69c1 4 15 43 29 69l184 338h75l-252 -464v-216h-74zM-125 498l64 182h81l-90 -182h-55z" />
    <glyph glyph-name="Upsilon" unicode="&#x3a5;" horiz-adv-x="656" 
d="M294 0v213l-257 467h81l185 -338c15 -26 29 -69 29 -69s15 42 29 69l184 338h75l-252 -464v-216h-74z" />
    <glyph glyph-name="Omegatonos" unicode="&#x38f;" horiz-adv-x="807" 
d="M753 340c0 -117 -65 -223 -157 -276h152v-64h-271v60c116 43 201 148 201 280c0 160 -117 283 -275 283s-274 -123 -274 -283c0 -132 85 -237 200 -280v-60h-271v64h152c-91 53 -156 159 -156 276c0 201 152 348 349 348c200 0 350 -147 350 -348zM-68 498l64 182h81
l-90 -182h-55z" />
    <glyph glyph-name="uni03A9" unicode="&#x3a9;" horiz-adv-x="807" 
d="M753 340c0 -117 -65 -223 -157 -276h152v-64h-271v60c116 43 201 148 201 280c0 160 -117 283 -275 283s-274 -123 -274 -283c0 -132 85 -237 200 -280v-60h-271v64h152c-91 53 -156 159 -156 276c0 201 152 348 349 348c200 0 350 -147 350 -348z" />
    <glyph glyph-name="iotadieresistonos" unicode="&#x390;" horiz-adv-x="243" 
d="M76 103v311h70v-302c0 -43 19 -56 44 -56h18v-57c-11 -1 -24 -1 -36 -1c-59 0 -96 34 -96 105zM30 516c-22 0 -42 18 -42 41s20 41 42 41s41 -18 41 -41s-19 -41 -41 -41zM236 516c-22 0 -42 18 -42 41s20 41 42 41s41 -18 41 -41s-19 -41 -41 -41zM97 520l54 160h71
l-80 -160h-45z" />
    <glyph glyph-name="iota" unicode="&#x3b9;" horiz-adv-x="243" 
d="M76 103v311h70v-302c0 -43 19 -56 44 -56h18v-57c-11 -1 -24 -1 -36 -1c-59 0 -96 34 -96 105z" />
    <glyph glyph-name="Beta" unicode="&#x392;" horiz-adv-x="609" 
d="M93 0v680h231c127 0 187 -75 187 -167c0 -67 -30 -116 -88 -135c88 -21 140 -88 140 -178c0 -113 -70 -200 -215 -200h-255zM165 402h164c79 0 110 45 110 107s-33 107 -120 107h-154v-214zM165 64h178c104 0 147 59 147 138c0 80 -47 138 -151 138h-174v-276z" />
    <glyph glyph-name="Gamma" unicode="&#x393;" horiz-adv-x="518" 
d="M93 0v680h392v-64h-320v-616h-72z" />
    <glyph glyph-name="uni0394" unicode="&#x394;" horiz-adv-x="655" 
d="M614 0h-573v11l278 676h12l283 -676v-11zM298 477l-165 -415h384l-166 415c-12 30 -25 76 -26 80c-1 -3 -15 -50 -27 -80z" />
    <glyph glyph-name="Zeta" unicode="&#x396;" horiz-adv-x="581" 
d="M39 0v11l380 605h-326v64h438v-11l-379 -605h381v-64h-494z" />
    <glyph glyph-name="Theta" unicode="&#x398;" horiz-adv-x="806" 
d="M403 -8c-193 0 -349 142 -349 348c0 205 156 348 349 348s349 -143 349 -348c0 -206 -156 -348 -349 -348zM403 57c158 0 274 121 274 283c0 161 -116 282 -274 282c-159 0 -274 -121 -274 -282c0 -162 115 -283 274 -283zM264 234v63h277v-63h-277z" />
    <glyph glyph-name="Kappa" unicode="&#x39a;" horiz-adv-x="607" 
d="M159 265c15 29 36 67 49 84l257 331h81l-252 -328l279 -352h-89l-237 299l-82 -99v-200h-72v680h72v-322c0 -32 -4 -71 -6 -93z" />
    <glyph glyph-name="Lambda" unicode="&#x39b;" horiz-adv-x="647" 
d="M327 687l281 -687h-78l-181 460c-13 31 -28 87 -29 92c-1 -3 -18 -59 -30 -92l-178 -460h-73l276 687h12z" />
    <glyph glyph-name="Nu" unicode="&#x39d;" horiz-adv-x="713" 
d="M608 -7l-406 480c-18 21 -44 57 -47 62c0 -5 6 -49 6 -76v-459h-68v687h12l406 -480c18 -22 44 -59 47 -63c0 2 -5 48 -5 77v459h67v-687h-12z" />
    <glyph glyph-name="Xi" unicode="&#x39e;" horiz-adv-x="611" 
d="M61 0v64h209v170h-176v63h176v319h-209v64h489v-64h-209v-319h176v-63h-176v-170h209v-64h-489z" />
    <glyph glyph-name="Pi" unicode="&#x3a0;" horiz-adv-x="674" 
d="M93 0v680h488v-680h-72v616h-344v-616h-72z" />
    <glyph glyph-name="Rho" unicode="&#x3a1;" horiz-adv-x="584" 
d="M93 0v680h154c186 0 281 -103 281 -256c0 -150 -95 -255 -281 -255h-82v-169h-72zM165 232h78c153 0 210 80 210 192s-57 192 -210 192h-78v-384z" />
    <glyph glyph-name="Tau" unicode="&#x3a4;" horiz-adv-x="556" 
d="M242 0v616h-209v64h490v-64h-209v-616h-72z" />
    <glyph glyph-name="Phi" unicode="&#x3a6;" horiz-adv-x="870" 
d="M399 -40v73c-218 6 -346 145 -346 307s128 300 346 307v73h72v-73c218 -7 346 -145 346 -307s-128 -301 -346 -307v-73h-72zM127 340c0 -132 95 -238 272 -245v490c-177 -7 -272 -114 -272 -245zM743 340c0 131 -95 238 -272 245v-490c177 7 272 113 272 245z" />
    <glyph glyph-name="Chi" unicode="&#x3a7;" horiz-adv-x="635" 
d="M43 0l233 370l-196 310h82l135 -212c11 -18 22 -47 22 -47s10 30 21 47l134 212h79l-195 -310l235 -370h-82l-173 272c-10 16 -22 43 -23 47c-1 -1 -11 -30 -21 -47l-172 -272h-79z" />
    <glyph glyph-name="Psi" unicode="&#x3a8;" horiz-adv-x="745" 
d="M336 0v141c-168 7 -267 106 -267 262v277h74v-274c0 -122 64 -194 193 -202v516h73v-516c127 9 194 81 194 202v274h73v-277c0 -155 -101 -254 -267 -262v-141h-73z" />
    <glyph glyph-name="Iotadieresis" unicode="&#x3aa;" horiz-adv-x="265" 
d="M96 0v680h73v-680h-73zM220 770c-24 0 -47 21 -47 46c0 26 23 47 47 47s46 -21 46 -47c0 -25 -22 -46 -46 -46zM46 770c-24 0 -46 21 -46 46c0 26 22 47 46 47c25 0 47 -21 47 -47c0 -25 -22 -46 -47 -46z" />
    <glyph glyph-name="Upsilondieresis" unicode="&#x3ab;" horiz-adv-x="656" 
d="M294 0v213l-257 467h81l185 -338c14 -25 27 -65 29 -69c1 4 15 43 29 69l184 338h75l-252 -464v-216h-74zM240 771c-24 0 -46 21 -46 46c0 26 22 47 46 47c25 0 47 -21 47 -47c0 -25 -22 -46 -47 -46zM414 771c-24 0 -47 21 -47 46c0 26 23 47 47 47s46 -21 46 -47
c0 -25 -22 -46 -46 -46z" />
    <glyph glyph-name="alphatonos" unicode="&#x3ac;" horiz-adv-x="570" 
d="M263 54c88 0 147 64 147 154c0 89 -59 153 -147 153c-87 0 -142 -64 -142 -153c0 -90 55 -154 142 -154zM503 -3c-58 0 -93 37 -93 88v6c-28 -58 -89 -99 -163 -99c-113 0 -199 92 -199 216c0 123 86 215 198 215c78 0 134 -41 163 -98l-2 89h70v-301
c0 -43 18 -57 43 -57h18v-57c-5 -1 -28 -2 -35 -2zM254 498l64 182h81l-90 -182h-55z" />
    <glyph glyph-name="alpha" unicode="&#x3b1;" horiz-adv-x="570" 
d="M263 54c88 0 147 64 147 154c0 89 -59 153 -147 153c-87 0 -142 -64 -142 -153c0 -90 55 -154 142 -154zM503 -3c-58 0 -93 37 -93 88v6c-28 -58 -89 -99 -163 -99c-113 0 -199 92 -199 216c0 123 86 215 198 215c78 0 134 -41 163 -98l-2 89h70v-301
c0 -43 18 -57 43 -57h18v-57c-5 -1 -28 -2 -35 -2z" />
    <glyph glyph-name="epsilontonos" unicode="&#x3ad;" horiz-adv-x="470" 
d="M146 219c-46 10 -78 47 -78 86c0 81 81 118 175 118c85 0 141 -28 184 -71l-40 -44c-34 34 -84 56 -140 56c-60 0 -108 -19 -108 -69c0 -33 40 -56 69 -56h92v-47h-92c-38 0 -85 -17 -85 -66c0 -52 44 -75 115 -75c73 0 119 24 159 61l38 -44c-51 -49 -116 -76 -208 -76
c-109 0 -176 44 -176 120c0 57 38 94 95 107zM228 498l64 182h81l-90 -182h-55z" />
    <glyph glyph-name="epsilon" unicode="&#x3b5;" horiz-adv-x="470" 
d="M146 219c-46 10 -78 47 -78 86c0 81 81 118 175 118c85 0 141 -28 184 -71l-40 -44c-34 34 -84 56 -140 56c-60 0 -108 -19 -108 -69c0 -33 40 -56 69 -56h92v-47h-92c-38 0 -85 -17 -85 -66c0 -52 44 -75 115 -75c73 0 119 24 159 61l38 -44c-51 -49 -116 -76 -208 -76
c-109 0 -176 44 -176 120c0 57 38 94 95 107z" />
    <glyph glyph-name="etatonos" unicode="&#x3ae;" 
d="M74 0v414h70l-2 -84c27 58 82 93 150 93c91 0 154 -63 154 -171v-464h-70v456c0 73 -34 115 -103 115c-77 0 -129 -49 -129 -131v-228h-70zM247 498l64 182h81l-90 -182h-55z" />
    <glyph glyph-name="eta" unicode="&#x3b7;" 
d="M74 0v414h70l-2 -84c27 58 82 93 150 93c91 0 154 -63 154 -171v-464h-70v456c0 73 -34 115 -103 115c-77 0 -129 -49 -129 -131v-228h-70z" />
    <glyph glyph-name="iotatonos" unicode="&#x3af;" horiz-adv-x="243" 
d="M76 103v311h70v-302c0 -43 19 -56 44 -56h18v-57c-11 -1 -24 -1 -36 -1c-59 0 -96 34 -96 105zM87 498l64 182h81l-90 -182h-55z" />
    <glyph glyph-name="upsilondieresistonos" unicode="&#x3b0;" horiz-adv-x="487" 
d="M241 -9c-113 0 -181 71 -181 192v231h70v-228c0 -85 33 -133 113 -133c79 0 113 48 113 133v228h70v-231c0 -121 -71 -192 -185 -192zM143 516c-22 0 -42 18 -42 41s20 41 42 41s41 -18 41 -41s-19 -41 -41 -41zM349 516c-22 0 -42 18 -42 41s20 41 42 41s41 -18 41 -41
s-19 -41 -41 -41zM210 520l54 160h71l-80 -160h-45z" />
    <glyph glyph-name="upsilon" unicode="&#x3c5;" horiz-adv-x="486" 
d="M241 -9c-113 0 -181 71 -181 192v231h70v-228c0 -85 33 -133 113 -133c79 0 113 48 113 133v228h70v-231c0 -121 -71 -192 -185 -192z" />
    <glyph glyph-name="beta" unicode="&#x3b2;" horiz-adv-x="552" 
d="M145 69v-281h-70v740c0 131 86 207 198 207c117 0 196 -68 196 -182c0 -68 -45 -139 -125 -160c99 -13 160 -87 160 -186c0 -116 -77 -215 -209 -215c-62 0 -113 21 -150 77zM145 527v-348c0 -80 68 -126 140 -126c97 0 147 66 147 155c0 91 -54 147 -158 147h-49v59h49
c65 0 125 52 125 136c0 82 -46 123 -126 123c-81 0 -128 -51 -128 -146z" />
    <glyph glyph-name="gamma" unicode="&#x3b3;" horiz-adv-x="462" 
d="M255 131l112 283h70l-171 -413v-213h-69v213l-172 413h76l113 -283c11 -28 21 -72 21 -72s9 44 20 72z" />
    <glyph glyph-name="delta" unicode="&#x3b4;" horiz-adv-x="534" 
d="M329 399l-205 312v11h328v-63h-218l209 -319c30 -45 43 -94 43 -133c0 -120 -95 -215 -218 -215c-124 0 -220 95 -220 215c0 123 98 210 209 210c28 0 51 -5 72 -18zM268 52c88 0 147 67 147 155c0 90 -60 155 -147 155c-86 0 -149 -64 -149 -155c0 -88 60 -155 149 -155
z" />
    <glyph glyph-name="zeta" unicode="&#x3b6;" horiz-adv-x="431" 
d="M364 -45c0 32 -21 45 -55 45h-22c-154 0 -238 56 -238 190c0 177 160 345 300 468h-253v64h345v-52c-149 -128 -319 -299 -319 -472c0 -100 52 -137 177 -137h19c64 0 113 -27 113 -100c0 -62 -45 -108 -127 -115l-9 58c37 2 69 12 69 51z" />
    <glyph glyph-name="theta" unicode="&#x3b8;" horiz-adv-x="514" 
d="M165 355v-192c0 -71 26 -111 91 -111c67 0 91 39 91 111v192h-182zM96 414v141c0 104 37 180 160 180c124 0 161 -76 161 -180v-141h64v-59h-64v-184c0 -105 -37 -179 -161 -179c-123 0 -160 74 -160 179v184h-64v59h64zM165 563v-149h182v149c0 73 -24 112 -91 112
c-65 0 -91 -40 -91 -112z" />
    <glyph glyph-name="kappa" unicode="&#x3ba;" horiz-adv-x="464" 
d="M144 126v-126h-70v414h70v-155c0 -21 -2 -44 -4 -59l198 214h80l-160 -173l184 -241h-83l-151 193z" />
    <glyph glyph-name="lambda" unicode="&#x3bb;" horiz-adv-x="477" 
d="M252 291c-8 22 -15 62 -16 69c-1 -6 -8 -45 -18 -70l-117 -290h-76l180 414l-73 195c-13 33 -24 50 -62 50h-27v63h38c58 0 92 -22 115 -85l209 -556c6 -17 17 -24 36 -24h22v-57c-8 -1 -35 -2 -44 -2c-48 0 -67 26 -79 59z" />
    <glyph glyph-name="nu" unicode="&#x3bd;" horiz-adv-x="462" 
d="M226 -8l-201 422h77l110 -239c12 -27 22 -67 23 -71c1 4 9 44 22 71l108 239h72l-198 -422h-13z" />
    <glyph glyph-name="xi" unicode="&#x3be;" horiz-adv-x="438" 
d="M305 0h-54c-143 0 -204 86 -204 194c0 91 53 172 154 195c-89 24 -125 96 -125 163c0 105 82 183 198 183c78 0 142 -28 176 -94l-58 -32c-22 43 -61 64 -116 64c-74 0 -126 -46 -126 -127c0 -82 62 -132 130 -132h95v-60h-94c-88 0 -160 -48 -160 -154
c0 -84 44 -139 139 -139h53c64 0 113 -27 113 -100c0 -62 -44 -108 -127 -115l-9 58c37 2 69 12 69 51c0 32 -20 45 -54 45z" />
    <glyph glyph-name="omicron" unicode="&#x3bf;" horiz-adv-x="534" 
d="M268 -8c-124 0 -221 94 -221 215s97 216 221 216c123 0 218 -95 218 -216s-95 -215 -218 -215zM268 52c88 0 146 67 146 155c0 89 -58 155 -146 155c-89 0 -149 -66 -149 -155c0 -88 60 -155 149 -155z" />
    <glyph glyph-name="pi" unicode="&#x3c0;" horiz-adv-x="512" 
d="M476 414v-58h-53v-244c0 -42 18 -56 43 -56h10v-56c-9 0 -21 -1 -31 -1c-64 0 -93 38 -93 106v250h-193v-355h-70v356h-54v58h441z" />
    <glyph glyph-name="rho" unicode="&#x3c1;" horiz-adv-x="534" 
d="M128 76v-288h-70v420c0 130 96 215 212 215c123 0 216 -94 216 -216c0 -125 -93 -216 -205 -216c-60 0 -120 29 -153 85zM126 207c0 -91 57 -155 144 -155c84 0 144 64 144 155s-59 155 -143 155s-145 -64 -145 -155z" />
    <glyph glyph-name="sigma1" unicode="&#x3c2;" horiz-adv-x="469" 
d="M329 -45c0 25 -22 44 -55 45c-143 4 -226 75 -226 206c0 125 95 216 207 216c80 0 145 -32 183 -104c-20 -9 -40 -19 -60 -29c-23 47 -62 71 -121 71c-79 0 -137 -65 -137 -156c0 -80 47 -138 147 -143c70 -3 129 -28 129 -99c0 -65 -47 -109 -127 -115l-9 57
c35 3 69 12 69 51z" />
    <glyph glyph-name="sigma" unicode="&#x3c3;" horiz-adv-x="549" 
d="M378 355c62 -24 104 -76 104 -156c0 -123 -101 -207 -216 -207c-118 0 -219 88 -219 213c0 124 95 209 219 209h246v-59h-134zM266 51c79 0 146 63 146 154s-60 150 -146 150c-87 0 -147 -61 -147 -152s66 -152 147 -152z" />
    <glyph glyph-name="tau" unicode="&#x3c4;" horiz-adv-x="408" 
d="M276 -9c-63 0 -111 36 -111 134v230h-135v59h341v-59h-137v-231c0 -55 19 -71 49 -71c18 0 46 8 58 17c9 -17 20 -33 29 -50c-19 -17 -59 -29 -94 -29z" />
    <glyph glyph-name="phi" unicode="&#x3c6;" horiz-adv-x="635" 
d="M283 49v372c12 2 28 3 39 3c180 0 265 -100 265 -218c0 -125 -97 -214 -235 -217v-200h-69v200c-140 3 -235 85 -235 215c0 124 80 193 183 217v-61c-68 -21 -113 -66 -113 -157c0 -96 67 -153 165 -154zM515 205c0 92 -63 155 -163 157v-313c100 2 163 65 163 156z" />
    <glyph glyph-name="chi" unicode="&#x3c7;" horiz-adv-x="475" 
d="M109 -212h-79c61 110 123 218 183 328l-102 197c-16 31 -23 42 -58 42h-23v59h25c76 0 95 -23 126 -86l56 -116c8 -19 15 -42 16 -46c1 3 8 26 19 46l104 202h78l-166 -296l128 -250c8 -16 22 -24 41 -24h19v-57c-11 -1 -23 -1 -34 -1c-59 0 -86 49 -108 93l-71 142
c-6 12 -15 37 -16 40c-1 -2 -8 -26 -15 -40z" />
    <glyph glyph-name="psi" unicode="&#x3c8;" horiz-adv-x="637" 
d="M129 414v-190c0 -101 53 -167 154 -176v582h70v-582c101 9 154 75 154 176v190h70v-192c0 -136 -76 -224 -224 -232v-202h-70v202c-148 8 -223 96 -223 232v192h69z" />
    <glyph glyph-name="omega" unicode="&#x3c9;" horiz-adv-x="635" 
d="M318 80c-16 -53 -60 -88 -113 -88c-114 0 -157 100 -157 197c0 108 58 214 184 234v-61c-81 -23 -112 -94 -112 -172c0 -67 21 -138 92 -138c40 0 71 34 71 83v146h70v-146c0 -49 33 -83 71 -83c71 0 92 71 92 138c0 78 -32 149 -112 172v61c126 -20 183 -126 183 -234
c0 -97 -43 -197 -156 -197c-55 0 -97 35 -113 88z" />
    <glyph glyph-name="iotadieresis" unicode="&#x3ca;" horiz-adv-x="243" 
d="M76 103v311h70v-302c0 -43 19 -56 44 -56h18v-57c-11 -1 -24 -1 -36 -1c-59 0 -96 34 -96 105zM205 516c-24 0 -47 21 -47 46c0 26 23 47 47 47s46 -21 46 -47c0 -25 -22 -46 -46 -46zM31 516c-24 0 -46 21 -46 46c0 26 22 47 46 47c25 0 47 -21 47 -47
c0 -25 -22 -46 -47 -46z" />
    <glyph glyph-name="upsilondieresis" unicode="&#x3cb;" horiz-adv-x="487" 
d="M241 -9c-113 0 -181 71 -181 192v231h70v-228c0 -85 33 -133 113 -133c79 0 113 48 113 133v228h70v-231c0 -121 -71 -192 -185 -192zM335 516c-24 0 -47 21 -47 46c0 26 23 47 47 47s46 -21 46 -47c0 -25 -22 -46 -46 -46zM161 516c-24 0 -46 21 -46 46
c0 26 22 47 46 47c25 0 47 -21 47 -47c0 -25 -22 -46 -47 -46z" />
    <glyph glyph-name="omicrontonos" unicode="&#x3cc;" horiz-adv-x="534" 
d="M268 -8c-124 0 -221 94 -221 215s97 216 221 216c123 0 218 -95 218 -216s-95 -215 -218 -215zM268 52c88 0 146 67 146 155c0 89 -58 155 -146 155c-89 0 -149 -66 -149 -155c0 -88 60 -155 149 -155zM240 498l64 182h81l-90 -182h-55z" />
    <glyph glyph-name="upsilontonos" unicode="&#x3cd;" horiz-adv-x="487" 
d="M241 -9c-113 0 -181 71 -181 192v231h70v-228c0 -85 33 -133 113 -133c79 0 113 48 113 133v228h70v-231c0 -121 -71 -192 -185 -192zM219 498l64 182h81l-90 -182h-55z" />
    <glyph glyph-name="omegatonos" unicode="&#x3ce;" horiz-adv-x="635" 
d="M318 80c-16 -53 -60 -88 -113 -88c-114 0 -157 100 -157 197c0 108 58 214 184 234v-61c-81 -23 -112 -94 -112 -172c0 -67 21 -138 92 -138c40 0 71 34 71 83v146h70v-146c0 -49 33 -83 71 -83c71 0 92 71 92 138c0 78 -32 149 -112 172v61c126 -20 183 -126 183 -234
c0 -97 -43 -197 -156 -197c-55 0 -97 35 -113 88zM297 498l64 182h81l-90 -182h-55z" />
    <glyph glyph-name="mu" unicode="&#xb5;" horiz-adv-x="539" 
d="M381 78v5c-23 -52 -73 -90 -134 -90c-44 0 -81 9 -111 53c7 -33 9 -48 9 -95v-163h-70v626h70v-243c0 -73 30 -116 104 -116c71 0 127 47 127 136v223h70v-301c0 -43 18 -57 44 -57h18v-57c-6 -1 -29 -2 -36 -2c-57 0 -91 35 -91 81z" />
    <glyph glyph-name="Delta" unicode="&#x2206;" horiz-adv-x="655" 
d="M614 0h-573v11l278 676h12l283 -676v-11zM298 477l-165 -415h384l-166 415c-12 30 -25 76 -26 80c-1 -3 -15 -50 -27 -80z" />
    <glyph glyph-name="product" unicode="&#x220f;" horiz-adv-x="675" 
d="M93 0v680h488v-680h-72v616h-344v-616h-72z" />
    <glyph glyph-name="uni00AD" unicode="&#xad;" horiz-adv-x="286" 
d="M46 200v63h193v-63h-193z" />
    <glyph glyph-name="plusminus" unicode="&#xb1;" horiz-adv-x="373" 
d="M154 126v108h-112v63h112v108h65v-108h112v-63h-112v-108h-65zM334 18h-295v60h295v-60z" />
    <glyph glyph-name="twosuperior" unicode="&#xb2;" horiz-adv-x="328" 
d="M16 300v8l163 162c35 35 53 66 53 102c0 38 -23 64 -66 64c-42 0 -68 -24 -83 -67l-51 16c20 62 67 101 135 101c74 0 122 -47 122 -113c0 -46 -27 -88 -68 -129l-63 -62c-14 -15 -47 -37 -47 -37s37 3 55 3h124v-48h-274z" />
    <glyph glyph-name="threesuperior" unicode="&#xb3;" horiz-adv-x="324" 
d="M152 293c-69 0 -118 33 -141 81l48 25c17 -32 46 -55 92 -55c55 0 86 35 86 84c0 50 -31 83 -88 83c-23 0 -37 -4 -48 -9l-5 8l81 95c8 9 30 30 30 30s-30 -3 -44 -3h-117v48h240v-5l-80 -98c-12 -15 -27 -25 -30 -27c71 -5 118 -53 118 -124c0 -83 -60 -133 -142 -133z
" />
    <glyph glyph-name="onesuperior" unicode="&#xb9;" horiz-adv-x="210" 
d="M93 300v331h-75v49h131v-380h-56z" />
    <glyph glyph-name="currency" unicode="&#xa4;" horiz-adv-x="541" 
d="M274 104c-44 0 -85 15 -116 40l-86 -85l-43 43l87 87c-17 27 -26 59 -26 94s10 68 28 95l-88 88l42 44l88 -87c31 25 70 39 114 39c42 0 80 -13 110 -35l84 83l43 -44l-85 -83c20 -29 31 -63 31 -100s-11 -71 -29 -99l84 -82l-43 -43l-83 82c-31 -24 -69 -37 -112 -37z
M274 162c68 0 113 51 113 121c0 69 -45 121 -113 121s-114 -52 -114 -121c0 -70 46 -121 114 -121z" />
    <glyph glyph-name="brokenbar" unicode="&#xa6;" horiz-adv-x="237" 
d="M153 367h-68v355h68v-355zM85 231h68v-359h-68v359z" />
    <glyph glyph-name="logicalnot" unicode="&#xac;" horiz-adv-x="372" 
d="M268 221h-229v61h294v-170h-65v109z" />
    <glyph glyph-name="onequarter" unicode="&#xbc;" horiz-adv-x="880" 
d="M110 233v389h-89v58h155v-447h-66zM167 0l420 680h72l-420 -680h-72zM739 0v76h-243v37l299 340h9v-325h51v-52h-51v-76h-65zM569 124c0 0 45 4 68 4h102v137c0 34 3 68 3 68s-19 -32 -41 -58l-81 -101c-17 -18 -51 -50 -51 -50z" />
    <glyph glyph-name="onehalf" unicode="&#xbd;" horiz-adv-x="933" 
d="M566 0v9l192 191c41 41 63 78 63 121c0 44 -27 74 -78 74c-50 0 -80 -28 -98 -79l-60 19c23 74 78 120 159 120c87 0 143 -57 143 -134c0 -54 -32 -104 -80 -152l-73 -72c-16 -17 -49 -41 -56 -44c5 0 44 4 65 4h145v-57h-322zM167 0l420 680h72l-420 -680h-72zM110 233
v389h-89v58h155v-447h-66z" />
    <glyph glyph-name="threequarters" unicode="&#xbe;" horiz-adv-x="984" 
d="M843 0v76h-243v37l299 340h9v-325h51v-52h-51v-76h-65zM180 225c-82 0 -139 39 -166 96l57 28c19 -38 53 -65 108 -65c64 0 100 41 100 99c0 59 -37 98 -103 98c-27 0 -44 -5 -57 -10l-5 9l95 112c9 11 35 35 35 35s-35 -4 -52 -4h-137v57h283v-6l-95 -115
c-14 -17 -31 -30 -35 -32c83 -6 139 -63 139 -146c0 -97 -72 -156 -167 -156zM271 0l420 680h72l-421 -680h-71zM673 124c0 0 45 4 68 4h102v137c0 34 3 68 3 68s-19 -32 -41 -58l-81 -101c-17 -18 -51 -50 -51 -50z" />
    <glyph glyph-name="multiply" unicode="&#xd7;" horiz-adv-x="348" 
d="M175 294l91 91l42 -42l-91 -91l91 -91l-43 -42l-91 90l-92 -91l-42 42l92 91l-92 92l43 43z" />
    <glyph glyph-name="divide" unicode="&#xf7;" horiz-adv-x="348" 
d="M321 221h-295v62h295v-62zM173 327c-28 0 -53 23 -53 53c0 29 25 52 53 52s52 -23 52 -52c0 -30 -24 -53 -52 -53zM173 70c-28 0 -53 23 -53 52c0 30 25 53 53 53s52 -23 52 -53c0 -29 -24 -52 -52 -52z" />
    <glyph glyph-name="uni02C9" unicode="&#x2c9;" horiz-adv-x="500" 
d="M145 515v55h210v-55h-210z" />
    <glyph glyph-name="uni2002" unicode="&#x2002;" horiz-adv-x="500" 
 />
    <glyph glyph-name="uni2003" unicode="&#x2003;" horiz-adv-x="1000" 
 />
    <glyph glyph-name="uni2004" unicode="&#x2004;" horiz-adv-x="333" 
 />
    <glyph glyph-name="uni2005" unicode="&#x2005;" horiz-adv-x="250" 
 />
    <glyph glyph-name="uni2006" unicode="&#x2006;" horiz-adv-x="167" 
 />
    <glyph glyph-name="uni2007" unicode="&#x2007;" horiz-adv-x="514" 
 />
    <glyph glyph-name="uni2008" unicode="&#x2008;" horiz-adv-x="202" 
 />
    <glyph glyph-name="uni2009" unicode="&#x2009;" horiz-adv-x="125" 
 />
    <glyph glyph-name="uni200A" unicode="&#x200a;" horiz-adv-x="42" 
 />
    <glyph glyph-name="afii61664" unicode="&#x200c;" horiz-adv-x="0" 
d="M12 720v-993h-24v993h24z" />
    <glyph glyph-name="afii301" unicode="&#x200d;" horiz-adv-x="0" 
d="M16 653l53 -52l-15 -15l-42 42v-901h-24v900l-42 -41l-14 15l52 52l-52 52l14 15l55 -52l53 52l15 -15z" />
    <glyph glyph-name="afii299" unicode="&#x200e;" horiz-adv-x="0" 
d="M71 720l67 -67l-67 -67l-15 15l42 42h-86v-916h-24v938h108l-40 40z" />
    <glyph glyph-name="afii300" unicode="&#x200f;" horiz-adv-x="0" 
d="M12 665v-938h-24v916h-86l42 -42l-15 -15l-67 67l67 67l15 -15l-40 -40h108z" />
    <glyph glyph-name="uni202F" unicode="&#x202f;" horiz-adv-x="237" 
 />
    <glyph glyph-name="afii61289" unicode="&#x2113;" horiz-adv-x="427" 
d="M277 398v157c0 65 -22 85 -52 85c-32 0 -54 -21 -54 -85v-243h51c34 0 55 21 55 86zM307 63v-63h-73c-90 0 -133 47 -133 148v103h-60v61h60v242c0 102 52 149 123 149s123 -45 123 -145v-163c0 -100 -54 -144 -126 -144h-50v-104c0 -63 28 -84 64 -84h72z" />
    <glyph glyph-name="estimated" unicode="&#x212e;" horiz-adv-x="802" 
d="M401 -53c-200 0 -361 145 -361 325c0 179 161 325 361 325c199 0 361 -146 361 -325v-9h-585c-3 0 -5 -1 -5 -4v-177c0 -8 3 -15 8 -20c56 -59 135 -96 222 -96c93 0 175 42 232 107h53c-66 -76 -170 -126 -286 -126zM177 281h448c3 0 5 2 5 5v178c0 8 -4 15 -10 21
c-56 57 -133 92 -218 92c-86 0 -165 -37 -221 -95c-6 -6 -9 -13 -9 -22v-174c0 -3 2 -5 5 -5z" />
    <glyph glyph-name="Omega" unicode="&#x2126;" horiz-adv-x="807" 
d="M753 340c0 -117 -65 -223 -157 -276h152v-64h-271v60c116 43 201 148 201 280c0 160 -117 283 -275 283s-274 -123 -274 -283c0 -132 85 -237 200 -280v-60h-271v64h152c-91 53 -156 159 -156 276c0 201 152 348 349 348c200 0 350 -147 350 -348z" />
    <glyph glyph-name="uni2117" unicode="&#x2117;" horiz-adv-x="807" 
d="M404 -9c-191 0 -350 143 -350 348c0 206 159 350 350 350c190 0 348 -144 348 -350c0 -205 -158 -348 -348 -348zM404 39c167 0 295 126 295 300c0 176 -128 301 -295 301c-168 0 -297 -125 -297 -301c0 -174 129 -300 297 -300zM296 142v391h102c110 0 166 -59 166 -151
c0 -87 -56 -149 -166 -149h-42v-91h-60zM356 286h38c79 0 108 40 108 96c0 57 -29 97 -108 97h-38v-193z" />
    <glyph glyph-name="partialdiff" unicode="&#x2202;" horiz-adv-x="533" 
d="M395 358c-38 129 -130 247 -235 337l39 43c150 -115 287 -309 287 -520c0 -130 -95 -226 -218 -226c-124 0 -221 94 -221 215c0 122 98 216 213 216c58 0 103 -24 135 -65zM268 52c88 0 146 68 146 159c0 87 -58 151 -146 151c-89 0 -149 -66 -149 -155
c0 -88 60 -155 149 -155z" />
    <glyph glyph-name="minus" unicode="&#x2212;" horiz-adv-x="373" 
d="M334 221h-295v62h295v-62z" />
    <glyph glyph-name="uni2215" unicode="&#x2215;" horiz-adv-x="424" 
d="M-34 0l420 680h72l-420 -680h-72z" />
    <glyph glyph-name="uni2219" unicode="&#x2219;" horiz-adv-x="202" 
d="M101 189c-28 0 -54 24 -54 55s26 54 54 54c29 0 55 -23 55 -54s-26 -55 -55 -55z" />
    <glyph glyph-name="radical" unicode="&#x221a;" horiz-adv-x="576" 
d="M284 0h-51l-127 355h-70v59h118l103 -305l217 671h71z" />
    <glyph glyph-name="infinity" unicode="&#x221e;" horiz-adv-x="601" 
d="M177 397c59 0 98 -32 124 -83c18 42 59 83 124 83c77 0 124 -52 124 -132c0 -77 -51 -132 -126 -132c-58 0 -96 34 -123 84c-19 -42 -62 -84 -127 -84c-72 0 -121 55 -121 132c0 76 49 132 125 132zM180 183c65 0 91 71 94 75c-23 50 -49 89 -94 89
c-43 0 -69 -31 -69 -82s26 -82 69 -82zM421 347c-67 0 -92 -71 -95 -74c23 -52 49 -90 95 -90c45 0 68 28 68 82c0 48 -23 82 -68 82z" />
    <glyph glyph-name="integral" unicode="&#x222b;" horiz-adv-x="347" 
d="M210 618v-655c0 -94 -46 -133 -120 -133h-68v61h67c30 0 51 17 51 70v656c0 94 46 133 120 133h65v-62h-64c-30 0 -51 -17 -51 -70z" />
    <glyph glyph-name="approxequal" unicode="&#x2248;" horiz-adv-x="393" 
d="M94 112l-52 5c3 72 38 111 86 111c29 0 47 -13 69 -32c25 -22 32 -29 49 -29c21 0 32 19 35 59l53 -5c-4 -72 -36 -110 -86 -110c-28 0 -47 13 -69 33c-25 21 -32 27 -48 27c-20 0 -33 -19 -37 -59zM94 242l-52 4c3 72 38 111 86 111c29 0 47 -12 69 -32
c25 -21 32 -28 49 -28c21 0 32 18 35 58l53 -5c-4 -71 -36 -110 -86 -110c-28 0 -47 14 -69 33c-25 21 -32 28 -48 28c-20 0 -33 -19 -37 -59z" />
    <glyph glyph-name="notequal" unicode="&#x2260;" horiz-adv-x="371" 
d="M42 282v61h156l25 66l59 -8l-23 -58h70v-61h-93l-26 -68h119v-62h-143l-26 -69l-60 8l24 61h-82v62h106l26 68h-132z" />
    <glyph glyph-name="lessequal" unicode="&#x2264;" horiz-adv-x="356" 
d="M309 108l-270 145v10l270 143v-65l-167 -83l167 -85v-65zM318 18h-283v56h283v-56z" />
    <glyph glyph-name="greaterequal" unicode="&#x2265;" horiz-adv-x="356" 
d="M317 253l-271 -145v65l168 85l-168 83v65l271 -143v-10zM321 18h-283v56h283v-56z" />
    <glyph glyph-name="filledbox" unicode="&#x25a0;" horiz-adv-x="1000" 
d="M919 838v-838h-838v838h838z" />
    <glyph glyph-name="H22073" unicode="&#x25a1;" horiz-adv-x="1000" 
d="M859 60v718h-718v-718h718zM919 838v-838h-838v838h838z" />
    <glyph glyph-name="H18543" unicode="&#x25aa;" horiz-adv-x="606" 
d="M480 520v-349h-349v349h349z" />
    <glyph glyph-name="H18551" unicode="&#x25ab;" horiz-adv-x="606" 
d="M435 216v259h-259v-259h259zM480 520v-349h-349v349h349z" />
    <glyph glyph-name="filledrect" unicode="&#x25ac;" horiz-adv-x="833" 
d="M826 490v-299h-817v299h817z" />
    <glyph glyph-name="triagup" unicode="&#x25b2;" horiz-adv-x="834" 
d="M423 692l380 -692h-772z" />
    <glyph glyph-name="uni25B3" unicode="&#x25b3;" horiz-adv-x="834" 
d="M423 596l-312 -548h612zM423 692l380 -692h-772z" />
    <glyph glyph-name="uni25B6" unicode="&#x25b6;" horiz-adv-x="834" 
d="M763 338l-692 -380v772z" />
    <glyph glyph-name="uni25B7" unicode="&#x25b7;" horiz-adv-x="834" 
d="M698 338l-548 312v-612zM794 338l-692 -380v772z" />
    <glyph glyph-name="triagrt" unicode="&#x25ba;" horiz-adv-x="834" 
d="M763 338l-692 -220v452z" />
    <glyph glyph-name="triagdn" unicode="&#x25bc;" horiz-adv-x="833" 
d="M803 690l-380 -692l-392 692h772z" />
    <glyph glyph-name="uni25BD" unicode="&#x25bd;" horiz-adv-x="834" 
d="M411 84l312 548h-612zM411 -12l-380 692h772z" />
    <glyph glyph-name="uni25C0" unicode="&#x25c0;" horiz-adv-x="834" 
d="M71 350l692 380v-772z" />
    <glyph glyph-name="uni25C1" unicode="&#x25c1;" horiz-adv-x="834" 
d="M136 350l548 -312v612zM40 350l692 380v-772z" />
    <glyph glyph-name="triaglf" unicode="&#x25c4;" horiz-adv-x="834" 
d="M763 118l-692 220l692 232v-452z" />
    <glyph glyph-name="uni25C6" unicode="&#x25c6;" horiz-adv-x="1000" 
d="M19 267l481 482l481 -482l-481 -480z" />
    <glyph glyph-name="lozenge" unicode="&#x25ca;" horiz-adv-x="462" 
d="M226 -35l-181 377l179 376h12l181 -376l-178 -377h-13zM351 339l-122 279l-119 -275l123 -279z" />
    <glyph glyph-name="circle" unicode="&#x25cb;" horiz-adv-x="834" 
d="M79 341c0 185 154 339 339 339s337 -154 337 -339s-152 -337 -337 -337s-339 152 -339 337zM129 342c0 -160 130 -288 289 -288c160 0 287 128 287 288c0 159 -127 288 -287 288c-159 0 -289 -129 -289 -288z" />
    <glyph glyph-name="uni25CC" unicode="&#x25cc;" horiz-adv-x="500" 
d="M376 401c-32 23 -67 37 -107 41v43c50 -4 97 -22 138 -56zM43 265h-43c4 50 23 95 58 136l30 -32c-25 -29 -40 -64 -45 -104zM452 265c-3 41 -19 76 -45 105l30 31c34 -39 54 -85 59 -136h-44zM496 225c-4 -54 -22 -102 -55 -141l-31 30c23 32 39 69 42 111h44zM55 84
c-32 38 -51 84 -55 141h43c3 -41 17 -77 42 -110zM410 55c-44 -36 -91 -55 -141 -59v43c40 3 78 19 112 45zM227 -4c-50 4 -98 23 -142 59l28 29c34 -26 72 -42 114 -45v-43zM121 401l-32 28c42 34 88 52 138 56v-43c-40 -4 -75 -18 -106 -41z" />
    <glyph glyph-name="H18533" unicode="&#x25cf;" horiz-adv-x="606" 
d="M79 344c0 122 102 224 224 224s223 -102 223 -224s-101 -223 -223 -223s-224 101 -224 223z" />
    <glyph glyph-name="uni25D7" unicode="&#x25d7;" horiz-adv-x="606" 
d="M435 344c0 -122 -101 -223 -223 -223v447c122 0 223 -102 223 -224z" />
    <glyph glyph-name="invbullet" unicode="&#x25d8;" horiz-adv-x="606" 
d="M504 432v-403h-403v403h403zM165 230c0 -75 62 -137 137 -137c76 0 138 62 138 137s-62 138 -138 138c-75 0 -137 -63 -137 -138z" />
    <glyph glyph-name="invcircle" unicode="&#x25d9;" horiz-adv-x="833" 
d="M758 682v-682h-682v682h682zM129 342c0 -160 130 -288 289 -288c160 0 287 128 287 288c0 159 -127 288 -287 288c-159 0 -289 -129 -289 -288zM185 342c0 128 104 232 232 232c130 0 232 -104 232 -232c0 -129 -102 -232 -232 -232c-128 0 -232 103 -232 232z" />
    <glyph glyph-name="openbullet" unicode="&#x25e6;" horiz-adv-x="606" 
d="M131 344c0 94 78 172 172 172s172 -78 172 -172s-78 -172 -172 -172s-172 78 -172 172zM174 344c0 -69 60 -129 129 -129c71 0 129 60 129 129c0 71 -58 129 -129 129c-69 0 -129 -58 -129 -129z" />
    <glyph glyph-name="uni25EF" unicode="&#x25ef;" horiz-adv-x="1000" 
d="M988 264c0 -269 -220 -487 -488 -487s-488 219 -488 487c0 267 220 487 488 487c269 0 488 -219 488 -487zM928 264c0 236 -194 427 -429 427s-427 -194 -427 -427c0 -234 193 -427 427 -427c235 0 429 191 429 427z" />
    <glyph glyph-name="uni25FC" unicode="&#x25fc;" horiz-adv-x="834" 
d="M758 682v-682h-682v682h682z" />
    <glyph glyph-name="uniFFFD" unicode="&#xfffd;" horiz-adv-x="1022" 
d="M30 267l481 482l481 -482l-481 -480zM474 241v-162h59v109c107 10 170 84 170 185c0 107 -73 185 -191 185c-90 0 -153 -50 -185 -115l50 -29c29 52 68 88 135 88c76 0 126 -50 126 -129c0 -71 -44 -132 -135 -132h-29zM505 -76c24 0 47 20 47 47s-23 47 -47 47
s-47 -20 -47 -47s23 -47 47 -47z" />
    <glyph glyph-name="space" unicode=" " horiz-adv-x="237" 
 />
    <glyph glyph-name="uni2120" unicode="&#x2120;" horiz-adv-x="725" 
d="M171 384c-57 0 -91 26 -114 61l42 28c18 -25 36 -42 71 -42c29 0 47 17 47 38c0 22 -15 33 -45 45l-25 10c-44 18 -70 45 -70 88c0 44 34 79 90 79c40 0 67 -18 89 -45c-6 -4 -30 -26 -36 -29c-12 18 -27 26 -50 26s-38 -12 -38 -31c0 -21 11 -30 41 -43l25 -10
c50 -20 75 -44 75 -89c0 -56 -40 -86 -102 -86zM346 383v302h9l144 -161l143 161h9v-302h-54v187l-93 -111h-10l-93 111v-187h-55z" />
    <glyph glyph-name="uni02B9" unicode="&#x2b9;" horiz-adv-x="500" 
d="M221 498l68 193h80l-93 -193h-55z" />
    <glyph glyph-name="uni02BB" unicode="&#x2bb;" horiz-adv-x="199" 
d="M99 478c-27 0 -52 23 -52 53c0 13 5 26 13 40l55 113h38l-34 -105c17 -5 33 -24 33 -48c0 -30 -25 -53 -53 -53z" />
    <glyph glyph-name="afii57929" unicode="&#x2bc;" horiz-adv-x="199" 
d="M46 482l34 104c-18 6 -33 25 -33 48c0 30 25 53 52 53c28 0 53 -23 53 -53c0 -13 -5 -26 -13 -40l-55 -112h-38z" />
    <glyph glyph-name="uni02BE" unicode="&#x2be;" horiz-adv-x="500" 
d="M250 483v45c31 0 53 22 53 56c0 35 -22 56 -53 56v45c62 0 105 -45 105 -101c0 -55 -43 -101 -105 -101z" />
    <glyph glyph-name="Cdotaccent" unicode="&#x10a;" horiz-adv-x="726" 
d="M384 770c-24 0 -47 20 -47 47s23 47 47 47c25 0 47 -20 47 -47s-22 -47 -47 -47zM403 -8c-193 0 -349 143 -349 348s156 348 349 348c120 0 212 -45 270 -132l-55 -40c-44 65 -117 107 -215 107c-159 0 -274 -121 -274 -283s115 -283 274 -283c99 0 175 43 224 114
l56 -39c-60 -88 -158 -140 -280 -140z" />
    <glyph glyph-name="cdotaccent" unicode="&#x10b;" horiz-adv-x="468" 
d="M256 515c-24 0 -47 20 -47 47s23 47 47 47s47 -20 47 -47s-23 -47 -47 -47zM263 -8c-122 0 -215 94 -215 215s93 216 215 216c74 0 125 -28 163 -74l-50 -41c-25 33 -61 53 -113 53c-88 0 -143 -66 -143 -154s55 -154 143 -154c57 0 93 23 119 54l48 -41
c-39 -47 -90 -74 -167 -74z" />
    <glyph glyph-name="Ebreve" unicode="&#x114;" horiz-adv-x="580" 
d="M305 744c-77 0 -121 50 -131 116l57 10c9 -40 27 -71 74 -71c48 0 66 31 75 71l57 -10c-10 -66 -55 -116 -132 -116zM93 0v680h414v-64h-342v-319h305v-63h-305v-170h356v-64h-428z" />
    <glyph glyph-name="ebreve" unicode="&#x115;" 
d="M261 489c-77 0 -121 50 -131 116l57 10c9 -39 27 -70 74 -70s66 31 75 70l57 -10c-10 -66 -55 -116 -132 -116zM118 184c9 -79 63 -133 154 -133c62 0 104 25 131 55l43 -42c-38 -43 -93 -72 -174 -72c-136 0 -224 94 -224 215s93 216 214 216c133 0 213 -102 208 -239
h-352zM119 237h281c-6 71 -51 127 -138 127c-79 0 -132 -51 -143 -127z" />
    <glyph glyph-name="Ldot" unicode="&#x13f;" horiz-adv-x="528" 
d="M93 0v680h72v-616h321v-64h-393zM373 270c-28 0 -54 24 -54 55s26 54 54 54c29 0 55 -23 55 -54s-26 -55 -55 -55z" />
    <glyph glyph-name="ldot" unicode="&#x140;" horiz-adv-x="293" 
d="M79 0v722h70v-722h-70zM259 270c-28 0 -54 24 -54 55s26 54 54 54c29 0 55 -23 55 -54s-26 -55 -55 -55z" />
    <glyph glyph-name="Hbar" unicode="&#x126;" horiz-adv-x="713" 
d="M31 476v56h72v148h72v-148h364v148h72v-148h71v-56h-71v-476h-72v231h-364v-231h-72v476h-72zM175 297h364v179h-364v-179z" />
    <glyph glyph-name="hbar" unicode="&#x127;" horiz-adv-x="526" 
d="M0 476v56h84v190h70v-190h168v-56h-168v-143c26 55 80 90 147 90c92 0 155 -63 155 -171v-252h-70v244c0 73 -34 115 -103 115c-77 0 -129 -49 -129 -131v-228h-70v476h-84z" />
    <glyph glyph-name="Itilde" unicode="&#x128;" horiz-adv-x="265" 
d="M40 747l-53 5c4 72 38 111 87 111c28 0 46 -13 68 -32c25 -21 33 -28 49 -28c21 0 32 18 36 58l52 -5c-4 -71 -35 -110 -86 -110c-28 0 -46 13 -68 33c-25 21 -33 28 -49 28c-20 0 -33 -20 -36 -60zM96 0v680h73v-680h-73z" />
    <glyph glyph-name="itilde" unicode="&#x129;" horiz-adv-x="222" 
d="M18 493l-53 4c4 72 38 111 87 111c28 0 46 -12 68 -32c25 -21 33 -28 49 -28c21 0 32 18 36 58l52 -5c-4 -71 -35 -110 -86 -110c-28 0 -46 14 -68 33c-25 22 -33 28 -49 28c-20 0 -33 -19 -36 -59zM76 0v414h70v-414h-70z" />
    <glyph glyph-name="uni012A" unicode="&#x12a;" horiz-adv-x="265" 
d="M28 770v55h210v-55h-210zM96 0v680h73v-680h-73z" />
    <glyph glyph-name="Ibreve" unicode="&#x12c;" horiz-adv-x="265" 
d="M133 744c-77 0 -121 50 -131 116l57 10c9 -40 27 -71 74 -71s66 31 75 71l57 -10c-10 -66 -55 -116 -132 -116zM96 0v680h73v-680h-73z" />
    <glyph glyph-name="uni012D" unicode="&#x12d;" horiz-adv-x="222" 
d="M111 489c-77 0 -121 50 -131 116l57 10c9 -39 27 -70 74 -70s66 31 75 70l57 -10c-10 -66 -55 -116 -132 -116zM76 0v414h70v-414h-70z" />
    <glyph glyph-name="IJ" unicode="&#x132;" horiz-adv-x="748" 
d="M96 0v680h73v-680h-73zM474 -8c-91 0 -145 45 -176 102l59 37c26 -45 61 -74 114 -74c67 0 112 37 112 124v499h73v-501c0 -125 -77 -187 -182 -187z" />
    <glyph glyph-name="ij" unicode="&#x133;" horiz-adv-x="443" 
d="M111 534c-26 0 -50 20 -50 49s24 50 50 50s50 -21 50 -50s-24 -49 -50 -49zM76 0v414h70v-414h-70zM333 534c-26 0 -50 20 -50 49s24 50 50 50s50 -21 50 -50s-24 -49 -50 -49zM257 -222c-44 0 -73 20 -92 41l39 42c13 -12 25 -23 48 -23c28 0 46 17 46 63v513h70v-512
c0 -82 -45 -124 -111 -124z" />
    <glyph glyph-name="napostrophe" unicode="&#x149;" horiz-adv-x="638" 
d="M36 482l34 104c-18 6 -33 25 -33 48c0 30 25 53 52 53c28 0 53 -23 53 -53c0 -13 -5 -26 -13 -40l-55 -112h-38zM196 0v414h70l-2 -85c27 59 82 94 149 94c92 0 155 -63 155 -171v-252h-70v244c0 73 -34 115 -103 115c-77 0 -129 -49 -129 -131v-228h-70z" />
    <glyph glyph-name="Eng" unicode="&#x14a;" horiz-adv-x="682" 
d="M475 -221c-48 0 -77 22 -95 40l34 48c11 -11 28 -25 53 -25c31 0 48 16 48 66v535c0 119 -69 182 -174 182c-100 0 -175 -61 -175 -182v-443h-73v680h73v-99c38 72 109 107 194 107c138 0 228 -83 228 -238v-541c0 -92 -48 -130 -113 -130z" />
    <glyph glyph-name="eng" unicode="&#x14b;" 
d="M334 -221c-46 0 -75 19 -93 37l33 47c12 -11 28 -24 54 -24c28 0 48 17 48 69v336c0 73 -34 115 -103 115c-77 0 -129 -49 -129 -131v-228h-70v414h70l-2 -84c27 58 82 93 150 93c91 0 154 -63 154 -171v-343c0 -92 -49 -130 -112 -130z" />
    <glyph glyph-name="Obreve" unicode="&#x14e;" horiz-adv-x="807" 
d="M397 744c-77 0 -122 50 -132 116l57 10c9 -40 27 -71 75 -71c47 0 65 31 74 71l57 -10c-10 -66 -54 -116 -131 -116zM403 -8c-193 0 -349 143 -349 348s156 348 349 348c194 0 350 -143 350 -348s-156 -348 -350 -348zM403 57c159 0 275 121 275 283s-116 283 -275 283
c-158 0 -274 -121 -274 -283s116 -283 274 -283z" />
    <glyph glyph-name="obreve" unicode="&#x14f;" horiz-adv-x="533" 
d="M260 489c-77 0 -122 50 -132 116l57 10c9 -39 28 -70 75 -70s65 31 74 70l57 -10c-10 -66 -54 -116 -131 -116zM268 -8c-124 0 -220 94 -220 215s96 216 220 216c123 0 218 -95 218 -216s-95 -215 -218 -215zM268 52c88 0 147 66 147 155s-59 155 -147 155
c-89 0 -149 -66 -149 -155s60 -155 149 -155z" />
    <glyph glyph-name="Tbar" unicode="&#x166;" horiz-adv-x="556" 
d="M122 324v56h120v236h-209v64h490v-64h-209v-236h120v-56h-120v-324h-72v324h-120z" />
    <glyph glyph-name="tbar" unicode="&#x167;" horiz-adv-x="335" 
d="M35 205v57h63v96h-64v56h64v216h70v-216h115v-56h-115v-96h115v-57h-115v-81c0 -54 19 -72 48 -72c32 0 46 13 59 26l34 -47c-20 -21 -48 -40 -99 -40c-63 0 -112 36 -112 134v80h-63z" />
    <glyph glyph-name="Utilde" unicode="&#x168;" horiz-adv-x="662" 
d="M243 747l-52 5c4 72 38 111 87 111c28 0 46 -13 68 -32c25 -21 33 -28 49 -28c21 0 32 18 35 58l53 -5c-4 -71 -36 -110 -86 -110c-28 0 -46 13 -69 33c-25 21 -32 28 -48 28c-20 0 -33 -20 -37 -60zM331 -8c-139 0 -244 81 -244 240v448h72v-443
c0 -121 66 -181 172 -181c105 0 172 60 172 181v443h72v-448c0 -159 -106 -240 -244 -240z" />
    <glyph glyph-name="Wcircumflex" unicode="&#x174;" horiz-adv-x="953" 
d="M344 751l128 193h10l128 -193h-59l-73 101l-75 -101h-59zM260 -7l-225 687h77l143 -453c8 -29 18 -70 19 -74c1 4 11 46 22 74l177 460h12l177 -460c10 -28 21 -70 22 -74c1 4 10 46 19 74l142 453h73l-224 -687h-12l-183 484c-11 26 -19 63 -20 66
c-1 -3 -11 -40 -21 -66l-186 -484h-12z" />
    <glyph glyph-name="wcircumflex" unicode="&#x175;" horiz-adv-x="683" 
d="M195 -9l-170 423h76l89 -228c10 -25 17 -57 19 -63c1 5 9 38 21 63l108 234h9l110 -233c11 -26 20 -58 22 -64c0 6 8 39 19 64l89 227h71l-172 -423h-10l-114 249c-12 23 -19 57 -20 60c-1 -3 -10 -37 -20 -60l-117 -249h-10zM210 496l128 193h9l128 -193h-58l-74 101
l-75 -101h-58z" />
    <glyph glyph-name="Ycircumflex" unicode="&#x176;" horiz-adv-x="656" 
d="M294 0v213l-257 467h81l185 -338c14 -25 27 -65 29 -69c1 4 15 43 29 69l184 338h75l-252 -464v-216h-74zM202 751l128 193h10l128 -193h-59l-74 101l-74 -101h-59z" />
    <glyph glyph-name="ycircumflex" unicode="&#x177;" horiz-adv-x="462" 
d="M95 -212l106 247l-176 379h77l117 -257c10 -24 17 -61 19 -69c1 6 8 45 19 69l108 257h72l-270 -626h-72zM105 496l128 193h10l128 -193h-59l-74 101l-74 -101h-59z" />
    <glyph glyph-name="longs" unicode="&#x17f;" horiz-adv-x="291" 
d="M101 0v355h-67v59h67v188c0 93 47 133 115 133c52 0 82 -20 104 -51l-44 -43c-13 18 -26 31 -54 31c-30 0 -51 -17 -51 -70v-602h-70z" />
    <glyph glyph-name="uni0181" unicode="&#x181;" horiz-adv-x="665" 
d="M149 0v616h-29c-49 0 -68 -23 -68 -52c0 -26 13 -39 29 -51l-44 -36c-25 18 -45 47 -45 94c0 65 50 109 141 109h247c127 0 187 -75 187 -167c0 -67 -29 -116 -88 -135c88 -21 140 -88 140 -178c0 -113 -70 -200 -215 -200h-255zM222 64h177c104 0 147 59 147 138
s-47 138 -150 138h-174v-276zM222 403h163c79 0 110 44 110 106s-33 107 -120 107h-153v-213z" />
    <glyph glyph-name="uni0186" unicode="&#x186;" horiz-adv-x="726" 
d="M329 -8c-122 0 -220 52 -280 140l56 39c49 -71 126 -114 227 -114c159 0 271 121 271 283s-116 282 -274 282c-97 0 -171 -42 -215 -106l-54 40c57 84 152 132 272 132c193 0 347 -138 347 -348c0 -205 -154 -348 -350 -348z" />
    <glyph glyph-name="uni0187" unicode="&#x187;" horiz-adv-x="756" 
d="M749 730v-59c-10 4 -19 6 -33 6c-34 0 -49 -19 -49 -65v-118h-24c-59 89 -137 129 -237 129c-162 0 -277 -121 -277 -283s116 -283 274 -283c99 0 175 43 223 114l57 -39c-60 -88 -158 -140 -280 -140c-193 0 -349 143 -349 348s157 348 347 348c87 0 159 -22 213 -78
c-1 3 -3 17 -3 30c0 62 41 95 95 95c17 0 31 -2 43 -5z" />
    <glyph glyph-name="uni0188" unicode="&#x188;" horiz-adv-x="502" 
d="M505 503v-59c-10 4 -19 6 -33 6c-33 0 -50 -24 -50 -61v-100h-24c-32 52 -75 73 -132 73c-89 0 -146 -67 -146 -155c0 -87 55 -154 143 -154c57 0 93 23 119 54l48 -41c-39 -47 -90 -74 -167 -74c-122 0 -216 94 -216 215s94 216 216 216c39 0 74 -8 105 -32
c-2 5 -3 11 -3 16c0 66 43 102 98 102c16 0 30 -2 42 -6z" />
    <glyph glyph-name="uni0189" unicode="&#x189;" horiz-adv-x="680" 
d="M93 0v242h-79v64h79v374h173c221 0 360 -139 360 -340s-138 -340 -360 -340h-173zM166 65h95c194 0 289 113 289 275s-95 275 -289 275h-95v-309h182v-64h-182v-177z" />
    <glyph glyph-name="uni018A" unicode="&#x18a;" horiz-adv-x="736" 
d="M149 0v616h-24c-49 0 -74 -21 -74 -50c0 -27 13 -40 30 -53l-44 -34c-27 19 -47 48 -47 92c0 68 60 109 143 109h182c226 0 367 -134 367 -340s-140 -340 -367 -340h-166zM222 65h87c201 0 297 113 297 275s-96 275 -297 275h-87v-550z" />
    <glyph glyph-name="uni018E" unicode="&#x18e;" horiz-adv-x="580" 
d="M487 680v-680h-428v64h355v173h-304v63h304v316h-341v64h414z" />
    <glyph glyph-name="uni0191" unicode="&#x191;" horiz-adv-x="559" 
d="M57 -221c-48 0 -78 22 -95 40l33 48c12 -11 28 -25 54 -25c30 0 47 16 47 66v772h410v-64h-337v-319h306v-66h-306v-322c0 -92 -49 -130 -112 -130z" />
    <glyph glyph-name="uni0196" unicode="&#x196;" horiz-adv-x="290" 
d="M256 67l28 -52c-17 -11 -41 -23 -76 -23c-65 0 -112 36 -112 130v558h73v-559c0 -50 19 -66 47 -66c17 0 31 6 40 12z" />
    <glyph glyph-name="uni0197" unicode="&#x197;" horiz-adv-x="281" 
d="M102 0v358h-81v56h81v266h73v-266h85v-56h-85v-358h-73z" />
    <glyph glyph-name="uni0198" unicode="&#x198;" horiz-adv-x="607" 
d="M480 592l-186 -240l279 -352h-89l-238 298l-80 -98v-200h-73v680h73v-322c0 -30 -4 -67 -6 -89c15 28 34 64 47 81l222 284c31 40 63 54 99 54c37 0 66 -15 88 -41l-32 -47c-13 15 -26 27 -51 27c-23 0 -35 -11 -53 -35z" />
    <glyph glyph-name="uni0199" unicode="&#x199;" horiz-adv-x="464" 
d="M74 599c0 98 52 134 114 134c51 0 80 -21 98 -46l-37 -44c-12 16 -26 30 -55 30s-50 -17 -50 -73v-341c0 -22 -2 -44 -4 -59l198 214h80l-160 -174l184 -240h-83l-151 193l-64 -67v-126h-70v599z" />
    <glyph glyph-name="uni019D" unicode="&#x19d;" horiz-adv-x="720" 
d="M57 -221c-48 0 -76 22 -94 40l33 48c12 -11 29 -26 54 -26c31 0 49 17 49 67v779h13l405 -485c19 -21 44 -57 47 -61c0 2 -5 46 -5 75v464h68v-687h-13l-405 485c-19 21 -45 57 -47 60c0 -2 5 -45 5 -74v-555c0 -92 -46 -130 -110 -130z" />
    <glyph glyph-name="uni019E" unicode="&#x19e;" 
d="M74 0v414h70l-2 -84c27 58 82 93 150 93c91 0 154 -63 154 -171v-463h-70v455c0 73 -34 115 -103 115c-77 0 -129 -49 -129 -131v-228h-70z" />
    <glyph glyph-name="Ohorn" unicode="&#x1a0;" horiz-adv-x="807" 
d="M403 -8c-193 0 -349 143 -349 348s156 348 349 348c75 0 101 -10 150 -10c57 0 75 25 75 56c0 28 -15 51 -38 62l45 32c28 -16 56 -48 56 -94c0 -57 -33 -101 -106 -103c106 -55 168 -163 168 -291c0 -205 -156 -348 -350 -348zM403 57c159 0 275 121 275 283
s-116 283 -275 283c-158 0 -274 -121 -274 -283s116 -283 274 -283z" />
    <glyph glyph-name="ohorn" unicode="&#x1a1;" horiz-adv-x="537" 
d="M268 -8c-124 0 -221 94 -221 215s97 216 221 216c50 0 76 -8 116 -8c41 0 58 20 58 47c0 24 -15 44 -34 54l44 32c24 -14 51 -45 51 -92c0 -54 -37 -89 -97 -88c51 -35 80 -93 80 -161c0 -121 -95 -215 -218 -215zM268 52c88 0 146 67 146 155c0 89 -58 155 -146 155
c-89 0 -149 -66 -149 -155c0 -88 60 -155 149 -155z" />
    <glyph glyph-name="uni01A4" unicode="&#x1a4;" horiz-adv-x="640" 
d="M149 0v616h-29c-49 0 -68 -23 -68 -52c0 -25 12 -38 29 -51l-44 -36c-25 19 -45 47 -45 94c0 65 50 109 141 109h171c186 0 280 -103 280 -256c0 -150 -95 -255 -280 -255h-82v-169h-73zM222 233h78c152 0 209 79 209 191s-57 192 -209 192h-78v-383z" />
    <glyph glyph-name="uni01A5" unicode="&#x1a5;" horiz-adv-x="551" 
d="M145 414c0 -30 -1 -67 -3 -89c29 57 86 98 163 98c113 0 198 -92 198 -215c0 -124 -86 -216 -199 -216c-74 0 -133 40 -159 93v-297h-70v693c0 99 51 135 114 135c50 0 79 -22 97 -47l-36 -44c-13 17 -27 30 -55 30c-30 0 -50 -16 -50 -73v-68zM288 54
c87 0 143 64 143 154c0 89 -56 153 -143 153c-88 0 -147 -64 -147 -153c0 -90 59 -154 147 -154z" />
    <glyph glyph-name="uni01AA" unicode="&#x1aa;" horiz-adv-x="231" 
d="M190 -221c-65 0 -111 36 -111 130v637c-11 -9 -25 -13 -39 -13c-57 0 -102 44 -102 100s47 100 106 100c62 0 105 -44 105 -98v-727c0 -52 20 -66 48 -66c26 0 42 15 54 25l32 -48c-18 -18 -44 -40 -93 -40zM44 577c32 0 54 21 54 56c0 34 -22 55 -54 55
c-31 0 -54 -21 -54 -55c0 -35 23 -56 54 -56z" />
    <glyph glyph-name="uni01AC" unicode="&#x1ac;" horiz-adv-x="562" 
d="M248 0v616h-114c-49 0 -67 -23 -67 -52c0 -25 11 -38 28 -51l-44 -36c-25 19 -45 47 -45 94c0 65 51 109 142 109h382v-64h-209v-616h-73z" />
    <glyph glyph-name="uni01AD" unicode="&#x1ad;" horiz-adv-x="335" 
d="M168 414h116v-59h-116v-231c0 -54 19 -72 49 -72c31 0 46 13 59 26l34 -47c-21 -21 -49 -40 -100 -40c-63 0 -111 36 -111 134v230h-64v59h64v185c0 98 51 134 113 134c51 0 80 -22 98 -46l-37 -44c-12 16 -26 29 -55 29s-50 -16 -50 -73v-185z" />
    <glyph glyph-name="uni01AE" unicode="&#x1ae;" horiz-adv-x="556" 
d="M354 -221c-64 0 -112 38 -112 130v707h-209v64h490v-64h-208v-708c0 -50 16 -66 47 -66c25 0 42 14 54 25l33 -48c-18 -18 -47 -40 -95 -40z" />
    <glyph glyph-name="Uhorn" unicode="&#x1af;" horiz-adv-x="682" 
d="M331 -8c-139 0 -244 81 -244 240v448h73v-443c0 -121 65 -180 171 -180c105 0 171 59 171 180v443h55c51 0 73 25 73 54c0 30 -19 48 -35 60l44 37c25 -19 55 -53 55 -101c0 -60 -39 -104 -119 -110v-388c0 -159 -106 -240 -244 -240z" />
    <glyph glyph-name="uni01B2" unicode="&#x1b2;" horiz-adv-x="662" 
d="M331 -8c-139 0 -244 81 -244 240v448h73v-443c0 -121 65 -180 171 -180c105 0 171 59 171 180v270h1v49c0 58 -21 74 -50 74s-43 -13 -55 -29l-37 44c18 25 49 46 99 46c62 0 115 -33 115 -131v-328c0 -159 -106 -240 -244 -240z" />
    <glyph glyph-name="uni01B3" unicode="&#x1b3;" horiz-adv-x="682" 
d="M294 0v213l-257 467h81l185 -337c14 -26 27 -66 29 -70c1 4 15 44 29 70l152 279c25 48 58 69 108 69c41 0 76 -16 95 -55l-37 -40c-11 21 -26 34 -53 34c-25 0 -39 -12 -53 -36l-205 -378v-216h-74z" />
    <glyph glyph-name="uni01B4" unicode="&#x1b4;" horiz-adv-x="517" 
d="M447 424c42 0 72 -15 92 -37l-33 -50c-12 14 -27 27 -53 27s-42 -13 -55 -43l-231 -533h-71l106 245l-177 381h76l117 -258c9 -23 18 -58 20 -66c1 7 9 43 20 66l83 197c23 54 60 71 106 71z" />
    <glyph glyph-name="uni01B5" unicode="&#x1b5;" horiz-adv-x="583" 
d="M120 289v58h130l170 269h-327v64h438v-11l-202 -322h102v-58h-139l-141 -225h382v-64h-494v11l175 278h-94z" />
    <glyph glyph-name="uni01B6" unicode="&#x1b6;" horiz-adv-x="418" 
d="M87 178v52h101l89 126h-219v58h326v-11l-124 -173h68v-52h-105l-85 -120h241v-58h-347v10l119 168h-64z" />
    <glyph glyph-name="uni01C0" unicode="&#x1c0;" horiz-adv-x="265" 
d="M96 0v680h73v-680h-73z" />
    <glyph glyph-name="uni01C1" unicode="&#x1c1;" horiz-adv-x="531" 
d="M96 0v680h73v-680h-73zM361 0v680h73v-680h-73z" />
    <glyph glyph-name="uni01C2" unicode="&#x1c2;" horiz-adv-x="272" 
d="M33 323v81h66v276h73v-276h67v-81h-67v-323h-73v323h-66z" />
    <glyph glyph-name="uni01C3" unicode="&#x1c3;" horiz-adv-x="243" 
d="M94 190l-12 490h79l-12 -490h-55zM122 -7c-28 0 -53 23 -53 54c0 30 25 53 53 53s53 -23 53 -53c0 -31 -25 -54 -53 -54z" />
    <glyph glyph-name="uni01C4" unicode="&#x1c4;" horiz-adv-x="1231" 
d="M950 743l-128 193h59l73 -102l75 102h59l-128 -193h-10zM687 0v11l380 605h-326v64h438v-11l-379 -605h381v-64h-494zM93 0v680h165c227 0 368 -134 368 -340s-140 -340 -368 -340h-165zM165 65h88c201 0 297 113 297 275s-96 275 -297 275h-88v-550z" />
    <glyph glyph-name="uni01C5" unicode="&#x1c5;" horiz-adv-x="1088" 
d="M889 488l-127 193h58l74 -102l74 102h59l-128 -193h-10zM701 0v10l239 346h-213v58h326v-11l-241 -345h236v-58h-347zM93 0v680h165c227 0 368 -134 368 -340s-140 -340 -368 -340h-165zM165 65h88c201 0 297 113 297 275s-96 275 -297 275h-88v-550z" />
    <glyph glyph-name="uni01C6" unicode="&#x1c6;" horiz-adv-x="970" 
d="M771 488l-128 193h59l73 -102l75 102h58l-127 -193h-10zM583 0v10l239 346h-213v58h326v-11l-241 -345h236v-58h-347zM249 -8c-113 0 -201 92 -201 216c0 123 88 215 200 215c79 0 129 -39 159 -94v393h69v-722h-69l2 89c-28 -57 -86 -97 -160 -97zM263 53
c88 0 147 65 147 155c0 89 -59 153 -147 153c-87 0 -143 -64 -143 -153c0 -90 56 -155 143 -155z" />
    <glyph glyph-name="uni01C7" unicode="&#x1c7;" horiz-adv-x="1017" 
d="M744 -8c-91 0 -145 45 -176 102l59 37c26 -45 61 -74 114 -74c67 0 112 37 112 124v499h73v-501c0 -125 -77 -187 -182 -187zM93 0v680h72v-616h321v-64h-393z" />
    <glyph glyph-name="uni01C8" unicode="&#x1c8;" horiz-adv-x="749" 
d="M639 534c-26 0 -50 20 -50 49s24 50 50 50s50 -21 50 -50s-24 -49 -50 -49zM563 -222c-44 0 -73 20 -92 41l39 42c13 -12 25 -23 48 -23c28 0 46 17 46 63v513h70v-512c0 -82 -45 -124 -111 -124zM93 0v680h72v-616h321v-64h-393z" />
    <glyph glyph-name="uni01C9" unicode="&#x1c9;" horiz-adv-x="449" 
d="M339 534c-26 0 -50 20 -50 49s24 50 50 50s50 -21 50 -50s-24 -49 -50 -49zM263 -222c-44 0 -73 20 -92 41l39 42c13 -12 25 -23 48 -23c28 0 46 17 46 63v513h70v-512c0 -82 -45 -124 -111 -124zM79 0v722h70v-722h-70z" />
    <glyph glyph-name="uni01CA" unicode="&#x1ca;" horiz-adv-x="1196" 
d="M922 -8c-91 0 -145 45 -176 102l59 37c26 -45 61 -74 114 -74c67 0 112 37 112 124v499h73v-501c0 -125 -77 -187 -182 -187zM608 -7l-406 480c-18 21 -44 57 -47 62c0 -5 6 -49 6 -76v-459h-68v687h12l406 -480c18 -22 44 -59 47 -63c0 2 -5 48 -5 77v459h67v-687h-12z
" />
    <glyph glyph-name="uni01CB" unicode="&#x1cb;" horiz-adv-x="928" 
d="M817 534c-26 0 -50 20 -50 49s24 50 50 50s50 -21 50 -50s-24 -49 -50 -49zM741 -222c-44 0 -73 20 -92 41l39 42c13 -12 25 -23 48 -23c28 0 46 17 46 63v513h70v-512c0 -82 -45 -124 -111 -124zM608 -7l-406 480c-18 21 -44 57 -47 62c0 -5 6 -49 6 -76v-459h-68v687
h12l406 -480c18 -22 44 -59 47 -63c0 2 -5 48 -5 77v459h67v-687h-12z" />
    <glyph glyph-name="uni01CC" unicode="&#x1cc;" horiz-adv-x="737" 
d="M627 534c-26 0 -50 20 -50 49s24 50 50 50s50 -21 50 -50s-24 -49 -50 -49zM551 -222c-44 0 -73 20 -92 41l39 42c13 -12 25 -23 48 -23c28 0 46 17 46 63v513h70v-512c0 -82 -45 -124 -111 -124zM74 0v414h70l-2 -85c27 59 82 94 149 94c92 0 155 -63 155 -171v-252h-70
v244c0 73 -34 115 -103 115c-77 0 -129 -49 -129 -131v-228h-70z" />
    <glyph glyph-name="uni01CD" unicode="&#x1cd;" horiz-adv-x="655" 
d="M318 743l-128 193h59l74 -102l74 102h59l-128 -193h-10zM37 0l282 687h12l288 -687h-76l-46 114h-344l-45 -114h-71zM178 176h293l-120 302c-12 29 -25 73 -26 80c-2 -5 -15 -50 -27 -80z" />
    <glyph glyph-name="uni01CF" unicode="&#x1cf;" horiz-adv-x="265" 
d="M128 743l-128 193h59l73 -102l75 102h58l-128 -193h-9zM96 0v680h73v-680h-73z" />
    <glyph glyph-name="uni01D0" unicode="&#x1d0;" horiz-adv-x="222" 
d="M106 488l-127 193h58l74 -102l74 102h59l-128 -193h-10zM76 0v414h70v-414h-70z" />
    <glyph glyph-name="uni01D1" unicode="&#x1d1;" horiz-adv-x="807" 
d="M394 743l-128 193h59l73 -102l75 102h58l-127 -193h-10zM403 -8c-193 0 -349 143 -349 348s156 348 349 348c194 0 350 -143 350 -348s-156 -348 -350 -348zM403 57c159 0 275 121 275 283s-116 283 -275 283c-158 0 -274 -121 -274 -283s116 -283 274 -283z" />
    <glyph glyph-name="uni01D2" unicode="&#x1d2;" horiz-adv-x="533" 
d="M264 488l-128 193h58l74 -102l75 102h58l-128 -193h-9zM268 -8c-124 0 -220 94 -220 215s96 216 220 216c123 0 218 -95 218 -216s-95 -215 -218 -215zM268 52c88 0 147 66 147 155s-59 155 -147 155c-89 0 -149 -66 -149 -155s60 -155 149 -155z" />
    <glyph glyph-name="uni01D3" unicode="&#x1d3;" horiz-adv-x="662" 
d="M327 743l-128 193h59l73 -102l75 102h59l-128 -193h-10zM331 -8c-139 0 -244 81 -244 240v448h72v-443c0 -121 66 -181 172 -181c105 0 172 60 172 181v443h72v-448c0 -159 -106 -240 -244 -240z" />
    <glyph glyph-name="uni01D5" unicode="&#x1d5;" horiz-adv-x="662" 
d="M225 908v55h211v-55h-211zM417 771c-24 0 -46 20 -46 46s22 46 46 46c25 0 47 -20 47 -46s-22 -46 -47 -46zM244 771c-24 0 -46 20 -46 46s22 46 46 46c25 0 46 -20 46 -46s-21 -46 -46 -46zM331 -8c-139 0 -244 81 -244 240v448h73v-443c0 -121 65 -180 171 -180
c105 0 171 59 171 180v443h73v-448c0 -159 -106 -240 -244 -240z" />
    <glyph glyph-name="uni01D7" unicode="&#x1d7;" horiz-adv-x="662" 
d="M300 904l68 193h81l-93 -193h-56zM417 771c-24 0 -46 20 -46 46s22 46 46 46c25 0 47 -20 47 -46s-22 -46 -47 -46zM244 771c-24 0 -46 20 -46 46s22 46 46 46c25 0 46 -20 46 -46s-21 -46 -46 -46zM331 -8c-139 0 -244 81 -244 240v448h73v-443c0 -121 65 -180 171 -180
c105 0 171 59 171 180v443h73v-448c0 -159 -106 -240 -244 -240z" />
    <glyph glyph-name="uni01D9" unicode="&#x1d9;" horiz-adv-x="662" 
d="M327 894l-128 193h59l73 -102l75 102h58l-128 -193h-9zM417 771c-24 0 -46 20 -46 46s22 46 46 46c25 0 47 -20 47 -46s-22 -46 -47 -46zM244 771c-24 0 -46 20 -46 46s22 46 46 46c25 0 46 -20 46 -46s-21 -46 -46 -46zM331 -8c-139 0 -244 81 -244 240v448h73v-443
c0 -121 65 -180 171 -180c105 0 171 59 171 180v443h73v-448c0 -159 -106 -240 -244 -240z" />
    <glyph glyph-name="uni01DB" unicode="&#x1db;" horiz-adv-x="662" 
d="M300 904l-93 193h81l68 -193h-56zM417 771c-24 0 -46 20 -46 46s22 46 46 46c25 0 47 -20 47 -46s-22 -46 -47 -46zM244 771c-24 0 -46 20 -46 46s22 46 46 46c25 0 46 -20 46 -46s-21 -46 -46 -46zM331 -8c-139 0 -244 81 -244 240v448h73v-443c0 -121 65 -180 171 -180
c105 0 171 59 171 180v443h73v-448c0 -159 -106 -240 -244 -240z" />
    <glyph glyph-name="uni01DD" unicode="&#x1dd;" 
d="M401 231c-6 81 -64 132 -154 132c-62 0 -105 -24 -133 -55l-38 44c38 41 95 71 173 71c137 0 222 -94 222 -216c0 -121 -92 -215 -213 -215c-133 0 -214 102 -209 239h352zM400 178h-281c7 -71 51 -127 137 -127c80 0 134 50 144 127z" />
    <glyph glyph-name="uni01DE" unicode="&#x1de;" horiz-adv-x="655" 
d="M37 0l282 687h12l288 -687h-76l-46 114h-344l-45 -114h-71zM178 176h293l-120 301c-12 29 -25 74 -26 81c-2 -5 -15 -51 -27 -81zM222 908v55h210v-55h-210zM241 771c-25 0 -47 20 -47 46s22 46 47 46c24 0 46 -20 46 -46s-22 -46 -46 -46zM414 771c-24 0 -46 20 -46 46
s22 46 46 46s46 -20 46 -46s-22 -46 -46 -46z" />
    <glyph glyph-name="uni01E2" unicode="&#x1e2;" horiz-adv-x="953" 
d="M27 0l454 680h399v-64h-341v-316h304v-63h-304v-173h355v-64h-428v114h-286l-75 -114h-78zM223 178h243v307c0 33 5 78 6 84c-2 -5 -20 -45 -40 -74zM509 770v55h211v-55h-211z" />
    <glyph glyph-name="uni01E3" unicode="&#x1e3;" horiz-adv-x="799" 
d="M282 515v55h210v-55h-210zM331 240v12c0 81 -36 112 -97 112c-58 0 -95 -25 -121 -60l-43 39c36 49 90 80 169 80c68 0 116 -34 137 -94c34 53 94 94 168 94c134 0 213 -102 209 -235h-353c8 -79 62 -137 154 -137c62 0 104 25 132 55l42 -42c-38 -43 -93 -72 -173 -72
c-85 0 -148 38 -182 97c-22 -66 -95 -97 -167 -97c-94 0 -161 40 -161 125c0 86 72 123 157 123h129zM402 240h280c-6 65 -50 124 -137 124c-78 0 -131 -52 -143 -124zM331 188h-124c-52 0 -94 -17 -94 -68c0 -48 34 -71 100 -71c64 0 118 35 118 89v50z" />
    <glyph glyph-name="ae" unicode="&#xe6;" horiz-adv-x="799" 
d="M331 240v12c0 81 -36 112 -97 112c-58 0 -95 -25 -121 -60l-43 39c36 49 90 80 169 80c68 0 116 -34 137 -94c34 53 94 94 168 94c134 0 213 -102 209 -235h-353c8 -79 62 -137 154 -137c62 0 104 25 132 55l42 -42c-38 -43 -93 -72 -173 -72c-85 0 -148 38 -182 97
c-22 -66 -95 -97 -167 -97c-94 0 -161 40 -161 125c0 86 72 123 157 123h129zM402 240h280c-6 65 -50 124 -137 124c-78 0 -131 -52 -143 -124zM331 188h-124c-52 0 -94 -17 -94 -68c0 -48 34 -71 100 -71c64 0 118 35 118 89v50z" />
    <glyph glyph-name="uni01EA" unicode="&#x1ea;" horiz-adv-x="807" 
d="M437 -232c-50 0 -94 32 -94 93c0 45 22 92 83 135c-195 -21 -372 129 -372 344c0 205 156 348 349 348c194 0 350 -143 350 -348c0 -153 -87 -268 -210 -321c-107 -47 -145 -110 -145 -155c0 -35 21 -49 44 -49c25 0 39 17 50 36l42 -24c-17 -33 -45 -59 -97 -59zM403 57
c159 0 275 121 275 283s-116 283 -275 283c-158 0 -274 -121 -274 -283s116 -283 274 -283z" />
    <glyph glyph-name="uni01EB" unicode="&#x1eb;" horiz-adv-x="533" 
d="M486 207c0 -86 -47 -157 -120 -194c-102 -50 -123 -112 -123 -147c0 -37 22 -51 46 -51s37 17 49 36l42 -24c-17 -33 -45 -59 -96 -59s-96 32 -96 93c0 38 17 92 82 135c-126 -8 -223 93 -223 211c0 121 97 216 221 216c123 0 218 -95 218 -216zM268 52
c88 0 146 67 146 155c0 89 -58 155 -146 155c-89 0 -149 -66 -149 -155c0 -88 60 -155 149 -155z" />
    <glyph glyph-name="uni01F0" unicode="&#x1f0;" horiz-adv-x="222" 
d="M106 488l-127 193h58l74 -102l74 102h59l-128 -193h-10zM35 -222c-44 0 -75 20 -92 41l37 43c13 -13 27 -24 50 -24c28 0 46 18 46 63v513h70v-512c0 -82 -45 -124 -111 -124z" />
    <glyph glyph-name="uni0237" unicode="&#x237;" horiz-adv-x="222" 
d="M35 -222c-44 0 -75 20 -92 41l37 43c13 -13 27 -24 50 -24c28 0 46 18 46 63v513h70v-512c0 -82 -45 -124 -111 -124z" />
    <glyph glyph-name="uni01F1" unicode="&#x1f1;" horiz-adv-x="1229" 
d="M687 0v11l380 605h-326v64h438v-11l-379 -605h381v-64h-494zM93 0v680h165c227 0 368 -134 368 -340s-140 -340 -368 -340h-165zM165 65h88c201 0 297 113 297 275s-96 275 -297 275h-88v-550z" />
    <glyph glyph-name="uni01F2" unicode="&#x1f2;" horiz-adv-x="1087" 
d="M701 0v10l239 346h-213v58h326v-11l-241 -345h236v-58h-347zM93 0v680h165c227 0 368 -134 368 -340s-140 -340 -368 -340h-165zM165 65h88c201 0 297 113 297 275s-96 275 -297 275h-88v-550z" />
    <glyph glyph-name="uni01F3" unicode="&#x1f3;" horiz-adv-x="969" 
d="M583 0v10l239 346h-213v58h326v-11l-241 -345h236v-58h-347zM249 -8c-113 0 -201 92 -201 216c0 123 88 215 200 215c79 0 129 -39 159 -94v393h69v-722h-69l2 89c-28 -57 -86 -97 -160 -97zM263 53c88 0 147 65 147 155c0 89 -59 153 -147 153c-87 0 -143 -64 -143 -153
c0 -90 56 -155 143 -155z" />
    <glyph glyph-name="uni01F8" unicode="&#x1f8;" horiz-adv-x="713" 
d="M342 753l-93 192h81l67 -192h-55zM608 -7l-406 480c-18 21 -44 57 -47 62c0 -5 6 -49 6 -76v-459h-68v687h12l406 -480c18 -22 44 -59 47 -63c0 2 -5 48 -5 77v459h67v-687h-12z" />
    <glyph glyph-name="uni01F9" unicode="&#x1f9;" 
d="M247 498l-93 193h81l67 -193h-55zM74 0v414h70l-2 -85c27 59 82 94 149 94c92 0 155 -63 155 -171v-252h-70v244c0 73 -34 115 -103 115c-77 0 -129 -49 -129 -131v-228h-70z" />
    <glyph glyph-name="Aringacute" unicode="&#x1fa;" horiz-adv-x="655" 
d="M37 0l282 687h12l288 -687h-76l-46 114h-344l-45 -114h-71zM178 176h293l-120 301c-12 29 -25 74 -26 81c-2 -5 -15 -51 -27 -81zM326 691c-58 0 -105 46 -105 101c0 56 47 101 105 101c59 0 106 -45 106 -101c0 -55 -47 -101 -106 -101zM326 736c31 0 53 22 53 56
c0 35 -22 56 -53 56c-30 0 -53 -21 -53 -56c0 -34 23 -56 53 -56zM298 924l37 107h75l-56 -107h-56z" />
    <glyph glyph-name="AEacute" unicode="&#x1fc;" horiz-adv-x="953" 
d="M27 0l454 680h399v-64h-341v-316h304v-63h-304v-173h355v-64h-428v114h-286l-75 -114h-78zM223 178h243v307c0 33 5 78 6 84c-2 -5 -20 -45 -40 -74zM494 753l68 192h81l-94 -192h-55z" />
    <glyph glyph-name="aeacute" unicode="&#x1fd;" horiz-adv-x="799" 
d="M339 498l68 193h81l-93 -193h-56zM331 240v12c0 81 -36 112 -97 112c-58 0 -95 -25 -121 -60l-43 39c36 49 90 80 169 80c68 0 116 -34 137 -94c34 53 94 94 168 94c134 0 213 -102 209 -235h-353c8 -79 62 -137 154 -137c62 0 104 25 132 55l42 -42
c-38 -43 -93 -72 -173 -72c-85 0 -148 38 -182 97c-22 -66 -95 -97 -167 -97c-94 0 -161 40 -161 125c0 86 72 123 157 123h129zM402 240h280c-6 65 -50 124 -137 124c-78 0 -131 -52 -143 -124zM331 188h-124c-52 0 -94 -17 -94 -68c0 -48 34 -71 100 -71
c64 0 118 35 118 89v50z" />
    <glyph glyph-name="Oslashacute" unicode="&#x1fe;" horiz-adv-x="807" 
d="M94 -10l-42 41l83 83c-50 60 -81 137 -81 226c0 201 156 348 349 348c87 0 166 -29 227 -81l82 82l43 -41l-83 -82c50 -60 81 -137 81 -226c0 -201 -156 -348 -350 -348c-86 0 -166 29 -226 81zM403 57c159 0 275 121 275 283c0 68 -21 129 -57 175l-396 -395
c47 -40 109 -63 178 -63zM186 165l395 394c-46 40 -108 64 -178 64c-158 0 -274 -121 -274 -283c0 -68 21 -129 57 -175zM382 753l68 192h81l-93 -192h-56z" />
    <glyph glyph-name="oslashacute" unicode="&#x1ff;" horiz-adv-x="533" 
d="M241 498l68 193h81l-94 -193h-55zM443 337c27 -36 43 -81 43 -130c0 -121 -95 -215 -218 -215c-55 0 -104 19 -143 51l-60 -56l-32 36l59 54c-28 36 -45 81 -45 130c0 121 97 216 221 216c54 0 104 -19 142 -51l58 54l32 -36zM142 121l221 209c-25 21 -58 33 -95 33
c-90 0 -151 -66 -151 -156c0 -32 9 -61 25 -86zM393 292l-222 -208c25 -21 58 -33 97 -33c89 0 149 67 149 156c0 32 -9 62 -24 85z" />
    <glyph glyph-name="uni0200" unicode="&#x200;" horiz-adv-x="655" 
d="M222 945l67 -192h-55l-88 192h76zM361 945l67 -192h-55l-88 192h76zM37 0l282 687h12l288 -687h-76l-46 114h-344l-45 -114h-71zM178 176h293l-120 302c-12 29 -25 73 -26 80c-2 -5 -15 -50 -27 -80z" />
    <glyph glyph-name="uni0202" unicode="&#x202;" horiz-adv-x="655" 
d="M324 870c77 0 122 -50 132 -116l-57 -10c-9 39 -28 70 -75 70s-65 -31 -74 -70l-57 10c10 66 54 116 131 116zM37 0l282 687h12l288 -687h-76l-46 114h-344l-45 -114h-71zM178 176h293l-120 302c-12 29 -25 73 -26 80c-2 -5 -15 -50 -27 -80z" />
    <glyph glyph-name="uni0204" unicode="&#x204;" horiz-adv-x="580" 
d="M211 945l67 -192h-56l-88 192h77zM350 945l67 -192h-56l-88 192h77zM93 0v680h414v-64h-342v-319h305v-63h-305v-170h356v-64h-428z" />
    <glyph glyph-name="uni0205" unicode="&#x205;" 
d="M158 691l67 -193h-55l-88 193h76zM297 691l67 -193h-55l-88 193h76zM118 184c9 -79 63 -133 154 -133c62 0 104 25 131 55l43 -42c-38 -43 -93 -72 -174 -72c-136 0 -224 94 -224 215s93 216 214 216c133 0 213 -102 208 -239h-352zM119 237h281c-6 71 -51 127 -138 127
c-79 0 -132 -51 -143 -127z" />
    <glyph glyph-name="uni0206" unicode="&#x206;" horiz-adv-x="580" 
d="M306 870c77 0 121 -50 132 -116l-57 -10c-10 39 -28 70 -75 70s-66 -31 -75 -70l-57 10c10 66 55 116 132 116zM93 0v680h414v-64h-342v-319h305v-63h-305v-170h356v-64h-428z" />
    <glyph glyph-name="uni0207" unicode="&#x207;" 
d="M262 615c77 0 121 -50 131 -116l-57 -10c-9 40 -27 71 -74 71s-66 -31 -75 -71l-57 10c10 66 55 116 132 116zM118 184c9 -79 63 -133 154 -133c62 0 104 25 131 55l43 -42c-38 -43 -93 -72 -174 -72c-136 0 -224 94 -224 215s93 216 214 216c133 0 213 -102 208 -239
h-352zM119 237h281c-6 71 -51 127 -138 127c-79 0 -132 -51 -143 -127z" />
    <glyph glyph-name="uni0208" unicode="&#x208;" horiz-adv-x="265" 
d="M33 945l67 -192h-55l-88 192h76zM172 945l67 -192h-55l-88 192h76zM96 0v680h73v-680h-73z" />
    <glyph glyph-name="uni0209" unicode="&#x209;" horiz-adv-x="222" 
d="M14 691l68 -193h-56l-88 193h76zM153 691l68 -193h-56l-88 193h76zM76 0v414h70v-414h-70z" />
    <glyph glyph-name="uni020A" unicode="&#x20a;" horiz-adv-x="265" 
d="M134 870c77 0 121 -50 131 -116l-57 -10c-9 39 -27 70 -74 70s-66 -31 -75 -70l-57 10c10 66 55 116 132 116zM96 0v680h73v-680h-73z" />
    <glyph glyph-name="uni020B" unicode="&#x20b;" horiz-adv-x="222" 
d="M112 615c77 0 121 -50 131 -116l-57 -10c-9 40 -27 71 -74 71s-66 -31 -75 -71l-57 10c10 66 55 116 132 116zM76 0v414h70v-414h-70z" />
    <glyph glyph-name="uni020C" unicode="&#x20c;" horiz-adv-x="807" 
d="M297 945l67 -192h-56l-88 192h77zM436 945l67 -192h-56l-88 192h77zM403 -8c-193 0 -349 143 -349 348s156 348 349 348c194 0 350 -143 350 -348s-156 -348 -350 -348zM403 57c159 0 275 121 275 283s-116 283 -275 283c-158 0 -274 -121 -274 -283s116 -283 274 -283z
" />
    <glyph glyph-name="uni020D" unicode="&#x20d;" horiz-adv-x="533" 
d="M174 691l67 -193h-55l-88 193h76zM313 691l67 -193h-55l-88 193h76zM268 -8c-124 0 -220 94 -220 215s96 216 220 216c123 0 218 -95 218 -216s-95 -215 -218 -215zM268 52c88 0 147 66 147 155s-59 155 -147 155c-89 0 -149 -66 -149 -155s60 -155 149 -155z" />
    <glyph glyph-name="uni020E" unicode="&#x20e;" horiz-adv-x="807" 
d="M404 870c77 0 122 -50 132 -116l-57 -10c-9 39 -27 70 -75 70c-47 0 -65 -31 -74 -70l-57 10c10 66 54 116 131 116zM403 -8c-193 0 -349 143 -349 348s156 348 349 348c194 0 350 -143 350 -348s-156 -348 -350 -348zM403 57c159 0 275 121 275 283s-116 283 -275 283
c-158 0 -274 -121 -274 -283s116 -283 274 -283z" />
    <glyph glyph-name="uni020F" unicode="&#x20f;" horiz-adv-x="533" 
d="M266 615c77 0 121 -50 131 -116l-57 -10c-9 40 -27 71 -74 71c-48 0 -66 -31 -75 -71l-57 10c10 66 55 116 132 116zM268 -8c-124 0 -220 94 -220 215s96 216 220 216c123 0 218 -95 218 -216s-95 -215 -218 -215zM268 52c88 0 147 66 147 155s-59 155 -147 155
c-89 0 -149 -66 -149 -155s60 -155 149 -155z" />
    <glyph glyph-name="uni0210" unicode="&#x210;" horiz-adv-x="596" 
d="M193 945l68 -192h-56l-88 192h76zM332 945l68 -192h-56l-88 192h76zM386 209l148 -209h-85l-131 186c-23 -4 -48 -6 -72 -6h-81v-180h-72v680h153c186 0 282 -104 282 -251c0 -102 -48 -182 -142 -220zM165 243h77c154 0 211 79 211 186s-58 187 -211 187h-77v-373z" />
    <glyph glyph-name="uni0211" unicode="&#x211;" horiz-adv-x="357" 
d="M116 691l67 -193h-55l-88 193h76zM255 691l67 -193h-55l-88 193h76zM74 0v414h70l-2 -81c26 63 72 89 121 89c31 0 53 -7 72 -20l-27 -61c-13 9 -31 16 -57 16c-59 0 -107 -42 -107 -139v-218h-70z" />
    <glyph glyph-name="uni0212" unicode="&#x212;" horiz-adv-x="596" 
d="M290 870c77 0 122 -50 132 -116l-57 -10c-9 39 -28 70 -75 70s-65 -31 -74 -70l-57 10c10 66 54 116 131 116zM386 209l148 -209h-85l-131 186c-23 -4 -48 -6 -72 -6h-81v-180h-72v680h153c186 0 282 -104 282 -251c0 -102 -48 -182 -142 -220zM165 243h77
c154 0 211 79 211 186s-58 187 -211 187h-77v-373z" />
    <glyph glyph-name="uni0213" unicode="&#x213;" horiz-adv-x="357" 
d="M199 615c77 0 122 -50 132 -116l-57 -10c-9 40 -28 71 -75 71s-65 -31 -74 -71l-57 10c10 66 54 116 131 116zM74 0v414h70l-2 -81c26 63 72 89 121 89c31 0 53 -7 72 -20l-27 -61c-13 9 -31 16 -57 16c-59 0 -107 -42 -107 -139v-218h-70z" />
    <glyph glyph-name="uni0214" unicode="&#x214;" horiz-adv-x="662" 
d="M237 945l68 -192h-56l-88 192h76zM376 945l68 -192h-56l-88 192h76zM331 -8c-139 0 -244 81 -244 240v448h72v-443c0 -121 66 -181 172 -181c105 0 172 60 172 181v443h72v-448c0 -159 -106 -240 -244 -240z" />
    <glyph glyph-name="uni0216" unicode="&#x216;" horiz-adv-x="662" 
d="M337 870c77 0 122 -50 132 -116l-57 -10c-9 39 -28 70 -75 70s-65 -31 -74 -70l-57 10c10 66 54 116 131 116zM331 -8c-139 0 -244 81 -244 240v448h72v-443c0 -121 66 -181 172 -181c105 0 172 60 172 181v443h72v-448c0 -159 -106 -240 -244 -240z" />
    <glyph glyph-name="uni021E" unicode="&#x21e;" horiz-adv-x="693" 
d="M347 743l-128 193h59l73 -102l75 102h58l-127 -193h-10zM93 0v680h72v-383h364v383h72v-680h-72v231h-364v-231h-72z" />
    <glyph glyph-name="uni021F" unicode="&#x21f;" 
d="M267 743l-128 193h58l74 -102l75 102h58l-128 -193h-9zM74 0v722h70v-389c26 55 80 90 147 90c92 0 155 -63 155 -171v-252h-70v244c0 73 -34 115 -103 115c-77 0 -129 -49 -129 -131v-228h-70z" />
    <glyph glyph-name="uni0220" unicode="&#x220;" horiz-adv-x="681" 
d="M360 688c138 0 228 -83 228 -238v-661h-73v654c0 119 -69 182 -174 182c-100 0 -175 -61 -175 -182v-443h-73v680h73v-99c38 72 109 107 194 107z" />
    <glyph glyph-name="uni0226" unicode="&#x226;" horiz-adv-x="655" 
d="M326 770c-24 0 -47 20 -47 47s23 47 47 47s47 -20 47 -47s-23 -47 -47 -47zM37 0l282 687h12l288 -687h-76l-46 114h-344l-45 -114h-71zM178 176h293l-120 302c-12 29 -25 73 -26 80c-2 -5 -15 -50 -27 -80z" />
    <glyph glyph-name="uni0228" unicode="&#x228;" horiz-adv-x="580" 
d="M93 0v680h414v-64h-342v-319h305v-63h-305v-170h356v-64h-196v-53c43 -6 83 -37 83 -91c0 -56 -47 -88 -95 -88c-53 0 -86 27 -102 59l41 25c10 -21 24 -39 56 -39c25 0 47 16 47 47c0 27 -18 48 -55 48h-21v92h-186z" />
    <glyph glyph-name="uni0229" unicode="&#x229;" 
d="M118 184c9 -79 63 -133 154 -133c62 0 104 25 131 55l43 -42c-37 -41 -88 -69 -163 -72v-45c43 -6 83 -37 83 -91c0 -56 -47 -88 -96 -88c-52 0 -85 27 -101 59l41 25c10 -21 24 -39 56 -39c25 0 47 16 47 47c0 27 -18 48 -55 48h-21v87c-116 14 -189 101 -189 212
c0 121 93 216 214 216c133 0 213 -102 208 -239h-352zM119 237h281c-6 71 -51 127 -138 127c-79 0 -132 -51 -143 -127z" />
    <glyph glyph-name="uni0244" unicode="&#x244;" horiz-adv-x="684" 
d="M21 361v56h77v263h73v-263h342v263h73v-263h78v-56h-78v-129c0 -159 -106 -240 -244 -240c-139 0 -244 81 -244 240v129h-77zM342 57c105 0 171 59 171 180v124h-342v-124c0 -121 65 -180 171 -180z" />
    <glyph glyph-name="uni0253" unicode="&#x253;" horiz-adv-x="551" 
d="M145 329c29 55 83 94 160 94c113 0 198 -92 198 -215c0 -124 -86 -216 -199 -216c-74 0 -134 40 -162 97l3 -89h-70v599c0 98 51 134 114 134c50 0 79 -22 97 -46l-36 -44c-13 16 -27 29 -55 29c-30 0 -50 -16 -50 -73v-270zM288 54c87 0 143 64 143 154
c0 89 -56 153 -143 153c-88 0 -147 -64 -147 -153c0 -90 59 -154 147 -154z" />
    <glyph glyph-name="uni0254" unicode="&#x254;" horiz-adv-x="468" 
d="M208 -8c-77 0 -131 27 -170 77l49 40c25 -33 64 -55 118 -55c88 0 143 66 143 153c0 88 -55 154 -142 154c-54 0 -89 -20 -114 -51l-46 41c38 45 90 72 163 72c123 0 213 -95 213 -216s-92 -215 -214 -215z" />
    <glyph glyph-name="uni0256" unicode="&#x256;" horiz-adv-x="554" 
d="M406 -86v86c0 23 2 66 3 89c-28 -57 -88 -97 -162 -97c-113 0 -199 92 -199 216c0 123 86 215 198 215c78 0 131 -39 160 -94v393h70v-809c0 -56 21 -73 50 -73s43 14 55 30l37 -44c-18 -25 -47 -47 -98 -47c-62 0 -114 37 -114 135zM263 54c88 0 147 64 147 154
c0 89 -59 153 -147 153c-87 0 -143 -64 -143 -153c0 -90 56 -154 143 -154z" />
    <glyph glyph-name="uni0257" unicode="&#x257;" horiz-adv-x="562" 
d="M247 -8c-113 0 -199 92 -199 216c0 123 86 215 198 215c78 0 131 -39 160 -94v270c0 98 52 134 114 134c51 0 80 -22 98 -46l-37 -44c-12 16 -26 29 -55 29s-50 -16 -50 -73v-599h-70l3 89c-28 -57 -88 -97 -162 -97zM263 54c88 0 147 64 147 154c0 89 -59 153 -147 153
c-87 0 -143 -64 -143 -153c0 -90 56 -154 143 -154z" />
    <glyph glyph-name="uni0259" unicode="&#x259;" 
d="M401 231c-6 81 -64 132 -154 132c-62 0 -105 -24 -133 -55l-38 44c38 41 95 71 173 71c137 0 222 -94 222 -216c0 -121 -92 -215 -213 -215c-133 0 -214 102 -209 239h352zM400 178h-281c7 -71 51 -127 137 -127c80 0 134 50 144 127z" />
    <glyph glyph-name="uni025B" unicode="&#x25b;" horiz-adv-x="472" 
d="M146 219c-46 10 -78 47 -78 86c0 81 81 118 175 118c85 0 141 -28 184 -71l-40 -44c-33 34 -84 56 -140 56c-60 0 -108 -19 -108 -69c0 -33 40 -56 69 -56h92v-47h-92c-38 0 -85 -17 -85 -66c0 -52 44 -75 115 -75c73 0 119 24 159 61l38 -44c-51 -49 -116 -76 -208 -76
c-109 0 -176 44 -176 120c0 57 38 94 95 107z" />
    <glyph glyph-name="uni0260" unicode="&#x260;" horiz-adv-x="576" 
d="M477 -13c0 -146 -86 -210 -209 -210c-103 0 -171 48 -210 115l53 36c34 -57 82 -90 155 -90c89 0 141 45 141 154v93c-27 -53 -86 -93 -160 -93c-113 0 -199 92 -199 216c0 123 86 215 198 215c78 0 134 -41 163 -98c-1 22 -2 66 -2 89v67c0 99 51 135 114 135
c50 0 79 -22 97 -47l-36 -44c-13 17 -27 30 -55 30c-30 0 -50 -16 -50 -73v-495zM263 54c88 0 147 64 147 154c0 89 -59 153 -147 153c-87 0 -143 -64 -143 -153c0 -90 56 -154 143 -154z" />
    <glyph glyph-name="uni0263" unicode="&#x263;" horiz-adv-x="462" 
d="M443 414l-173 -396c27 -57 53 -112 53 -152c0 -45 -25 -87 -88 -87c-58 0 -89 39 -89 90c0 45 25 94 53 148l-181 397h77l140 -322l137 322h71zM268 -137c0 26 -17 63 -35 99c-18 -35 -32 -70 -32 -98c0 -23 12 -38 35 -38c20 0 32 13 32 37z" />
    <glyph glyph-name="uni0266" unicode="&#x266;" 
d="M144 333c27 55 80 90 148 90c91 0 154 -63 154 -171v-252h-70v244c0 73 -34 115 -103 115c-77 0 -129 -49 -129 -131v-228h-70v599c0 98 52 134 114 134c51 0 80 -22 98 -46l-37 -44c-12 16 -26 29 -55 29s-50 -16 -50 -73v-266z" />
    <glyph glyph-name="uni0268" unicode="&#x268;" horiz-adv-x="242" 
d="M226 261v-58h-70v-203h-70v203h-70v58h70v153h70v-153h70zM121 534c-26 0 -50 20 -50 49s24 50 50 50s50 -21 50 -50s-24 -49 -50 -49z" />
    <glyph glyph-name="uni0269" unicode="&#x269;" horiz-adv-x="243" 
d="M76 103v311h70v-302c0 -43 19 -56 44 -56h18v-57c-11 -1 -24 -1 -36 -1c-59 0 -96 34 -96 105z" />
    <glyph glyph-name="uni0272" unicode="&#x272;" horiz-adv-x="522" 
d="M39 -221c-47 0 -75 19 -93 37l33 47c12 -11 28 -24 54 -24c28 0 48 17 48 69v506h70l-2 -84c27 58 81 93 149 93c92 0 155 -63 155 -171v-252h-70v244c0 73 -34 115 -103 115c-77 0 -129 -49 -129 -131v-319c0 -92 -50 -130 -112 -130z" />
    <glyph glyph-name="uni0283" unicode="&#x283;" horiz-adv-x="267" 
d="M37 -221c-47 0 -76 19 -93 37l32 47c12 -11 28 -24 54 -24c29 0 48 17 48 69v691c0 98 51 134 114 134c50 0 79 -22 98 -46l-37 -44c-13 16 -27 29 -55 29c-29 0 -50 -16 -50 -73v-690c0 -92 -50 -130 -111 -130z" />
    <glyph glyph-name="uni0288" unicode="&#x288;" horiz-adv-x="335" 
d="M210 -221c-63 0 -112 36 -112 134v442h-64v59h64v216h70v-216h115v-59h-115v-443c0 -54 19 -72 48 -72c32 0 46 13 59 26l34 -47c-20 -21 -48 -40 -99 -40z" />
    <glyph glyph-name="uni028B" unicode="&#x28b;" horiz-adv-x="512" 
d="M439 289v-123c0 -106 -68 -175 -183 -175c-119 0 -186 62 -186 173v250h70v-242c0 -79 39 -119 115 -119s114 43 114 115v121c0 57 -21 73 -50 73c-25 0 -36 -10 -48 -25l-29 48c17 22 43 38 83 38c63 0 114 -36 114 -134z" />
    <glyph glyph-name="uni1E00" unicode="&#x1e00;" horiz-adv-x="655" 
d="M327 -261c-59 0 -106 45 -106 101c0 55 47 100 106 100c58 0 105 -45 105 -100c0 -56 -47 -101 -105 -101zM327 -216c30 0 53 21 53 56c0 34 -23 55 -53 55c-31 0 -54 -21 -54 -55c0 -35 23 -56 54 -56zM37 0l282 687h12l288 -687h-76l-46 114h-344l-45 -114h-71z
M178 176h293l-120 302c-12 29 -25 73 -26 80c-2 -5 -15 -50 -27 -80z" />
    <glyph glyph-name="uni1E02" unicode="&#x1e02;" horiz-adv-x="609" 
d="M291 770c-24 0 -47 20 -47 47s23 47 47 47c25 0 47 -20 47 -47s-22 -47 -47 -47zM93 0v680h231c127 0 187 -75 187 -167c0 -67 -30 -116 -88 -135c88 -21 140 -88 140 -178c0 -113 -70 -200 -215 -200h-255zM165 402h164c79 0 110 45 110 107s-33 107 -120 107h-154v-214
zM165 64h178c104 0 147 59 147 138c0 80 -47 138 -151 138h-174v-276z" />
    <glyph glyph-name="uni1E03" unicode="&#x1e03;" horiz-adv-x="551" 
d="M306 515c-24 0 -47 20 -47 47s23 47 47 47s47 -20 47 -47s-23 -47 -47 -47zM302 -8c-74 0 -132 40 -160 97l2 -89h-69v722h69v-393c30 55 82 94 159 94c113 0 200 -92 200 -215c0 -124 -88 -216 -201 -216zM288 53c87 0 143 65 143 155c0 89 -56 153 -143 153
c-88 0 -147 -64 -147 -153c0 -90 59 -155 147 -155z" />
    <glyph glyph-name="uni1E04" unicode="&#x1e04;" horiz-adv-x="609" 
d="M295 -170c-24 0 -47 19 -47 47c0 26 23 46 47 46c25 0 47 -20 47 -46c0 -28 -22 -47 -47 -47zM93 0v680h231c127 0 187 -75 187 -167c0 -67 -30 -116 -88 -135c88 -21 140 -88 140 -178c0 -113 -70 -200 -215 -200h-255zM165 402h164c79 0 110 45 110 107
s-33 107 -120 107h-154v-214zM165 64h178c104 0 147 59 147 138c0 80 -47 138 -151 138h-174v-276z" />
    <glyph glyph-name="uni1E05" unicode="&#x1e05;" horiz-adv-x="551" 
d="M280 -170c-24 0 -47 19 -47 47c0 26 23 46 47 46s47 -20 47 -46c0 -28 -23 -47 -47 -47zM302 -8c-74 0 -132 40 -160 97l2 -89h-69v722h69v-393c30 55 82 94 159 94c113 0 200 -92 200 -215c0 -124 -88 -216 -201 -216zM288 53c87 0 143 65 143 155
c0 89 -56 153 -143 153c-88 0 -147 -64 -147 -153c0 -90 59 -155 147 -155z" />
    <glyph glyph-name="uni1E06" unicode="&#x1e06;" horiz-adv-x="609" 
d="M197 -144v55h210v-55h-210zM93 0v680h231c127 0 187 -75 187 -167c0 -67 -30 -116 -88 -135c88 -21 140 -88 140 -178c0 -113 -70 -200 -215 -200h-255zM165 402h164c79 0 110 45 110 107s-33 107 -120 107h-154v-214zM165 64h178c104 0 147 59 147 138
c0 80 -47 138 -151 138h-174v-276z" />
    <glyph glyph-name="uni1E07" unicode="&#x1e07;" horiz-adv-x="551" 
d="M173 -144v55h211v-55h-211zM302 -8c-74 0 -132 40 -160 97l2 -89h-69v722h69v-393c30 55 82 94 159 94c113 0 200 -92 200 -215c0 -124 -88 -216 -201 -216zM288 53c87 0 143 65 143 155c0 89 -56 153 -143 153c-88 0 -147 -64 -147 -153c0 -90 59 -155 147 -155z" />
    <glyph glyph-name="uni1E08" unicode="&#x1e08;" horiz-adv-x="729" 
d="M356 -6c-171 22 -302 158 -302 346c0 205 156 348 349 348c120 0 212 -45 270 -132l-55 -40c-44 64 -117 106 -215 106c-158 0 -274 -120 -274 -282s116 -283 274 -283c99 0 175 43 223 114l57 -39c-59 -87 -155 -138 -275 -140h-6v-45c43 -6 83 -37 83 -91
c0 -56 -47 -88 -96 -88c-52 0 -86 27 -101 59l40 25c11 -21 25 -39 57 -39c25 0 47 16 47 47c0 27 -18 48 -55 48h-21v86zM370 754l68 193h81l-94 -193h-55z" />
    <glyph glyph-name="uni1E09" unicode="&#x1e09;" horiz-adv-x="469" 
d="M230 498l68 193h81l-94 -193h-55zM217 -4c-99 21 -170 105 -170 211c0 121 94 216 216 216c74 0 125 -28 163 -74l-50 -41c-25 33 -62 53 -113 53c-88 0 -143 -66 -143 -154c0 -87 55 -154 143 -154c57 0 93 23 119 54l48 -41c-39 -47 -89 -74 -165 -74h-1v-45
c42 -6 83 -37 83 -91c0 -56 -48 -88 -96 -88c-53 0 -86 27 -102 59l41 25c10 -21 25 -39 57 -39c25 0 46 16 46 47c0 27 -17 48 -55 48h-21v88z" />
    <glyph glyph-name="uni1E0A" unicode="&#x1e0a;" horiz-adv-x="680" 
d="M329 770c-24 0 -47 20 -47 47s23 47 47 47c25 0 47 -20 47 -47s-22 -47 -47 -47zM93 0v680h165c227 0 368 -134 368 -340s-140 -340 -368 -340h-165zM165 65h88c201 0 297 113 297 275s-96 275 -297 275h-88v-550z" />
    <glyph glyph-name="uni1E0B" unicode="&#x1e0b;" horiz-adv-x="551" 
d="M239 515c-24 0 -47 20 -47 47s23 47 47 47s47 -20 47 -47s-23 -47 -47 -47zM249 -8c-113 0 -201 92 -201 216c0 123 88 215 200 215c79 0 129 -39 159 -94v393h69v-722h-69l2 89c-28 -57 -86 -97 -160 -97zM263 53c88 0 147 65 147 155c0 89 -59 153 -147 153
c-87 0 -143 -64 -143 -153c0 -90 56 -155 143 -155z" />
    <glyph glyph-name="uni1E0C" unicode="&#x1e0c;" horiz-adv-x="680" 
d="M329 -170c-24 0 -47 19 -47 47c0 26 23 46 47 46c25 0 47 -20 47 -46c0 -28 -22 -47 -47 -47zM93 0v680h165c227 0 368 -134 368 -340s-140 -340 -368 -340h-165zM165 65h88c201 0 297 113 297 275s-96 275 -297 275h-88v-550z" />
    <glyph glyph-name="uni1E0D" unicode="&#x1e0d;" horiz-adv-x="551" 
d="M268 -170c-24 0 -47 19 -47 47c0 26 23 46 47 46c25 0 47 -20 47 -46c0 -28 -22 -47 -47 -47zM249 -8c-113 0 -201 92 -201 216c0 123 88 215 200 215c79 0 129 -39 159 -94v393h69v-722h-69l2 89c-28 -57 -86 -97 -160 -97zM263 53c88 0 147 65 147 155
c0 89 -59 153 -147 153c-87 0 -143 -64 -143 -153c0 -90 56 -155 143 -155z" />
    <glyph glyph-name="uni1E0E" unicode="&#x1e0e;" horiz-adv-x="680" 
d="M232 -144v55h210v-55h-210zM93 0v680h165c227 0 368 -134 368 -340s-140 -340 -368 -340h-165zM165 65h88c201 0 297 113 297 275s-96 275 -297 275h-88v-550z" />
    <glyph glyph-name="uni1E0F" unicode="&#x1e0f;" horiz-adv-x="551" 
d="M166 -144v55h210v-55h-210zM249 -8c-113 0 -201 92 -201 216c0 123 88 215 200 215c79 0 129 -39 159 -94v393h69v-722h-69l2 89c-28 -57 -86 -97 -160 -97zM263 53c88 0 147 65 147 155c0 89 -59 153 -147 153c-87 0 -143 -64 -143 -153c0 -90 56 -155 143 -155z" />
    <glyph glyph-name="uni1E10" unicode="&#x1e10;" horiz-adv-x="680" 
d="M280 -260l31 99c-16 5 -31 23 -31 46c0 29 24 52 51 52c26 0 51 -23 51 -51c0 -14 -4 -27 -12 -40l-52 -106h-38zM93 0v680h165c227 0 368 -134 368 -340s-140 -340 -368 -340h-165zM165 65h88c201 0 297 113 297 275s-96 275 -297 275h-88v-550z" />
    <glyph glyph-name="uni1E11" unicode="&#x1e11;" horiz-adv-x="551" 
d="M220 -260l31 99c-16 5 -31 23 -31 46c0 29 24 52 51 52s51 -23 51 -51c0 -14 -4 -27 -11 -40l-53 -106h-38zM249 -8c-113 0 -201 92 -201 216c0 123 88 215 200 215c79 0 129 -39 159 -94v393h69v-722h-69l2 89c-28 -57 -86 -97 -160 -97zM263 53c88 0 147 65 147 155
c0 89 -59 153 -147 153c-87 0 -143 -64 -143 -153c0 -90 56 -155 143 -155z" />
    <glyph glyph-name="uni1E12" unicode="&#x1e12;" horiz-adv-x="680" 
d="M201 -251l127 193h10l128 -193h-59l-73 101l-75 -101h-58zM93 0v680h165c227 0 368 -134 368 -340s-140 -340 -368 -340h-165zM165 65h88c201 0 297 113 297 275s-96 275 -297 275h-88v-550z" />
    <glyph glyph-name="uni1E13" unicode="&#x1e13;" horiz-adv-x="551" 
d="M137 -251l128 193h10l128 -193h-59l-74 101l-74 -101h-59zM249 -8c-113 0 -201 92 -201 216c0 123 88 215 200 215c79 0 129 -39 159 -94v393h69v-722h-69l2 89c-28 -57 -86 -97 -160 -97zM263 53c88 0 147 65 147 155c0 89 -59 153 -147 153c-87 0 -143 -64 -143 -153
c0 -90 56 -155 143 -155z" />
    <glyph glyph-name="uni1E14" unicode="&#x1e14;" horiz-adv-x="580" 
d="M283 877l-93 193h81l67 -193h-55zM198 770v55h210v-55h-210zM93 0v680h414v-64h-341v-316h304v-63h-304v-173h355v-64h-428z" />
    <glyph glyph-name="uni1E15" unicode="&#x1e15;" 
d="M247 636l-93 192h81l67 -192h-55zM156 515v55h211v-55h-211zM118 184c9 -79 63 -133 154 -133c62 0 104 25 131 55l43 -42c-38 -43 -93 -72 -174 -72c-136 0 -224 94 -224 215s93 216 214 216c133 0 213 -102 208 -239h-352zM119 237h281c-6 71 -51 127 -138 127
c-79 0 -132 -51 -143 -127z" />
    <glyph glyph-name="uni1E16" unicode="&#x1e16;" horiz-adv-x="580" 
d="M276 877l67 193h81l-93 -193h-55zM198 770v55h210v-55h-210zM93 0v680h414v-64h-341v-316h304v-63h-304v-173h355v-64h-428z" />
    <glyph glyph-name="uni1E17" unicode="&#x1e17;" 
d="M230 636l67 192h81l-93 -192h-55zM156 515v55h211v-55h-211zM118 184c9 -79 63 -133 154 -133c62 0 104 25 131 55l43 -42c-38 -43 -93 -72 -174 -72c-136 0 -224 94 -224 215s93 216 214 216c133 0 213 -102 208 -239h-352zM119 237h281c-6 71 -51 127 -138 127
c-79 0 -132 -51 -143 -127z" />
    <glyph glyph-name="uni1E18" unicode="&#x1e18;" horiz-adv-x="580" 
d="M173 -251l127 193h10l128 -193h-59l-73 101l-75 -101h-58zM93 0v680h414v-64h-342v-319h305v-63h-305v-170h356v-64h-428z" />
    <glyph glyph-name="uni1E19" unicode="&#x1e19;" 
d="M142 -251l128 193h10l128 -193h-59l-74 101l-74 -101h-59zM118 184c9 -79 63 -133 154 -133c62 0 104 25 131 55l43 -42c-38 -43 -93 -72 -174 -72c-136 0 -224 94 -224 215s93 216 214 216c133 0 213 -102 208 -239h-352zM119 237h281c-6 71 -51 127 -138 127
c-79 0 -132 -51 -143 -127z" />
    <glyph glyph-name="uni1E1A" unicode="&#x1e1a;" horiz-adv-x="580" 
d="M210 -181l-52 5c4 72 38 111 87 111c28 0 46 -13 68 -32c25 -22 33 -29 49 -29c21 0 32 19 36 59l52 -5c-4 -72 -36 -110 -86 -110c-28 0 -46 13 -68 33c-25 21 -33 27 -49 27c-20 0 -33 -19 -37 -59zM93 0v680h414v-64h-342v-319h305v-63h-305v-170h356v-64h-428z" />
    <glyph glyph-name="uni1E1B" unicode="&#x1e1b;" 
d="M170 -181l-53 5c4 72 38 111 87 111c28 0 46 -13 68 -32c25 -22 33 -29 49 -29c21 0 32 19 36 59l52 -5c-4 -72 -35 -110 -86 -110c-28 0 -46 13 -68 33c-25 21 -33 27 -49 27c-20 0 -33 -19 -36 -59zM118 184c9 -79 63 -133 154 -133c62 0 104 25 131 55l43 -42
c-38 -43 -93 -72 -174 -72c-136 0 -224 94 -224 215s93 216 214 216c133 0 213 -102 208 -239h-352zM119 237h281c-6 71 -51 127 -138 127c-79 0 -132 -51 -143 -127z" />
    <glyph glyph-name="uni1E1C" unicode="&#x1e1c;" horiz-adv-x="580" 
d="M93 0v680h414v-64h-342v-319h305v-63h-305v-170h356v-64h-197v-53c43 -6 83 -37 83 -91c0 -56 -47 -88 -96 -88c-52 0 -86 27 -102 59l41 25c10 -21 25 -39 57 -39c25 0 47 16 47 47c0 27 -18 48 -55 48h-22v92h-184zM305 744c-77 0 -121 50 -131 116l57 10
c9 -40 27 -71 74 -71c48 0 66 31 75 71l57 -10c-10 -66 -55 -116 -132 -116z" />
    <glyph glyph-name="uni1E1D" unicode="&#x1e1d;" 
d="M118 184c9 -79 63 -133 154 -133c62 0 104 25 131 55l43 -42c-38 -43 -91 -71 -170 -72v-45c42 -6 83 -37 83 -91c0 -56 -48 -88 -96 -88c-53 0 -86 27 -102 59l41 25c10 -21 25 -39 57 -39c25 0 46 16 46 47c0 27 -17 48 -55 48h-21v88c-112 17 -181 103 -181 211
c0 121 93 216 214 216c133 0 213 -102 208 -239h-352zM119 237h281c-6 71 -51 127 -138 127c-79 0 -132 -51 -143 -127zM261 489c-77 0 -121 50 -131 116l57 10c9 -39 27 -70 74 -70s66 31 75 70l57 -10c-10 -66 -55 -116 -132 -116z" />
    <glyph glyph-name="uni1E1E" unicode="&#x1e1e;" horiz-adv-x="556" 
d="M297 770c-24 0 -47 20 -47 47s23 47 47 47c25 0 47 -20 47 -47s-22 -47 -47 -47zM93 0v680h409v-64h-337v-319h306v-66h-306v-231h-72z" />
    <glyph glyph-name="uni1E1F" unicode="&#x1e1f;" horiz-adv-x="316" 
d="M209 788c-24 0 -47 20 -47 47c0 26 23 47 47 47s47 -21 47 -47c0 -27 -23 -47 -47 -47zM101 0v355h-67v59h67v188c0 93 47 133 115 133c51 0 84 -20 105 -51l-46 -41c-13 17 -25 29 -53 29c-30 0 -51 -17 -51 -70v-188h111v-59h-111v-355h-70z" />
    <glyph glyph-name="uni1E22" unicode="&#x1e22;" horiz-adv-x="693" 
d="M348 770c-24 0 -47 20 -47 47s23 47 47 47s47 -20 47 -47s-23 -47 -47 -47zM93 0v680h72v-383h364v383h72v-680h-72v231h-364v-231h-72z" />
    <glyph glyph-name="uni1E23" unicode="&#x1e23;" 
d="M291 515c-24 0 -47 20 -47 47s23 47 47 47c25 0 47 -20 47 -47s-22 -47 -47 -47zM74 0v722h70v-389c26 55 80 90 147 90c92 0 155 -63 155 -171v-252h-70v244c0 73 -34 115 -103 115c-77 0 -129 -49 -129 -131v-228h-70z" />
    <glyph glyph-name="uni1E24" unicode="&#x1e24;" horiz-adv-x="693" 
d="M348 -170c-24 0 -47 19 -47 47c0 26 23 46 47 46s47 -20 47 -46c0 -28 -23 -47 -47 -47zM93 0v680h72v-383h364v383h72v-680h-72v231h-364v-231h-72z" />
    <glyph glyph-name="uni1E25" unicode="&#x1e25;" 
d="M261 -170c-24 0 -47 19 -47 47c0 26 23 46 47 46c25 0 47 -20 47 -46c0 -28 -22 -47 -47 -47zM74 0v722h70v-389c26 55 80 90 147 90c92 0 155 -63 155 -171v-252h-70v244c0 73 -34 115 -103 115c-77 0 -129 -49 -129 -131v-228h-70z" />
    <glyph glyph-name="uni1E26" unicode="&#x1e26;" horiz-adv-x="693" 
d="M441 771c-24 0 -46 20 -46 46s22 46 46 46s46 -20 46 -46s-22 -46 -46 -46zM268 771c-25 0 -47 20 -47 46s22 46 47 46c24 0 46 -20 46 -46s-22 -46 -46 -46zM93 0v680h72v-383h364v383h72v-680h-72v231h-364v-231h-72z" />
    <glyph glyph-name="uni1E27" unicode="&#x1e27;" 
d="M358 789c-25 0 -47 20 -47 46s22 46 47 46c24 0 46 -20 46 -46s-22 -46 -46 -46zM184 789c-24 0 -46 20 -46 46s22 46 46 46c25 0 46 -20 46 -46s-21 -46 -46 -46zM74 0v722h70v-389c26 55 80 90 147 90c92 0 155 -63 155 -171v-252h-70v244c0 73 -34 115 -103 115
c-77 0 -129 -49 -129 -131v-228h-70z" />
    <glyph glyph-name="uni1E28" unicode="&#x1e28;" horiz-adv-x="693" 
d="M93 0v680h73v-383h362v383h73v-680h-73v231h-362v-231h-12v-53c43 -6 83 -37 83 -91c0 -56 -47 -88 -96 -88c-52 0 -85 27 -101 59l41 25c10 -21 24 -39 56 -39c25 0 47 16 47 47c0 27 -18 48 -55 48h-25v92h-11z" />
    <glyph glyph-name="uni1E29" unicode="&#x1e29;" 
d="M74 0v722h70v-389c27 55 80 90 148 90c91 0 154 -63 154 -171v-252h-70v244c0 73 -34 115 -103 115c-77 0 -129 -49 -129 -131v-228h-10v-53c42 -6 83 -37 83 -91c0 -56 -48 -88 -96 -88c-53 0 -86 27 -102 59l41 25c10 -21 25 -39 57 -39c25 0 46 16 46 47
c0 27 -17 48 -55 48h-23v92h-11z" />
    <glyph glyph-name="uni1E2A" unicode="&#x1e2a;" horiz-adv-x="693" 
d="M353 -207c-77 0 -122 49 -132 116l57 9c9 -39 27 -70 75 -70c47 0 65 31 74 70l57 -9c-10 -67 -54 -116 -131 -116zM93 0v680h72v-383h364v383h72v-680h-72v231h-364v-231h-72z" />
    <glyph glyph-name="uni1E2B" unicode="&#x1e2b;" 
d="M260 -207c-77 0 -121 49 -131 116l57 9c9 -39 27 -70 74 -70s66 31 75 70l57 -9c-10 -67 -55 -116 -132 -116zM74 0v722h70v-389c26 55 80 90 147 90c92 0 155 -63 155 -171v-252h-70v244c0 73 -34 115 -103 115c-77 0 -129 -49 -129 -131v-228h-70z" />
    <glyph glyph-name="uni1E2C" unicode="&#x1e2c;" horiz-adv-x="265" 
d="M40 -181l-53 5c4 72 38 111 87 111c28 0 46 -13 68 -32c25 -22 33 -29 49 -29c21 0 32 19 36 59l52 -5c-4 -72 -35 -110 -86 -110c-28 0 -46 13 -68 33c-25 21 -33 27 -49 27c-20 0 -33 -19 -36 -59zM96 0v680h73v-680h-73z" />
    <glyph glyph-name="uni1E2D" unicode="&#x1e2d;" horiz-adv-x="222" 
d="M18 -181l-53 5c4 72 38 111 87 111c28 0 46 -13 68 -32c25 -22 33 -29 49 -29c21 0 32 19 36 59l52 -5c-4 -72 -35 -110 -86 -110c-28 0 -46 13 -68 33c-25 21 -33 27 -49 27c-20 0 -33 -19 -36 -59zM111 534c-26 0 -50 20 -50 49s24 50 50 50s50 -21 50 -50
s-24 -49 -50 -49zM76 0v414h70v-414h-70z" />
    <glyph glyph-name="uni1E2E" unicode="&#x1e2e;" horiz-adv-x="265" 
d="M219 771c-24 0 -46 20 -46 46s22 46 46 46s46 -20 46 -46s-22 -46 -46 -46zM46 771c-25 0 -47 20 -47 46s22 46 47 46c24 0 46 -20 46 -46s-22 -46 -46 -46zM102 904l67 193h81l-93 -193h-55zM96 0v680h73v-680h-73z" />
    <glyph glyph-name="uni1E2F" unicode="&#x1e2f;" horiz-adv-x="222" 
d="M193 516c-25 0 -47 21 -47 46c0 26 22 47 47 47c24 0 46 -21 46 -47c0 -25 -22 -46 -46 -46zM29 516c-24 0 -46 21 -46 46c0 26 22 47 46 47s46 -21 46 -47c0 -25 -22 -46 -46 -46zM76 0v414h70v-414h-70zM81 650l68 193h81l-94 -193h-55z" />
    <glyph glyph-name="uni1E30" unicode="&#x1e30;" horiz-adv-x="607" 
d="M280 753l68 192h81l-94 -192h-55zM159 265c15 29 36 67 49 84l257 331h81l-252 -328l279 -352h-89l-237 299l-82 -99v-200h-72v680h72v-322c0 -32 -4 -71 -6 -93z" />
    <glyph glyph-name="uni1E31" unicode="&#x1e31;" horiz-adv-x="464" 
d="M195 771l67 192h81l-93 -192h-55zM144 126v-126h-70v722h70v-463c0 -21 -2 -42 -5 -59l197 214h81l-159 -174l184 -240h-83l-150 194z" />
    <glyph glyph-name="uni1E32" unicode="&#x1e32;" horiz-adv-x="607" 
d="M291 -170c-24 0 -47 19 -47 47c0 26 23 46 47 46s47 -20 47 -46c0 -28 -23 -47 -47 -47zM159 265c15 29 36 67 49 84l257 331h81l-252 -328l279 -352h-89l-237 299l-82 -99v-200h-72v680h72v-322c0 -32 -4 -71 -6 -93z" />
    <glyph glyph-name="uni1E33" unicode="&#x1e33;" horiz-adv-x="464" 
d="M241 -170c-24 0 -46 19 -46 47c0 26 22 46 46 46c25 0 47 -20 47 -46c0 -28 -22 -47 -47 -47zM144 126v-126h-70v722h70v-463c0 -21 -2 -42 -5 -59l197 214h81l-159 -174l184 -240h-83l-150 194z" />
    <glyph glyph-name="uni1E34" unicode="&#x1e34;" horiz-adv-x="607" 
d="M207 -144v55h210v-55h-210zM159 265c15 29 36 67 49 84l257 331h81l-252 -328l279 -352h-89l-237 299l-82 -99v-200h-72v680h72v-322c0 -32 -4 -71 -6 -93z" />
    <glyph glyph-name="uni1E35" unicode="&#x1e35;" horiz-adv-x="464" 
d="M141 -144v55h211v-55h-211zM144 126v-126h-70v722h70v-463c0 -21 -2 -42 -5 -59l197 214h81l-159 -174l184 -240h-83l-150 194z" />
    <glyph glyph-name="uni1E36" unicode="&#x1e36;" horiz-adv-x="528" 
d="M296 -170c-24 0 -47 19 -47 47c0 26 23 46 47 46s47 -20 47 -46c0 -28 -23 -47 -47 -47zM93 0v680h72v-616h321v-64h-393z" />
    <glyph glyph-name="uni1E37" unicode="&#x1e37;" horiz-adv-x="228" 
d="M114 -170c-24 0 -47 19 -47 47c0 26 23 46 47 46c25 0 47 -20 47 -46c0 -28 -22 -47 -47 -47zM79 0v722h70v-722h-70z" />
    <glyph glyph-name="uni1E38" unicode="&#x1e38;" horiz-adv-x="528" 
d="M296 -170c-24 0 -47 19 -47 47c0 26 23 46 47 46s47 -20 47 -46c0 -28 -23 -47 -47 -47zM192 770v55h210v-55h-210zM93 0v680h72v-616h321v-64h-393z" />
    <glyph glyph-name="uni1E39" unicode="&#x1e39;" horiz-adv-x="228" 
d="M114 -170c-24 0 -47 19 -47 47c0 26 23 46 47 46c25 0 47 -20 47 -46c0 -28 -22 -47 -47 -47zM10 771v55h211v-55h-211zM79 0v722h70v-722h-70z" />
    <glyph glyph-name="uni1E3A" unicode="&#x1e3a;" horiz-adv-x="528" 
d="M188 -144v55h210v-55h-210zM93 0v680h72v-616h321v-64h-393z" />
    <glyph glyph-name="uni1E3B" unicode="&#x1e3b;" horiz-adv-x="228" 
d="M9 -144v55h210v-55h-210zM79 0v722h70v-722h-70z" />
    <glyph glyph-name="uni1E3C" unicode="&#x1e3c;" horiz-adv-x="528" 
d="M158 -251l128 193h10l128 -193h-59l-73 101l-75 -101h-59zM93 0v680h72v-616h321v-64h-393z" />
    <glyph glyph-name="uni1E3D" unicode="&#x1e3d;" horiz-adv-x="228" 
d="M-18 -251l128 193h9l128 -193h-59l-73 101l-75 -101h-58zM79 0v722h70v-722h-70z" />
    </font>
</defs>
</svg>
