<svg width="22" height="22" viewBox="0 0 22 22" fill="none" xmlns="http://www.w3.org/2000/svg">
<g clip-path="url(#clip0_400_814)">
<path d="M2.75002 7.33331L8.25277 1.83331H18.3315C18.8375 1.83331 19.25 2.2504 19.25 2.74265V19.2573C19.2498 19.4986 19.1538 19.7299 18.9831 19.9004C18.8124 20.0709 18.581 20.1666 18.3398 20.1666H3.66027C3.53989 20.1658 3.42086 20.1413 3.30996 20.0944C3.19907 20.0476 3.09849 19.9793 3.01396 19.8936C2.92944 19.8079 2.86263 19.7064 2.81734 19.5948C2.77205 19.4833 2.74918 19.3639 2.75002 19.2436V7.33331ZM9.16669 3.66665V8.24998H4.58336V18.3333H17.4167V3.66665H9.16669Z" fill="#494B50"/>
</g>
<defs>
<clipPath id="clip0_400_814">
<rect width="22" height="22" fill="white"/>
</clipPath>
</defs>
</svg>
