<svg width="24" height="24" viewBox="0 0 24 24" fill="none" xmlns="http://www.w3.org/2000/svg">
<g clip-path="url(#clip0_908_1848)">
<path d="M19.0389 19.0433H16.0778V14.4022C16.0778 13.2956 16.0556 11.8711 14.5333 11.8711C12.99 11.8711 12.7544 13.0756 12.7544 14.3211V19.0433H9.79222V9.5H12.6367V10.8H12.6756C13.0733 10.0511 14.04 9.25889 15.4844 9.25889C18.4844 9.25889 19.04 11.2344 19.04 13.8044V19.0433H19.0389ZM6.44778 8.19444C6.22173 8.19474 5.99784 8.15041 5.78896 8.06401C5.58007 7.9776 5.3903 7.85082 5.23051 7.69093C5.07072 7.53104 4.94406 7.34118 4.85779 7.13224C4.77152 6.9233 4.72734 6.69938 4.72778 6.47333C4.728 6.13315 4.82909 5.80067 5.01827 5.51794C5.20745 5.23521 5.47622 5.01493 5.79059 4.88495C6.10496 4.75497 6.45082 4.72113 6.78442 4.78771C7.11803 4.85429 7.4244 5.01831 7.66479 5.25901C7.90518 5.49971 8.06879 5.80629 8.13494 6.13998C8.2011 6.47367 8.16681 6.81948 8.03642 7.13369C7.90604 7.44789 7.68541 7.71638 7.40243 7.90519C7.11946 8.094 6.78685 8.19466 6.44667 8.19444H6.44778ZM7.93222 19.0433H4.96222V9.5H7.93333V19.0433H7.93222ZM20.5222 2H3.47667C2.65889 2 2 2.64444 2 3.44111V20.5589C2 21.3556 2.66 22 3.47556 22H20.5178C21.3333 22 22 21.3556 22 20.5589V3.44111C22 2.64444 21.3333 2 20.5178 2H20.5211H20.5222Z" fill="white"/>
</g>
<defs>
<clipPath id="clip0_908_1848">
<rect width="24" height="24" fill="white"/>
</clipPath>
</defs>
</svg>
