<svg width="20" height="20" viewBox="0 0 20 20" fill="none" xmlns="http://www.w3.org/2000/svg">
<g clip-path="url(#clip0_400_821)">
<path d="M11.6666 11.25V6.66669C11.6666 5.78263 11.3154 4.93479 10.6903 4.30966C10.0652 3.68454 9.21731 3.33335 8.33325 3.33335C7.4492 3.33335 6.60135 3.68454 5.97623 4.30966C5.35111 4.93479 4.99992 5.78263 4.99992 6.66669V11.25C4.99992 12.6866 5.5706 14.0644 6.58642 15.0802C7.60225 16.096 8.98 16.6667 10.4166 16.6667C11.8532 16.6667 13.2309 16.096 14.2467 15.0802C15.2626 14.0644 15.8333 12.6866 15.8333 11.25V3.33335H17.4999V11.25C17.4999 13.1286 16.7536 14.9303 15.4253 16.2587C14.0969 17.5871 12.2952 18.3334 10.4166 18.3334C8.53797 18.3334 6.73629 17.5871 5.40791 16.2587C4.07953 14.9303 3.33325 13.1286 3.33325 11.25V6.66669C3.33325 5.3406 3.86004 4.06884 4.79772 3.13115C5.7354 2.19347 7.00717 1.66669 8.33325 1.66669C9.65933 1.66669 10.9311 2.19347 11.8688 3.13115C12.8065 4.06884 13.3333 5.3406 13.3333 6.66669V11.25C13.3333 12.0236 13.026 12.7654 12.479 13.3124C11.932 13.8594 11.1901 14.1667 10.4166 14.1667C9.64304 14.1667 8.90117 13.8594 8.35419 13.3124C7.80721 12.7654 7.49992 12.0236 7.49992 11.25V6.66669H9.16658V11.25C9.16658 11.5815 9.29828 11.8995 9.5327 12.1339C9.76712 12.3683 10.0851 12.5 10.4166 12.5C10.7481 12.5 11.066 12.3683 11.3005 12.1339C11.5349 11.8995 11.6666 11.5815 11.6666 11.25Z" fill="#494B50"/>
</g>
<defs>
<clipPath id="clip0_400_821">
<rect width="20" height="20" fill="white"/>
</clipPath>
</defs>
</svg>
