<svg width="28" height="28" viewBox="0 0 28 28" fill="none" xmlns="http://www.w3.org/2000/svg">
<g clip-path="url(#clip0_621_215)">
<path d="M21.3908 21.3955H18.2817V16.5223C18.2817 15.3603 18.2583 13.8647 16.66 13.8647C15.0395 13.8647 14.7922 15.1293 14.7922 16.4372V21.3955H11.6818V11.375H14.6685V12.74H14.7093C15.127 11.9537 16.142 11.1218 17.6587 11.1218C20.8087 11.1218 21.392 13.1962 21.392 15.8947V21.3955H21.3908ZM8.17017 10.0042C7.93281 10.0045 7.69774 9.95793 7.47841 9.86721C7.25908 9.77648 7.05981 9.64336 6.89203 9.47547C6.72425 9.30759 6.59126 9.10823 6.50068 8.88885C6.4101 8.66946 6.36371 8.43435 6.36417 8.197C6.3644 7.83981 6.47054 7.4907 6.66918 7.19384C6.86782 6.89697 7.15003 6.66567 7.48012 6.52919C7.81021 6.39272 8.17336 6.35719 8.52364 6.4271C8.87393 6.49701 9.19561 6.66922 9.44803 6.92196C9.70044 7.17469 9.87223 7.4966 9.94169 7.84698C10.0111 8.19735 9.97515 8.56046 9.83825 8.89037C9.70134 9.22029 9.46968 9.50219 9.17256 9.70045C8.87543 9.8987 8.52619 10.0044 8.169 10.0042H8.17017ZM9.72883 21.3955H6.61033V11.375H9.73V21.3955H9.72883ZM22.9483 3.5H5.0505C4.19183 3.5 3.5 4.17667 3.5 5.01317V22.9868C3.5 23.8233 4.193 24.5 5.04933 24.5H22.9437C23.8 24.5 24.5 23.8233 24.5 22.9868V5.01317C24.5 4.17667 23.8 3.5 22.9437 3.5H22.9472H22.9483Z" fill="white"/>
</g>
<defs>
<clipPath id="clip0_621_215">
<rect width="28" height="28" fill="white"/>
</clipPath>
</defs>
</svg>
